<?xml version="1.0" encoding="utf-8"?>
<!-- Generator: Adobe Illustrator 18.0.0, SVG Export Plug-In . SVG Version: 6.00 Build 0)  -->
<!DOCTYPE svg PUBLIC "-//W3C//DTD SVG 1.1//EN" "http://www.w3.org/Graphics/SVG/1.1/DTD/svg11.dtd" [
	<!ENTITY ns_extend "http://ns.adobe.com/Extensibility/1.0/">
	<!ENTITY ns_ai "http://ns.adobe.com/AdobeIllustrator/10.0/">
	<!ENTITY ns_graphs "http://ns.adobe.com/Graphs/1.0/">
	<!ENTITY ns_vars "http://ns.adobe.com/Variables/1.0/">
	<!ENTITY ns_imrep "http://ns.adobe.com/ImageReplacement/1.0/">
	<!ENTITY ns_sfw "http://ns.adobe.com/SaveForWeb/1.0/">
	<!ENTITY ns_custom "http://ns.adobe.com/GenericCustomNamespace/1.0/">
	<!ENTITY ns_adobe_xpath "http://ns.adobe.com/XPath/1.0/">
]>
<svg version="1.1" id="Layer_1" xmlns:x="&ns_extend;" xmlns:i="&ns_ai;" xmlns:graph="&ns_graphs;"
	 xmlns="http://www.w3.org/2000/svg" xmlns:xlink="http://www.w3.org/1999/xlink" x="0px" y="0px" viewBox="0 0 400 200"
	 enable-background="new 0 0 400 200" xml:space="preserve">
<metadata>
	<sfw  xmlns="&ns_sfw;">
		<slices></slices>
		<sliceSourceBounds  width="404.9" height="205.7" x="-2.9" y="-202.8" bottomLeftOrigin="true"></sliceSourceBounds>
	</sfw>
</metadata>
<rect x="-2.9" y="-2.9" display="none" fill="#191919" width="404.9" height="205.7"/>
<g id="aaron-e" display="none">
	
		<linearGradient id="SVGID_1_" gradientUnits="userSpaceOnUse" x1="319.1201" y1="87.3648" x2="319.1201" y2="78.0245" gradientTransform="matrix(1.1367 -1.138956e-002 0.1508 1.0318 -134.9252 -0.3899)">
		<stop  offset="0" style="stop-color:#BD9661"/>
		<stop  offset="0.4058" style="stop-color:#C39B64"/>
		<stop  offset="0.9548" style="stop-color:#D4A96D"/>
		<stop  offset="0.9972" style="stop-color:#D6AA6E"/>
	</linearGradient>
	<path display="inline" fill="url(#SVGID_1_)" d="M241.8,77c1.9,1.5,2.6,2.9,1.4,6.5c-1,2.8-2.6,3.3-4.4,1.7c-2.7-2.4-2-3.3-1.2-5.6
		S240,75.5,241.8,77z"/>
	
		<linearGradient id="SVGID_2_" gradientUnits="userSpaceOnUse" x1="236.7603" y1="102.3401" x2="236.7603" y2="71.9971" gradientTransform="matrix(0.999 4.401876e-002 -4.401876e-002 0.999 12.1962 -31.0362)">
		<stop  offset="0" style="stop-color:#6C7880"/>
		<stop  offset="4.063693e-002" style="stop-color:#6F7B83"/>
		<stop  offset="0.3524" style="stop-color:#808F97"/>
		<stop  offset="0.6695" style="stop-color:#8A9AA2"/>
		<stop  offset="0.9972" style="stop-color:#8D9EA6"/>
	</linearGradient>
	<path display="inline" fill="url(#SVGID_2_)" d="M243.6,81.6c4.4-17.3,8.6-26.1,8.6-26.1l-0.7-3.9c-0.8,0.6-8.6,9.1-14.1,28.4
		L243.6,81.6L243.6,81.6z"/>
</g>
<g id="aaron-d" display="none">
	
		<linearGradient id="SVGID_3_" gradientUnits="userSpaceOnUse" x1="1125.1543" y1="75.6196" x2="1125.1543" y2="66.2772" gradientTransform="matrix(-1.1361 3.971558e-002 -0.1043 1.0375 1551.8724 -37.9308)">
		<stop  offset="0" style="stop-color:#BD9661"/>
		<stop  offset="0.4058" style="stop-color:#C39B64"/>
		<stop  offset="0.9548" style="stop-color:#D4A96D"/>
		<stop  offset="0.9972" style="stop-color:#D6AA6E"/>
	</linearGradient>
	<path display="inline" fill="url(#SVGID_3_)" d="M264.6,76.1c-1.8,1.6-2.4,3-1.1,6.6c1.1,2.8,2.7,3.2,4.4,1.5
		c2.6-2.5,1.9-3.4,1-5.6C268,76.4,266.3,74.6,264.6,76.1z"/>
	
		<linearGradient id="SVGID_4_" gradientUnits="userSpaceOnUse" x1="261.6188" y1="79.2023" x2="261.6188" y2="49.5703" gradientTransform="matrix(1 -3.345203e-003 3.345203e-003 1 -0.6379 2.5163)">
		<stop  offset="0" style="stop-color:#6C7880"/>
		<stop  offset="4.063693e-002" style="stop-color:#6F7B83"/>
		<stop  offset="0.3524" style="stop-color:#808F97"/>
		<stop  offset="0.6695" style="stop-color:#8A9AA2"/>
		<stop  offset="0.9972" style="stop-color:#8D9EA6"/>
	</linearGradient>
	<path display="inline" fill="url(#SVGID_4_)" d="M262.9,80.8l6.1-1.9c-6.2-19-14.3-27.1-15.1-27.7l-0.5,3.9
		C253.4,55.2,257.9,63.8,262.9,80.8L262.9,80.8z"/>
</g>
<g id="aaron_4_" display="none">
	
		<linearGradient id="SVGID_5_" gradientUnits="userSpaceOnUse" x1="222.0713" y1="59.0017" x2="228.3136" y2="59.0017" gradientTransform="matrix(0.9767 0.2147 -0.2147 0.9767 69.1536 -33.5341)">
		<stop  offset="0" style="stop-color:#BD9661"/>
		<stop  offset="0.4058" style="stop-color:#C39B64"/>
		<stop  offset="0.9548" style="stop-color:#D4A96D"/>
		<stop  offset="0.9972" style="stop-color:#D6AA6E"/>
	</linearGradient>
	<path display="inline" fill="url(#SVGID_5_)" d="M274.3,69.3c0,0,2.1-0.1,3,0.2c0.9,0.3,5.1,4.9-1.1,5.8c-1,0.1-3.3-0.9-3.3-0.9
		L274.3,69.3z"/>
	
		<linearGradient id="SVGID_6_" gradientUnits="userSpaceOnUse" x1="222.7855" y1="62.6218" x2="198.2252" y2="43.774" gradientTransform="matrix(0.9767 0.2147 -0.2147 0.9767 69.1536 -33.5341)">
		<stop  offset="0" style="stop-color:#6C7880"/>
		<stop  offset="4.063693e-002" style="stop-color:#6F7B83"/>
		<stop  offset="0.3524" style="stop-color:#808F97"/>
		<stop  offset="0.6695" style="stop-color:#8A9AA2"/>
		<stop  offset="0.9972" style="stop-color:#8D9EA6"/>
	</linearGradient>
	<path display="inline" fill="url(#SVGID_6_)" d="M249.7,55.8c2.8,3.6,10.4,15.4,24.2,19.2l1.6-5.8l0,0
		c-15.6-4.3-17.7-16.3-21.7-17.8l-1.9,7.2L249.7,55.8L249.7,55.8z"/>
</g>
<g id="aaron_3_" display="none">
	
		<linearGradient id="SVGID_7_" gradientUnits="userSpaceOnUse" x1="200.8904" y1="108.3157" x2="206.1531" y2="108.3157" gradientTransform="matrix(0.1261 -0.992 0.992 0.1261 123.2485 256.3749)">
		<stop  offset="0" style="stop-color:#BD9661"/>
		<stop  offset="0.4058" style="stop-color:#C39B64"/>
		<stop  offset="0.9548" style="stop-color:#D4A96D"/>
		<stop  offset="0.9972" style="stop-color:#D6AA6E"/>
	</linearGradient>
	<path display="inline" fill="url(#SVGID_7_)" d="M252.8,69.7c0,0,0.3-2.1,0.9-2.7c4.1-3.8,6.1,1.2,5.9,1.9
		c-0.2,0.7-1.4,2.2-1.4,2.2L252.8,69.7z"/>
	
		<linearGradient id="SVGID_8_" gradientUnits="userSpaceOnUse" x1="192.2463" y1="106.7459" x2="201.2976" y2="91.0686" gradientTransform="matrix(0.1261 -0.992 0.992 0.1261 123.2485 256.3749)">
		<stop  offset="0" style="stop-color:#6C7880"/>
		<stop  offset="4.063693e-002" style="stop-color:#6F7B83"/>
		<stop  offset="0.3524" style="stop-color:#808F97"/>
		<stop  offset="0.6695" style="stop-color:#8A9AA2"/>
		<stop  offset="0.9972" style="stop-color:#8D9EA6"/>
	</linearGradient>
	<path display="inline" fill="url(#SVGID_8_)" d="M233.8,75c2.1-3.3,4-4,4-4c2.9,3.4,6.9,4.7,6.9,4.7c3.7,1.3,7.1-3.2,8.1-6.4l0,0
		l5.5,1.7C253.9,83.7,241.2,85,233.8,75z"/>
</g>
<g id="aaron_2_" display="none">
	
		<linearGradient id="SVGID_9_" gradientUnits="userSpaceOnUse" x1="149.0413" y1="47.9413" x2="155.2836" y2="47.9413" gradientTransform="matrix(-0.9898 -0.1427 -0.1427 0.9898 382.1874 38.9123)">
		<stop  offset="0" style="stop-color:#BD9661"/>
		<stop  offset="0.4058" style="stop-color:#C39B64"/>
		<stop  offset="0.9548" style="stop-color:#D4A96D"/>
		<stop  offset="0.9972" style="stop-color:#D6AA6E"/>
	</linearGradient>
	<path display="inline" fill="url(#SVGID_9_)" d="M227.9,62.5c0,0-1.9-0.8-2.9-0.9c-0.9-0.1-6.5,2.8-1,5.8c0.9,0.5,3.4,0.3,3.4,0.3
		L227.9,62.5z"/>
	
		<linearGradient id="SVGID_10_" gradientUnits="userSpaceOnUse" x1="142.5442" y1="54.023" x2="133.3546" y2="31.0444" gradientTransform="matrix(-0.9898 -0.1427 -0.1427 0.9898 382.1874 38.9123)">
		<stop  offset="0" style="stop-color:#6C7880"/>
		<stop  offset="4.063693e-002" style="stop-color:#6F7B83"/>
		<stop  offset="0.3524" style="stop-color:#808F97"/>
		<stop  offset="0.6695" style="stop-color:#8A9AA2"/>
		<stop  offset="0.9972" style="stop-color:#8D9EA6"/>
	</linearGradient>
	<path display="inline" fill="url(#SVGID_10_)" d="M253.3,59.1c-7.7,10.9-13.3,11.7-27,8.8l0.6-5.9l0,0c14,3.2,16,1.3,23.9-8.5
		L253.3,59.1z"/>
</g>
<g id="aaron_1_">
	
		<linearGradient id="SVGID_11_" gradientUnits="userSpaceOnUse" x1="219.004" y1="38.4052" x2="224.2667" y2="38.4052" gradientTransform="matrix(0 -1 -1 0 273.2326 270.1674)">
		<stop  offset="0" style="stop-color:#BD9661"/>
		<stop  offset="0.4058" style="stop-color:#C39B64"/>
		<stop  offset="0.9548" style="stop-color:#D4A96D"/>
		<stop  offset="0.9972" style="stop-color:#D6AA6E"/>
	</linearGradient>
	<path fill="url(#SVGID_11_)" d="M238.2,50.5c0,0,0-2.1-0.6-2.8c-3.6-4.3-6.2,0.4-6.1,1.1c0.1,0.8,1.1,2.3,1.1,2.3L238.2,50.5z"/>
	
		<linearGradient id="SVGID_12_" gradientUnits="userSpaceOnUse" x1="209.7354" y1="37.9695" x2="219.7962" y2="20.5436" gradientTransform="matrix(0 -1 -1 0 273.2326 270.1674)">
		<stop  offset="0" style="stop-color:#6C7880"/>
		<stop  offset="4.063693e-002" style="stop-color:#6F7B83"/>
		<stop  offset="0.3524" style="stop-color:#808F97"/>
		<stop  offset="0.6695" style="stop-color:#8A9AA2"/>
		<stop  offset="0.9972" style="stop-color:#8D9EA6"/>
	</linearGradient>
	<path fill="url(#SVGID_12_)" d="M238.1,64.3c1.1,1,2.7,1.7,4.3,1.6l0,0c2.6,0,4.8-1.4,7.1-3.5l0,0c2.3-2.2,5.4-8,5.4-8l-4.2-2.3
		c-2.5,4.1-3.5,4.6-5.2,6.2l0,0c-1.7,1.7-2.8,2-3.1,1.9l0,0c-0.2,0-0.3,0-0.7-0.3l0,0c-0.3-0.3-0.8-0.9-1.3-1.8l0,0
		c-0.9-1.8-1.7-4.7-2.3-8l0,0l-5.6,1C233.7,56.6,234.8,61.3,238.1,64.3L238.1,64.3z"/>
</g>
<g id="aaron" display="none">
	
		<linearGradient id="SVGID_13_" gradientUnits="userSpaceOnUse" x1="224.5132" y1="77.2492" x2="230.7554" y2="77.2492" gradientTransform="matrix(0.9239 0.3826 -0.3826 0.9239 74.1152 -62.709)">
		<stop  offset="0" style="stop-color:#BD9661"/>
		<stop  offset="0.4058" style="stop-color:#C39B64"/>
		<stop  offset="0.9548" style="stop-color:#D4A96D"/>
		<stop  offset="0.9972" style="stop-color:#D6AA6E"/>
	</linearGradient>
	<path display="inline" fill="url(#SVGID_13_)" d="M253.3,92.3c0,0,2.1,0.3,2.9,0.7c0.8,0.4,4.1,5.7-2.1,5.5c-1,0-3.1-1.5-3.1-1.5
		L253.3,92.3z"/>
	
		<linearGradient id="SVGID_14_" gradientUnits="userSpaceOnUse" x1="225.2274" y1="80.8693" x2="200.6671" y2="62.0215" gradientTransform="matrix(0.9239 0.3826 -0.3826 0.9239 74.1152 -62.709)">
		<stop  offset="0" style="stop-color:#6C7880"/>
		<stop  offset="4.063693e-002" style="stop-color:#6F7B83"/>
		<stop  offset="0.3524" style="stop-color:#808F97"/>
		<stop  offset="0.6695" style="stop-color:#8A9AA2"/>
		<stop  offset="0.9972" style="stop-color:#8D9EA6"/>
	</linearGradient>
	<path display="inline" fill="url(#SVGID_14_)" d="M231.5,74.7c2.1,4.1,7.5,17,20.5,23.1l2.6-5.4l0,0c-14.6-6.9-14.5-19.1-18.3-21.3
		l-3.2,6.7L231.5,74.7L231.5,74.7z"/>
</g>
<g id="AARON" display="none">
	<path display="inline" fill="#20211D" d="M266.2,111.9c-1.4,0.2-2.5-0.1-2.5-0.1s-0.1-11.9-0.8-19.6c-0.6-7.6-1.6-12.3-1.6-12.3
		l-15.9,0.3c0,0-1.1,4.4-2,11.9c-0.9,7.7-1.6,19.2-1.6,19.2s-1.1,0.4-2.5,0.1l-1.2,2.7c6.6,1.3,14.1-0.1,14.1-0.1s0.1-10.1,0.9-24
		c0.3,13.9,0,24,0,24s7.5,1.7,14.1,0.6L266.2,111.9z"/>
	
		<linearGradient id="SVGID_15_" gradientUnits="userSpaceOnUse" x1="255.0237" y1="90.9285" x2="239.6599" y2="64.3175" gradientTransform="matrix(0.9998 1.853788e-002 -1.853788e-002 0.9998 5.0964 -13.1973)">
		<stop  offset="0" style="stop-color:#6C7880"/>
		<stop  offset="4.063693e-002" style="stop-color:#6F7B83"/>
		<stop  offset="0.3524" style="stop-color:#808F97"/>
		<stop  offset="0.6695" style="stop-color:#8A9AA2"/>
		<stop  offset="0.9972" style="stop-color:#8D9EA6"/>
	</linearGradient>
	<path display="inline" fill="url(#SVGID_15_)" d="M253.2,50.2l-2.9,2.8c-1.4,9.2-3.2,21.1-5.3,28.5l16.7-0.8
		C259.2,56.5,253.2,50.2,253.2,50.2z"/>
	
		<linearGradient id="SVGID_16_" gradientUnits="userSpaceOnUse" x1="248.0382" y1="75.2083" x2="250.7381" y2="75.2083" gradientTransform="matrix(0.9998 1.853788e-002 -1.853788e-002 0.9998 5.0964 -13.1973)">
		<stop  offset="0" style="stop-color:#212121"/>
		<stop  offset="0.2515" style="stop-color:#242424"/>
		<stop  offset="0.9972" style="stop-color:#282828"/>
	</linearGradient>
	<path display="inline" fill="url(#SVGID_16_)" d="M252.2,54.2c0,0.2,0,19.2-0.8,24.6l2.7,0.1c0.1-14.2-0.6-24.3-0.6-24.6
		L252.2,54.2z"/>
	
		<linearGradient id="SVGID_17_" gradientUnits="userSpaceOnUse" x1="247.5306" y1="62.0763" x2="247.2757" y2="48.3323" gradientTransform="matrix(0.9998 1.853788e-002 -1.853788e-002 0.9998 5.0964 -13.1973)">
		<stop  offset="0" style="stop-color:#B5905D"/>
		<stop  offset="0.5079" style="stop-color:#C89F67"/>
		<stop  offset="0.9972" style="stop-color:#D6AA6E"/>
	</linearGradient>
	<path display="inline" fill="url(#SVGID_17_)" d="M254.6,41.7c-1.4-0.3-2.2,0.7-3.7,0.9c-1.3,0.1-2.5,0.9-3.7,1.3
		c-0.1,0-0.2,0.1-0.2,0.1c-0.3,2.8,0.4,7,1.4,8.2c1.8,1.4,6.6,1.3,6.8,1c0.2-0.4,1.1-5.4,0.9-9.2C255.7,42.9,255.2,41.9,254.6,41.7z
		"/>
	<path display="inline" fill="#44473D" d="M247.5,41.6c-0.3,0.5-0.5,1.4-0.7,2.5c0.1,0,0.1-0.1,0.2-0.1c1.2-0.5,2.4-1.2,3.7-1.3
		c1.6-0.2,2.4-1.2,3.7-0.9c0.6,0.2,1.1,1.2,1.5,2.3c-0.1-1.3-0.2-2.4-0.6-3C253.9,38.6,248.7,39.8,247.5,41.6z"/>
</g>
<g id="AARON-treme" display="none">
	<path display="inline" fill="#20211D" d="M266.2,111.9c-1.4,0.2-2.5-0.1-2.5-0.1s1.6-11.6,0.3-19.3c-1.2-7.8-2.7-12.6-2.7-12.6
		l-15.9,0.3c0,0-3.4,9.7-4.2,17.3c-0.8,7.9,0.7,13.8,0.7,13.8s-1.1,0.4-2.5,0.1l-1.2,2.7c6.6,1.3,14.1-0.1,14.1-0.1s-4-10.5,0.9-24
		c4,7.4,0,24,0,24s7.5,1.7,14.1,0.6L266.2,111.9z"/>
	
		<linearGradient id="SVGID_18_" gradientUnits="userSpaceOnUse" x1="255.0237" y1="90.9285" x2="239.6599" y2="64.3175" gradientTransform="matrix(0.9998 1.853788e-002 -1.853788e-002 0.9998 5.0964 -13.1973)">
		<stop  offset="0" style="stop-color:#6C7880"/>
		<stop  offset="4.063693e-002" style="stop-color:#6F7B83"/>
		<stop  offset="0.3524" style="stop-color:#808F97"/>
		<stop  offset="0.6695" style="stop-color:#8A9AA2"/>
		<stop  offset="0.9972" style="stop-color:#8D9EA6"/>
	</linearGradient>
	<path display="inline" fill="url(#SVGID_18_)" d="M253.2,50.2l-2.9,2.8c-1.4,9.2-3.2,21.1-5.3,28.5l16.7-0.8
		C259.2,56.5,253.2,50.2,253.2,50.2z"/>
	
		<linearGradient id="SVGID_19_" gradientUnits="userSpaceOnUse" x1="248.0382" y1="75.2083" x2="250.7381" y2="75.2083" gradientTransform="matrix(0.9998 1.853788e-002 -1.853788e-002 0.9998 5.0964 -13.1973)">
		<stop  offset="0" style="stop-color:#212121"/>
		<stop  offset="0.2515" style="stop-color:#242424"/>
		<stop  offset="0.9972" style="stop-color:#282828"/>
	</linearGradient>
	<path display="inline" fill="url(#SVGID_19_)" d="M252.2,54.2c0,0.2,0,19.2-0.8,24.6l2.7,0.1c0.1-14.2-0.6-24.3-0.6-24.6
		L252.2,54.2z"/>
	
		<linearGradient id="SVGID_20_" gradientUnits="userSpaceOnUse" x1="247.5306" y1="62.0763" x2="247.2757" y2="48.3323" gradientTransform="matrix(0.9998 1.853788e-002 -1.853788e-002 0.9998 5.0964 -13.1973)">
		<stop  offset="0" style="stop-color:#B5905D"/>
		<stop  offset="0.5079" style="stop-color:#C89F67"/>
		<stop  offset="0.9972" style="stop-color:#D6AA6E"/>
	</linearGradient>
	<path display="inline" fill="url(#SVGID_20_)" d="M254.6,41.7c-1.4-0.3-2.2,0.7-3.7,0.9c-1.3,0.1-2.5,0.9-3.7,1.3
		c-0.1,0-0.2,0.1-0.2,0.1c-0.3,2.8,0.4,7,1.4,8.2c1.8,1.4,6.6,1.3,6.8,1c0.2-0.4,1.1-5.4,0.9-9.2C255.7,42.9,255.2,41.9,254.6,41.7z
		"/>
	<path display="inline" fill="#44473D" d="M247.5,41.6c-0.3,0.5-0.5,1.4-0.7,2.5c0.1,0,0.1-0.1,0.2-0.1c1.2-0.5,2.4-1.2,3.7-1.3
		c1.6-0.2,2.4-1.2,3.7-0.9c0.6,0.2,1.1,1.2,1.5,2.3c-0.1-1.3-0.2-2.4-0.6-3C253.9,38.6,248.7,39.8,247.5,41.6z"/>
</g>
<g id="aaron-head" display="none">
	
		<linearGradient id="SVGID_21_" gradientUnits="userSpaceOnUse" x1="246.2765" y1="60.2192" x2="246.0216" y2="46.4753" gradientTransform="matrix(0.9916 0.1294 -0.1294 0.9916 15.25 -38.1566)">
		<stop  offset="0" style="stop-color:#B5905D"/>
		<stop  offset="0.5079" style="stop-color:#C89F67"/>
		<stop  offset="0.9972" style="stop-color:#D6AA6E"/>
	</linearGradient>
	<path display="inline" fill="url(#SVGID_21_)" d="M256.1,42.1c-1.3-0.5-2.3,0.5-3.8,0.4c-1.3,0-2.5,0.6-3.8,0.9
		c-0.1,0-0.2,0.1-0.3,0.1c-0.6,2.7-0.4,7,0.5,8.3c1.7,1.6,6.4,2,6.7,1.7c0.3-0.3,1.7-5.2,2-9C257,43.4,256.7,42.3,256.1,42.1z"/>
	<path display="inline" fill="#44473D" d="M249.1,41.2c-0.4,0.4-0.7,1.3-0.9,2.4c0.1,0,0.2-0.1,0.3-0.1c1.3-0.3,2.5-0.9,3.8-0.9
		c1.6,0,2.5-0.9,3.8-0.4c0.6,0.2,1,1.4,1.2,2.5c0.1-1.3,0-2.4-0.3-3.1C255.8,39,250.4,39.6,249.1,41.2z"/>
</g>
<g id="abe_4_" display="none">
	
		<linearGradient id="SVGID_22_" gradientUnits="userSpaceOnUse" x1="271.1833" y1="64.1457" x2="277.4255" y2="64.1457" gradientTransform="matrix(-0.9898 -0.1427 -0.1427 0.9898 404.9398 38.9123)">
		<stop  offset="0" style="stop-color:#BD9661"/>
		<stop  offset="0.4058" style="stop-color:#C39B64"/>
		<stop  offset="0.9548" style="stop-color:#D4A96D"/>
		<stop  offset="0.9972" style="stop-color:#D6AA6E"/>
	</linearGradient>
	<path display="inline" fill="url(#SVGID_22_)" d="M127,66.4c0,0-2.5,0.2-3.4-0.3c-5.5-3,0-5.9,1-5.8c0.9,0.1,2.9,0.9,2.9,0.9
		L127,66.4z"/>
	
		<linearGradient id="SVGID_23_" gradientUnits="userSpaceOnUse" x1="259.7608" y1="67.3848" x2="259.7608" y2="49.3447" gradientTransform="matrix(-0.9898 -0.1427 -0.1427 0.9898 404.9398 38.9123)">
		<stop  offset="0" style="stop-color:#6C7880"/>
		<stop  offset="0.2312" style="stop-color:#859198"/>
		<stop  offset="0.4807" style="stop-color:#98A4AB"/>
		<stop  offset="0.7347" style="stop-color:#A3B0B6"/>
		<stop  offset="0.9972" style="stop-color:#A7B4BA"/>
	</linearGradient>
	<path display="inline" fill="url(#SVGID_23_)" d="M150.2,52c-7.9,9.8-9.9,11.7-23.9,8.5l0,0l-0.6,5.9c13.7,2.9,19.3,2.2,27-8.8
		L150.2,52z"/>
</g>
<g id="abe_2_" display="none">
	
		<linearGradient id="SVGID_24_" gradientUnits="userSpaceOnUse" x1="167.368" y1="79.8517" x2="173.6102" y2="79.8517" gradientTransform="matrix(0.9239 0.3826 -0.3826 0.9239 44.6078 -62.709)">
		<stop  offset="0" style="stop-color:#BD9661"/>
		<stop  offset="0.4058" style="stop-color:#C39B64"/>
		<stop  offset="0.9548" style="stop-color:#D4A96D"/>
		<stop  offset="0.9972" style="stop-color:#D6AA6E"/>
	</linearGradient>
	<path display="inline" fill="url(#SVGID_24_)" d="M167.6,77.6c0,0,2.1,1.5,3.1,1.5c6.3,0.2,3-5.1,2.1-5.5c-0.8-0.4-2.9-0.7-2.9-0.7
		L167.6,77.6z"/>
	
		<linearGradient id="SVGID_25_" gradientUnits="userSpaceOnUse" x1="154.8256" y1="82.8625" x2="154.8256" y2="64.2173" gradientTransform="matrix(0.9239 0.3826 -0.3826 0.9239 44.6078 -62.709)">
		<stop  offset="0" style="stop-color:#6C7880"/>
		<stop  offset="0.2312" style="stop-color:#859198"/>
		<stop  offset="0.4807" style="stop-color:#98A4AB"/>
		<stop  offset="0.7347" style="stop-color:#A3B0B6"/>
		<stop  offset="0.9972" style="stop-color:#A7B4BA"/>
	</linearGradient>
	<path display="inline" fill="url(#SVGID_25_)" d="M148.2,55.2l1.6,3.1l3.2-6.7c2.7,1.2,3.6,14.3,18.3,21.3l0,0l-2.6,5.4
		C155.7,72.2,150.3,59.3,148.2,55.2L148.2,55.2z"/>
</g>
<g id="abe_3_" display="none">
	
		<linearGradient id="SVGID_26_" gradientUnits="userSpaceOnUse" x1="249.2001" y1="42.2881" x2="255.4424" y2="42.2881" gradientTransform="matrix(-0.9782 0.2076 0.2076 0.9782 365.4386 -20.6079)">
		<stop  offset="0" style="stop-color:#BD9661"/>
		<stop  offset="0.4058" style="stop-color:#C39B64"/>
		<stop  offset="0.9548" style="stop-color:#D4A96D"/>
		<stop  offset="0.9972" style="stop-color:#D6AA6E"/>
	</linearGradient>
	<path display="inline" fill="url(#SVGID_26_)" d="M129.6,70.1c0,0-2.1-0.1-3,0.2c-0.9,0.3-5.1,4.9,1.1,5.8c1,0.1,3.3-0.9,3.3-0.9
		L129.6,70.1z"/>
	
		<linearGradient id="SVGID_27_" gradientUnits="userSpaceOnUse" x1="235.4911" y1="41.6747" x2="238.9831" y2="30.9402" gradientTransform="matrix(-0.9782 0.2076 0.2076 0.9782 365.4386 -20.6079)">
		<stop  offset="0" style="stop-color:#6C7880"/>
		<stop  offset="0.2312" style="stop-color:#859198"/>
		<stop  offset="0.4807" style="stop-color:#98A4AB"/>
		<stop  offset="0.7347" style="stop-color:#A3B0B6"/>
		<stop  offset="0.9972" style="stop-color:#A7B4BA"/>
	</linearGradient>
	<path display="inline" fill="url(#SVGID_27_)" d="M154.2,56.7c-2.9,3.6-10.5,15.3-24.3,19l-1.5-5.8l0,0
		c15.6-4.2,17.8-16.1,21.8-17.6l1.9,7.2L154.2,56.7L154.2,56.7z"/>
</g>
<g id="abe_1_" display="none">
	
		<linearGradient id="SVGID_28_" gradientUnits="userSpaceOnUse" x1="219.1199" y1="56.1534" x2="224.3827" y2="56.1534" gradientTransform="matrix(4.489700e-011 -1 1 4.489700e-011 113.26 270.1674)">
		<stop  offset="0" style="stop-color:#BD9661"/>
		<stop  offset="0.4058" style="stop-color:#C39B64"/>
		<stop  offset="0.9548" style="stop-color:#D4A96D"/>
		<stop  offset="0.9972" style="stop-color:#D6AA6E"/>
	</linearGradient>
	<path display="inline" fill="url(#SVGID_28_)" d="M166.1,50.4c0,0,0-2.1,0.6-2.8c3.6-4.3,6.2,0.4,6.1,1.1c-0.1,0.8-1.1,2.3-1.1,2.3
		L166.1,50.4z"/>
	
		<linearGradient id="SVGID_29_" gradientUnits="userSpaceOnUse" x1="209.8513" y1="55.7177" x2="219.9122" y2="38.2918" gradientTransform="matrix(4.489700e-011 -1 1 4.489700e-011 113.26 270.1674)">
		<stop  offset="0" style="stop-color:#6C7880"/>
		<stop  offset="0.2312" style="stop-color:#859198"/>
		<stop  offset="0.4807" style="stop-color:#98A4AB"/>
		<stop  offset="0.7347" style="stop-color:#A3B0B6"/>
		<stop  offset="0.9972" style="stop-color:#A7B4BA"/>
	</linearGradient>
	<path display="inline" fill="url(#SVGID_29_)" d="M166.1,64.2c-1.1,1-2.7,1.7-4.3,1.6l0,0c-2.6,0-4.8-1.4-7.1-3.5l0,0
		c-2.3-2.2-5.4-8-5.4-8l4.2-2.3c2.5,4.1,3.5,4.6,5.2,6.2l0,0c1.7,1.7,2.8,2,3.1,1.9l0,0c0.2,0,0.3,0,0.7-0.3l0,0
		c0.3-0.3,0.8-0.9,1.3-1.8l0,0c0.9-1.8,1.7-4.7,2.3-8l0,0l5.6,1C170.6,56.4,169.4,61.2,166.1,64.2L166.1,64.2z"/>
</g>
<g id="abe" display="none">
	
		<linearGradient id="SVGID_30_" gradientUnits="userSpaceOnUse" x1="159.7592" y1="48.3866" x2="166.0015" y2="48.3866" gradientTransform="matrix(0.9947 0.103 -0.103 0.9947 19.253 4.606)">
		<stop  offset="0" style="stop-color:#BD9661"/>
		<stop  offset="0.4058" style="stop-color:#C39B64"/>
		<stop  offset="0.9548" style="stop-color:#D4A96D"/>
		<stop  offset="0.9972" style="stop-color:#D6AA6E"/>
	</linearGradient>
	<path display="inline" fill="url(#SVGID_30_)" d="M172.9,71.9c0,0,2.4,0.8,3.4,0.5c6.1-1.6,1.4-5.7,0.5-5.9c-0.9-0.2-3,0.1-3,0.1
		L172.9,71.9z"/>
	
		<linearGradient id="SVGID_31_" gradientUnits="userSpaceOnUse" x1="148.3368" y1="51.6258" x2="148.3368" y2="33.5856" gradientTransform="matrix(0.9947 0.103 -0.103 0.9947 19.253 4.606)">
		<stop  offset="0" style="stop-color:#6C7880"/>
		<stop  offset="0.2312" style="stop-color:#859198"/>
		<stop  offset="0.4807" style="stop-color:#98A4AB"/>
		<stop  offset="0.7347" style="stop-color:#A3B0B6"/>
		<stop  offset="0.9972" style="stop-color:#A7B4BA"/>
	</linearGradient>
	<path display="inline" fill="url(#SVGID_31_)" d="M153.9,52.3c5.3,11.4,6.7,13.8,21.1,14.1l0,0l-0.9,5.9
		c-14-0.5-19.2-2.6-24.1-15.1L153.9,52.3z"/>
</g>
<g id="abe-d" display="none">
	
		<linearGradient id="SVGID_32_" gradientUnits="userSpaceOnUse" x1="243.3353" y1="88.7936" x2="243.3353" y2="79.4533" gradientTransform="matrix(-1.1367 -5.071853e-003 -0.1451 1.0326 452.9644 -4.4315)">
		<stop  offset="0" style="stop-color:#BD9661"/>
		<stop  offset="0.4058" style="stop-color:#C39B64"/>
		<stop  offset="0.9548" style="stop-color:#D4A96D"/>
		<stop  offset="0.9972" style="stop-color:#D6AA6E"/>
	</linearGradient>
	<path display="inline" fill="url(#SVGID_32_)" d="M162.6,76.9c-1.9,1.5-2.6,2.9-1.3,6.5c1,2.8,2.6,3.3,4.4,1.7
		c2.7-2.4,2-3.3,1.2-5.6C166,77.3,164.4,75.4,162.6,76.9z"/>
	
		<linearGradient id="SVGID_33_" gradientUnits="userSpaceOnUse" x1="143.4984" y1="93.7938" x2="158.4249" y2="93.053" gradientTransform="matrix(-0.9988 4.957049e-002 4.957049e-002 0.9988 305.6749 -34.2596)">
		<stop  offset="0" style="stop-color:#6C7880"/>
		<stop  offset="0.2312" style="stop-color:#859198"/>
		<stop  offset="0.4807" style="stop-color:#98A4AB"/>
		<stop  offset="0.7347" style="stop-color:#A3B0B6"/>
		<stop  offset="0.9972" style="stop-color:#A7B4BA"/>
	</linearGradient>
	<path display="inline" fill="url(#SVGID_33_)" d="M160.8,81.5c-4.5-17.2-8.7-26.1-8.7-26.1l0.7-3.9c0.8,0.6,8.7,9.1,14.3,28.3
		L160.8,81.5L160.8,81.5z"/>
</g>
<g id="abe-e" display="none">
	
		<linearGradient id="SVGID_34_" gradientUnits="userSpaceOnUse" x1="1200.7909" y1="75.5772" x2="1200.7909" y2="66.2348" gradientTransform="matrix(1.1363 3.340098e-002 0.1101 1.0369 -1234.0159 -32.5969)">
		<stop  offset="0" style="stop-color:#BD9661"/>
		<stop  offset="0.4058" style="stop-color:#C39B64"/>
		<stop  offset="0.9548" style="stop-color:#D4A96D"/>
		<stop  offset="0.9972" style="stop-color:#D6AA6E"/>
	</linearGradient>
	<path display="inline" fill="url(#SVGID_34_)" d="M139.8,76.8c1.8,1.6,2.5,3,1.1,6.6c-1,2.8-2.7,3.2-4.4,1.5
		c-2.6-2.5-1.9-3.4-1-5.6C136.5,77,138.1,75.3,139.8,76.8z"/>
	
		<linearGradient id="SVGID_35_" gradientUnits="userSpaceOnUse" x1="170.1376" y1="69.4487" x2="177.5013" y2="65.1755" gradientTransform="matrix(-1 2.212614e-003 2.212614e-003 1 318.6758 -0.7591)">
		<stop  offset="0" style="stop-color:#6C7880"/>
		<stop  offset="0.2312" style="stop-color:#859198"/>
		<stop  offset="0.4807" style="stop-color:#98A4AB"/>
		<stop  offset="0.7347" style="stop-color:#A3B0B6"/>
		<stop  offset="0.9972" style="stop-color:#A7B4BA"/>
	</linearGradient>
	<path display="inline" fill="url(#SVGID_35_)" d="M141.5,81.5l-6.1-1.9c6.1-19,14.1-27.2,14.9-27.8l0.6,3.9
		C150.9,55.8,146.5,64.4,141.5,81.5L141.5,81.5z"/>
</g>
<g id="ABE" display="none">
	<path display="inline" fill="#20211D" d="M138.4,112c1.5,0.2,2.5-0.1,2.5-0.1s0.1-11.9,0.7-19.6c0.6-7.6,1.6-12.3,1.6-12.3
		l15.9,0.2c0,0,1.1,4.4,2,11.9c0.9,7.7,1.7,19.2,1.7,19.2s1.1,0.4,2.5,0.1l1.2,2.7c-6.6,1.3-14.1,0-14.1,0s-0.2-10.1-1-24
		c-0.2,13.9,0.1,24,0.1,24s-7.5,1.7-14.1,0.7L138.4,112z"/>
	
		<linearGradient id="SVGID_36_" gradientUnits="userSpaceOnUse" x1="169.153" y1="94.8605" x2="153.7891" y2="68.2496" gradientTransform="matrix(-0.9997 2.409443e-002 2.409443e-002 0.9997 312.8738 -16.4604)">
		<stop  offset="0" style="stop-color:#6C7880"/>
		<stop  offset="0.2312" style="stop-color:#859198"/>
		<stop  offset="0.4807" style="stop-color:#98A4AB"/>
		<stop  offset="0.7347" style="stop-color:#A3B0B6"/>
		<stop  offset="0.9972" style="stop-color:#A7B4BA"/>
	</linearGradient>
	<path display="inline" fill="url(#SVGID_36_)" d="M151.1,50.2l2.9,2.8c1.4,9.2,3.3,21.1,5.5,28.5l-16.7-0.7
		C145.1,56.5,151.1,50.2,151.1,50.2z"/>
	
		<linearGradient id="SVGID_37_" gradientUnits="userSpaceOnUse" x1="162.1674" y1="79.1404" x2="164.8673" y2="79.1404" gradientTransform="matrix(-0.9997 2.409443e-002 2.409443e-002 0.9997 312.8738 -16.4604)">
		<stop  offset="0" style="stop-color:#212121"/>
		<stop  offset="0.2515" style="stop-color:#242424"/>
		<stop  offset="0.9972" style="stop-color:#282828"/>
	</linearGradient>
	<path display="inline" fill="url(#SVGID_37_)" d="M152,54.2c0,0.2,0.1,19.2,0.9,24.6l-2.7,0.1c-0.2-14.2,0.5-24.3,0.5-24.6
		L152,54.2z"/>
	
		<linearGradient id="SVGID_38_" gradientUnits="userSpaceOnUse" x1="161.7054" y1="66.0182" x2="161.3743" y2="52.28" gradientTransform="matrix(-0.9997 2.409443e-002 2.409443e-002 0.9997 312.8738 -16.4604)">
		<stop  offset="0" style="stop-color:#B5905D"/>
		<stop  offset="0.5079" style="stop-color:#C89F67"/>
		<stop  offset="0.9972" style="stop-color:#D6AA6E"/>
	</linearGradient>
	<path display="inline" fill="url(#SVGID_38_)" d="M149.7,41.7c1.4-0.3,2.2,0.7,3.8,0.8c1.3,0.1,2.5,0.9,3.7,1.3
		c0.1,0,0.2,0.1,0.2,0.1c0.3,2.8-0.3,7-1.4,8.2c-1.8,1.4-6.6,1.3-6.8,1c-0.2-0.4-1.2-5.4-1-9.2C148.6,42.9,149,41.9,149.7,41.7z"/>
	<path display="inline" fill="#A08B35" d="M156.7,41.5c0.3,0.5,0.5,1.4,0.7,2.5c-0.1,0-0.2-0.1-0.2-0.1c-1.2-0.5-2.4-1.2-3.7-1.3
		c-1.6-0.1-2.4-1.2-3.8-0.8c-0.6,0.2-1.1,1.2-1.5,2.3c0.1-1.3,0.2-2.4,0.6-3C150.3,38.6,155.5,39.8,156.7,41.5z"/>
</g>
<g id="abe-haed" display="none">
	
		<linearGradient id="SVGID_39_" gradientUnits="userSpaceOnUse" x1="160.0498" y1="68.0145" x2="159.7186" y2="54.2763" gradientTransform="matrix(-0.9881 0.1539 0.1539 0.9881 300.3813 -38.4574)">
		<stop  offset="0" style="stop-color:#B5905D"/>
		<stop  offset="0.5079" style="stop-color:#C89F67"/>
		<stop  offset="0.9972" style="stop-color:#D6AA6E"/>
	</linearGradient>
	<path display="inline" fill="url(#SVGID_39_)" d="M148.1,42.1c1.3-0.5,2.3,0.4,3.8,0.4c1.3,0,2.6,0.5,3.8,0.8
		c0.1,0,0.2,0.1,0.3,0.1c0.7,2.7,0.6,7-0.3,8.3c-1.6,1.7-6.3,2.2-6.6,1.9c-0.3-0.3-1.9-5.2-2.2-9C147.1,43.5,147.4,42.4,148.1,42.1z
		"/>
	<path display="inline" fill="#A08B35" d="M155,41.1c0.4,0.4,0.7,1.3,1,2.4c-0.1,0-0.2-0.1-0.3-0.1c-1.3-0.3-2.5-0.9-3.8-0.8
		c-1.6,0.1-2.5-0.9-3.8-0.4c-0.6,0.2-0.9,1.4-1.2,2.5c-0.1-1.3-0.1-2.4,0.2-3.1C148.3,39,153.6,39.5,155,41.1z"/>
</g>
<g id="ABE-tremem" display="none">
	<path display="inline" fill="#20211D" d="M138.4,112c1.5,0.2,2.5-0.1,2.5-0.1s-4.5-10.5-2.8-18.1c1.7-7.3,5-13.9,5-13.9l15.9,0.2
		c0,0,1.5,4.5,2.8,12c1.5,8.8,0.9,19,0.9,19s1.1,0.4,2.5,0.1l1.2,2.7c-6.6,1.3-14.1,0-14.1,0s3.1-8.7-1-24c-4.8,10.6,0.1,24,0.1,24
		s-7.5,1.7-14.1,0.7L138.4,112z"/>
	
		<linearGradient id="SVGID_40_" gradientUnits="userSpaceOnUse" x1="169.153" y1="94.8605" x2="153.7891" y2="68.2496" gradientTransform="matrix(-0.9997 2.409443e-002 2.409443e-002 0.9997 312.8738 -16.4604)">
		<stop  offset="0" style="stop-color:#6C7880"/>
		<stop  offset="0.2312" style="stop-color:#859198"/>
		<stop  offset="0.4807" style="stop-color:#98A4AB"/>
		<stop  offset="0.7347" style="stop-color:#A3B0B6"/>
		<stop  offset="0.9972" style="stop-color:#A7B4BA"/>
	</linearGradient>
	<path display="inline" fill="url(#SVGID_40_)" d="M151.1,50.2l2.9,2.8c1.4,9.2,3.3,21.1,5.5,28.5l-16.7-0.7
		C145.1,56.5,151.1,50.2,151.1,50.2z"/>
	
		<linearGradient id="SVGID_41_" gradientUnits="userSpaceOnUse" x1="162.1674" y1="79.1404" x2="164.8673" y2="79.1404" gradientTransform="matrix(-0.9997 2.409443e-002 2.409443e-002 0.9997 312.8738 -16.4604)">
		<stop  offset="0" style="stop-color:#212121"/>
		<stop  offset="0.2515" style="stop-color:#242424"/>
		<stop  offset="0.9972" style="stop-color:#282828"/>
	</linearGradient>
	<path display="inline" fill="url(#SVGID_41_)" d="M152,54.2c0,0.2,0.1,19.2,0.9,24.6l-2.7,0.1c-0.2-14.2,0.5-24.3,0.5-24.6
		L152,54.2z"/>
	
		<linearGradient id="SVGID_42_" gradientUnits="userSpaceOnUse" x1="161.7054" y1="66.0182" x2="161.3743" y2="52.28" gradientTransform="matrix(-0.9997 2.409443e-002 2.409443e-002 0.9997 312.8738 -16.4604)">
		<stop  offset="0" style="stop-color:#B5905D"/>
		<stop  offset="0.5079" style="stop-color:#C89F67"/>
		<stop  offset="0.9972" style="stop-color:#D6AA6E"/>
	</linearGradient>
	<path display="inline" fill="url(#SVGID_42_)" d="M149.7,41.7c1.4-0.3,2.2,0.7,3.8,0.8c1.3,0.1,2.5,0.9,3.7,1.3
		c0.1,0,0.2,0.1,0.2,0.1c0.3,2.8-0.3,7-1.4,8.2c-1.8,1.4-6.6,1.3-6.8,1c-0.2-0.4-1.2-5.4-1-9.2C148.6,42.9,149,41.9,149.7,41.7z"/>
	<path display="inline" fill="#A08B35" d="M156.7,41.5c0.3,0.5,0.5,1.4,0.7,2.5c-0.1,0-0.2-0.1-0.2-0.1c-1.2-0.5-2.4-1.2-3.7-1.3
		c-1.6-0.1-2.4-1.2-3.8-0.8c-0.6,0.2-1.1,1.2-1.5,2.3c0.1-1.3,0.2-2.4,0.6-3C150.3,38.6,155.5,39.8,156.7,41.5z"/>
</g>
</svg>
