<?xml version="1.0" encoding="utf-8"?>
<!-- Generator: Adobe Illustrator 18.0.0, SVG Export Plug-In . SVG Version: 6.00 Build 0)  -->
<!DOCTYPE svg PUBLIC "-//W3C//DTD SVG 1.1//EN" "http://www.w3.org/Graphics/SVG/1.1/DTD/svg11.dtd" [
	<!ENTITY ns_extend "http://ns.adobe.com/Extensibility/1.0/">
	<!ENTITY ns_ai "http://ns.adobe.com/AdobeIllustrator/10.0/">
	<!ENTITY ns_graphs "http://ns.adobe.com/Graphs/1.0/">
	<!ENTITY ns_vars "http://ns.adobe.com/Variables/1.0/">
	<!ENTITY ns_imrep "http://ns.adobe.com/ImageReplacement/1.0/">
	<!ENTITY ns_sfw "http://ns.adobe.com/SaveForWeb/1.0/">
	<!ENTITY ns_custom "http://ns.adobe.com/GenericCustomNamespace/1.0/">
	<!ENTITY ns_adobe_xpath "http://ns.adobe.com/XPath/1.0/">
]>
<svg version="1.1" id="Layer_1" xmlns:x="&ns_extend;" xmlns:i="&ns_ai;" xmlns:graph="&ns_graphs;"
	 xmlns="http://www.w3.org/2000/svg" xmlns:xlink="http://www.w3.org/1999/xlink" x="0px" y="0px" viewBox="0 0 800 500"
	 enable-background="new 0 0 800 500" xml:space="preserve">
<metadata>
	<sfw  xmlns="&ns_sfw;">
		<slices></slices>
		<sliceSourceBounds  width="1044.4" height="689.6" y="-389.8" x="-4.2" bottomLeftOrigin="true"></sliceSourceBounds>
	</sfw>
</metadata>
<rect x="-4.2" y="-8.1" display="none" fill="#191919" width="819" height="517.5"/>
<g display="none">
	<polygon display="inline" fill="#6C9A06" points="340,343.6 310.5,343.5 308,352.5 308,353.2 308,362.6 343,362.6 343,353.3 
		343,353.2 343,352.6 	"/>
	<path id="path4097-0_2_" display="inline" fill="#5E8706" d="M317.4,344.7c-0.5,0.7-2.2,1.3-4.4,1.3c-0.1,0-0.2,0-0.3,0l-1,3.9
		c2.1,0,3.9,0.6,4.3,1.3l18.5,0c0.4-0.7,2.1-1.2,4.1-1.3L338,346c-0.1,0-0.2,0-0.3,0c-2.1,0-3.9-0.6-4.3-1.3L317.4,344.7z
		 M325.4,345.8c3,0,5.4,0.9,5.4,2c0,1.1-2.4,2-5.4,2c-3,0-5.4-0.9-5.4-2S322.4,345.8,325.4,345.8z"/>
</g>
<g display="none">
	<polygon display="inline" fill="#6C9A06" points="247.1,355.2 218.1,355.1 216,364.1 216,364.8 216,370.6 250,370.6 250,364.9 
		250,364.8 250,364.2 	"/>
	<path id="path4097-0_3_" display="inline" fill="#5E8706" d="M225.2,356c-0.5,0.7-2.2,1.3-4.4,1.3c-0.1,0-0.2,0-0.3,0l-1,3.9
		c2.1,0,3.9,0.6,4.3,1.3l18.5,0c0.4-0.7,2.1-1.2,4.1-1.3l-0.8-3.9c-0.1,0-0.2,0-0.3,0c-2.1,0-3.9-0.6-4.3-1.3L225.2,356z
		 M233.2,357.2c3,0,5.4,0.9,5.4,2c0,1.1-2.4,2-5.4,2s-5.4-0.9-5.4-2C227.8,358.1,230.2,357.2,233.2,357.2z"/>
</g>
<polygon display="none" fill="#0000FF" points="381.4,146.9 351.2,106.5 329.8,131 326.8,128.4 351.5,100.2 381.3,140.2 
	395.2,120.4 405.6,130.4 441.2,66 444.7,67.9 406.5,136.9 395.8,126.5 "/>
<polygon display="none" fill="#333333" points="442,166.6 325,166.6 325,50.6 329,50.6 329,162.6 442,162.6 "/>
<rect x="420.7" y="259.2" display="none" fill="#242424" width="137.8" height="80.9"/>
<polygon display="none" fill="#333333" points="575.5,280.4 438,280.4 420.7,259.2 558.2,259.2 "/>
<g display="none">
	<rect x="447.5" y="228.7" display="inline" fill="#666666" width="51" height="34.5"/>
	<polygon display="inline" fill="#666666" points="454,269.8 506.2,269.8 499.6,263.3 447.5,263.3 	"/>
</g>
<g display="none">
	<g display="inline">
		
			<linearGradient id="SVGID_1_" gradientUnits="userSpaceOnUse" x1="741.5291" y1="393.6618" x2="753.1727" y2="393.6618" gradientTransform="matrix(-0.4636 -0.876 -0.7984 0.4225 1133.2249 753.9035)">
			<stop  offset="0" style="stop-color:#BD9661"/>
			<stop  offset="0.4058" style="stop-color:#C39B64"/>
			<stop  offset="0.9548" style="stop-color:#D4A96D"/>
			<stop  offset="0.9972" style="stop-color:#D6AA6E"/>
		</linearGradient>
		<path fill="url(#SVGID_1_)" d="M480.1,266.5c0.2-0.2,0.3-0.5,0.1-0.7c-0.6-1.1-2.3-3.8-3.7-4.4c-10.9-5-10.7,6.6-9.6,7.9
			c0.9,1.1,3.3,2.7,4.1,3.3c0.2,0.1,0.4,0.1,0.5,0L480.1,266.5z"/>
		
			<linearGradient id="SVGID_2_" gradientUnits="userSpaceOnUse" x1="736.6595" y1="409.0945" x2="736.6595" y2="338.6584" gradientTransform="matrix(-0.4636 -0.876 -0.7635 0.404 1126.0349 757.708)">
			<stop  offset="0" style="stop-color:#6C7880"/>
			<stop  offset="0.2312" style="stop-color:#859198"/>
			<stop  offset="0.4807" style="stop-color:#98A4AB"/>
			<stop  offset="0.7347" style="stop-color:#A3B0B6"/>
			<stop  offset="0.9972" style="stop-color:#A7B4BA"/>
		</linearGradient>
		<path fill="url(#SVGID_2_)" d="M499.9,281.4c13.8-9.7,21.6-38.8,21.6-38.8s-2-12.9-8.5-3.7s-14.7,36.6-33.3,26
			c-4.9,2-11.1,6-11.1,6C481.2,287.2,495.7,283.8,499.9,281.4z"/>
	</g>
	
		<linearGradient id="SVGID_3_" gradientUnits="userSpaceOnUse" x1="979.9077" y1="340.7769" x2="998.7606" y2="285.5278" gradientTransform="matrix(-0.756 -9.361879e-002 0.1891 0.7424 1221.8954 118.1266)">
		<stop  offset="0" style="stop-color:#6C7880"/>
		<stop  offset="0.2312" style="stop-color:#859198"/>
		<stop  offset="0.4807" style="stop-color:#98A4AB"/>
		<stop  offset="0.7347" style="stop-color:#A3B0B6"/>
		<stop  offset="0.9972" style="stop-color:#A7B4BA"/>
	</linearGradient>
	<path display="inline" fill="url(#SVGID_3_)" d="M553.1,268.9c-5.3-14.6-26.6-32.3-26.6-32.3s-11.2-2.6-5.1,6.5
		c6.1,9.1,18.6,22.7,7.3,30.9c0.8,4.5,7.3,7.2,7.3,7.2C550.6,280,554.2,273,553.1,268.9z"/>
	<g display="inline">
		<path fill="#20211D" d="M550.7,371.4c-3.3,0.4-5.8-0.3-5.8-0.3s-0.2-27.3-1.5-45.1c-1.3-17.4-3.6-28.3-3.6-28.3l-36.6,0.4
			c0,0-2.5,10-4.6,27.3c-2.2,17.8-3.9,44.1-3.9,44.1s-2.5,0.8-5.8,0.3l-2.8,6.3c15.1,3.1,32.5,0,32.5,0s0.4-23.2,2.4-55.2
			c0.5,32-0.3,55.3-0.3,55.3s17.2,4,32.4,1.6L550.7,371.4z"/>
		<path fill="#A08B35" d="M524.5,206.2l1.8,1.4C525.9,207,525.2,206.5,524.5,206.2z"/>
		<path fill="#44473D" d="M508.7,209.4c-0.8,1.1-1.3,3.2-1.5,5.7c0.2-0.1,0.3-0.2,0.6-0.3c2.8-1.1,5.5-2.7,8.5-3
			c3.6-0.3,5.5-2.8,8.6-2c1.5,0.4,2.6,2.9,3.4,5.4c-0.1-3-0.5-5.6-1.4-7c-0.1-0.2-0.3-0.4-0.5-0.7l-1.8-1.4
			C519.7,203.7,511,206.1,508.7,209.4z"/>
		
			<linearGradient id="SVGID_4_" gradientUnits="userSpaceOnUse" x1="679.1487" y1="308.419" x2="643.8256" y2="247.2376" gradientTransform="matrix(0.9997 2.409443e-002 -2.409443e-002 0.9997 -138.3469 -21.1575)">
			<stop  offset="0" style="stop-color:#6C7880"/>
			<stop  offset="0.2312" style="stop-color:#859198"/>
			<stop  offset="0.4807" style="stop-color:#98A4AB"/>
			<stop  offset="0.7347" style="stop-color:#A3B0B6"/>
			<stop  offset="0.9972" style="stop-color:#A7B4BA"/>
		</linearGradient>
		<path fill="url(#SVGID_4_)" d="M521.6,229.4l-6.6,6.3c-3.3,21.1-7.5,48.6-12.6,65.4l38.3-1.7C535.3,243.8,521.6,229.4,521.6,229.4
			z"/>
		
			<linearGradient id="SVGID_5_" gradientUnits="userSpaceOnUse" x1="661.8879" y1="242.1108" x2="661.1266" y2="210.5252" gradientTransform="matrix(0.9997 2.409443e-002 -2.409443e-002 0.9997 -138.3469 -21.1575)">
			<stop  offset="0" style="stop-color:#B5905D"/>
			<stop  offset="0.5079" style="stop-color:#C89F67"/>
			<stop  offset="0.9972" style="stop-color:#D6AA6E"/>
		</linearGradient>
		<path fill="url(#SVGID_5_)" d="M508.1,228.3c0.6,2.5,1.4,4.6,2.3,5.7c4.2,3.3,15.1,3.1,15.6,2.3c0.2-0.3,0.6-2,1-4.4l-6.5,0.6
			L508.1,228.3z"/>
		<path fill="#44473D" d="M528.3,215.2c-0.8-2.5-1.9-5-3.4-5.4c-3.2-0.8-5.1,1.6-8.6,2c-3.1,0.3-5.7,2-8.5,3
			c-0.2,0.1-0.4,0.2-0.6,0.3c-0.4,4,0,9.1,0.9,13.2l12.4,4.3l6.5-0.6C527.7,227.6,528.5,220.9,528.3,215.2z"/>
	</g>
</g>
<g id="Abe-costas" display="none">
	
		<linearGradient id="SVGID_6_" gradientUnits="userSpaceOnUse" x1="372.6082" y1="320.872" x2="372.6082" y2="299.3976" gradientTransform="matrix(1.1367 -5.071853e-003 0.1451 1.0326 99.1634 -17.0886)">
		<stop  offset="0" style="stop-color:#BD9661"/>
		<stop  offset="0.4058" style="stop-color:#C39B64"/>
		<stop  offset="0.9548" style="stop-color:#D4A96D"/>
		<stop  offset="0.9972" style="stop-color:#D6AA6E"/>
	</linearGradient>
	<path display="inline" fill="url(#SVGID_6_)" d="M571.2,291.4c4.3,3.5,5.9,6.7,3,15c-2.2,6.5-6,7.6-10.1,3.9
		c-6.2-5.6-4.6-7.6-2.7-12.8C563.4,292.2,567.1,288,571.2,291.4z"/>
	
		<linearGradient id="SVGID_7_" gradientUnits="userSpaceOnUse" x1="220.6059" y1="300.6332" x2="254.9235" y2="298.9299" gradientTransform="matrix(0.9988 4.957049e-002 -4.957049e-002 0.9988 355.7297 -43.6579)">
		<stop  offset="0" style="stop-color:#6C7880"/>
		<stop  offset="0.2312" style="stop-color:#859198"/>
		<stop  offset="0.4807" style="stop-color:#98A4AB"/>
		<stop  offset="0.7347" style="stop-color:#A3B0B6"/>
		<stop  offset="0.9972" style="stop-color:#A7B4BA"/>
	</linearGradient>
	<path display="inline" fill="url(#SVGID_7_)" d="M575.4,302c10.3-39.7,20.1-59.9,20.1-59.9l-1.5-9c-1.8,1.4-19.9,20.9-32.8,65.1
		L575.4,302L575.4,302z"/>
	<path display="inline" fill="#20211D" d="M626.8,372c-3.3,0.4-5.8-0.3-5.8-0.3s-0.2-27.3-1.5-45.1c-1.3-17.4-3.6-28.3-3.6-28.3
		l-36.6,0.4c0,0-2.5,10-4.6,27.3c-2.2,17.8-3.9,44.1-3.9,44.1s-2.5,0.8-5.8,0.3l-2.8,6.3c15.1,3.1,32.5,0,32.5,0s0.4-23.2,2.4-55.2
		c0.5,32-0.3,55.3-0.3,55.3s17.2,4,32.4,1.6L626.8,372z"/>
	
		<linearGradient id="SVGID_8_" gradientUnits="userSpaceOnUse" x1="279.4265" y1="318.6513" x2="244.1034" y2="257.4698" gradientTransform="matrix(0.9997 2.409443e-002 -2.409443e-002 0.9997 337.653 -21.1575)">
		<stop  offset="0" style="stop-color:#6C7880"/>
		<stop  offset="0.2312" style="stop-color:#859198"/>
		<stop  offset="0.4807" style="stop-color:#98A4AB"/>
		<stop  offset="0.7347" style="stop-color:#A3B0B6"/>
		<stop  offset="0.9972" style="stop-color:#A7B4BA"/>
	</linearGradient>
	<path display="inline" fill="url(#SVGID_8_)" d="M597.8,230l-6.6,6.3c-3.3,21.1-7.5,48.6-12.6,65.4l38.3-1.7
		C611.4,244.4,597.8,230,597.8,230z"/>
	
		<linearGradient id="SVGID_9_" gradientUnits="userSpaceOnUse" x1="1485.5291" y1="305.8722" x2="1485.5291" y2="284.393" gradientTransform="matrix(-1.1363 3.340098e-002 -0.1101 1.0369 2347.811 -54.7607)">
		<stop  offset="0" style="stop-color:#BD9661"/>
		<stop  offset="0.4058" style="stop-color:#C39B64"/>
		<stop  offset="0.9548" style="stop-color:#D4A96D"/>
		<stop  offset="0.9972" style="stop-color:#D6AA6E"/>
	</linearGradient>
	<path display="inline" fill="url(#SVGID_9_)" d="M623.6,291.1c-4.2,3.7-5.6,6.9-2.6,15.1c2.4,6.4,6.1,7.4,10.1,3.5
		c5.9-5.8,4.4-7.8,2.3-12.9C631.4,291.7,627.7,287.6,623.6,291.1z"/>
	
		<linearGradient id="SVGID_10_" gradientUnits="userSpaceOnUse" x1="281.2546" y1="273.9461" x2="298.1845" y2="264.1216" gradientTransform="matrix(1 2.212614e-003 -2.212614e-003 1 322.6112 -1.2017)">
		<stop  offset="0" style="stop-color:#6C7880"/>
		<stop  offset="0.2312" style="stop-color:#859198"/>
		<stop  offset="0.4807" style="stop-color:#98A4AB"/>
		<stop  offset="0.7347" style="stop-color:#A3B0B6"/>
		<stop  offset="0.9972" style="stop-color:#A7B4BA"/>
	</linearGradient>
	<path display="inline" fill="url(#SVGID_10_)" d="M619.7,301.9l14-4.4c-14-43.7-32.5-62.5-34.3-63.8l-1.3,9.1
		C598.2,242.8,608.4,262.7,619.7,301.9L619.7,301.9z"/>
	
		<linearGradient id="SVGID_11_" gradientUnits="userSpaceOnUse" x1="262.1656" y1="252.343" x2="261.4044" y2="220.7575" gradientTransform="matrix(0.9997 2.409443e-002 -2.409443e-002 0.9997 337.653 -21.1575)">
		<stop  offset="0" style="stop-color:#B5905D"/>
		<stop  offset="0.5079" style="stop-color:#C89F67"/>
		<stop  offset="0.9972" style="stop-color:#D6AA6E"/>
	</linearGradient>
	<path display="inline" fill="url(#SVGID_11_)" d="M584.2,228.9c0.6,2.5,1.4,4.6,2.3,5.7c4.2,3.3,15.1,3.1,15.6,2.3
		c0.2-0.3,0.6-2,1-4.4l-6.5,0.6L584.2,228.9z"/>
	<path display="inline" fill="#A08B35" d="M600.7,206.8l1.8,1.4C602,207.6,601.4,207.1,600.7,206.8z"/>
	<path display="inline" fill="#A08B35" d="M604.4,215.8c-0.8-2.5-1.9-5-3.4-5.4c-3.2-0.8-5.1,1.6-8.6,2c-3.1,0.3-5.7,2-8.5,3
		c-0.2,0.1-0.4,0.2-0.6,0.3c-0.4,4,0,9.1,0.9,13.2l12.4,4.3l6.5-0.6C603.9,228.2,604.7,221.4,604.4,215.8z"/>
	<path display="inline" fill="#A08B35" d="M584.9,210c-0.8,1.1-1.3,3.2-1.5,5.7c0.2-0.1,0.3-0.2,0.6-0.3c2.8-1.1,5.5-2.7,8.5-3
		c3.6-0.3,5.5-2.8,8.6-2c1.5,0.4,2.6,2.9,3.4,5.4c-0.1-3-0.5-5.6-1.4-7c-0.1-0.2-0.3-0.4-0.5-0.7l-1.8-1.4
		C595.9,204.3,587.1,206.7,584.9,210z"/>
</g>
<g display="none">
	<polygon display="inline" fill="#6C9A06" points="366.1,356.4 336,356.3 333,365.3 333,366 333,368.3 369,368.4 369,366.1 369,366 
		369,365.4 	"/>
	<path id="path4097-0_1_" display="inline" fill="#5E8706" d="M343.6,357.2c-0.5,0.7-2.2,1.3-4.4,1.3c-0.1,0-0.2,0-0.3,0l-1,3.9
		c2.1,0,3.9,0.6,4.3,1.3l18.5,0c0.4-0.7,2.1-1.2,4.1-1.3l-0.8-3.9c-0.1,0-0.2,0-0.3,0c-2.1,0-3.9-0.6-4.3-1.3L343.6,357.2z
		 M351.6,358.3c3,0,5.4,0.9,5.4,2c0,1.1-2.4,2-5.4,2c-3,0-5.4-0.9-5.4-2S348.6,358.3,351.6,358.3z"/>
</g>
<path display="none" fill="#D4A12D" d="M264.9,386.6c0,0,0-0.8,0-0.8c0-0.2-0.2-0.8-0.6-1c0-0.5,0-1.3,0-1.5
	c0.2-0.1,0.5-1.1,0.7-1.2c0-0.7-0.1-2.5-0.1-2.5s0,0,0,0c0,0,0,1.2,0,1.1c0-0.9-2.9-1.5-6.4-1.4c-3.5,0.1-6.3,1.1-6.3,2
	c0,0,0,0.1,0.2,1c-0.5,0.2-0.8,0.5-0.8,0.8c0,0,0,0,0.3,1.7c0.1,0.1,0.3,0.1,0.4,0.2c-0.1,0.1-0.1,0.2-0.1,0.3c0,0,0,1.4,0.3,3
	c1.6,1,9.2,1.7,12.4-0.3C264.9,387.4,264.9,386.6,264.9,386.6L264.9,386.6z"/>
<path display="none" fill="#D4A12D" d="M327.9,387.3c0.1-0.1,0.3-0.1,0.4-0.2c0.3-1.7,0.3-1.8,0.3-1.8c0-0.9-2.8-1.8-6.2-2
	c-3.5-0.1-6.3,1.4-6.3,2.3c0,0,0,1,0,1h0c0,0-0.1,0-0.1,0.7c0.2,0.1,0.4,0.1,0.6,0.2c-0.3,0.3-0.5,0.3-0.6,0.5c0,0,0,0.6,0,0.6h0
	c0,0-0.1,0.4-0.1,1.1c0,0,0,0.1,0.1,0.1c0,0,0,0,0,0c0,0,0,0.7,0,0.7h0c0,0-0.1,0.4-0.1,1.1c0,0,0,0.1,0.1,0.1c0,0,0,0,0,0
	c0,0,0,0.8,0,0.8h0c0,0-0.1,0.3-0.1,1c3.1,2,10.7,1,12.3,0c0.3-1.7,0.3-1.8,0.3-1.8c0-0.1-0.1-0.3-0.2-0.4c0.2-1.3,0.2-1.4,0.2-1.4
	c0-0.1-0.1-0.3-0.2-0.4c0.2-1.3,0.2-1.4,0.2-1.4C328.6,387.8,328.3,387.6,327.9,387.3z"/>
<path display="none" fill="#D4A12D" d="M298.9,381.5c-3.5-0.1-6.3,1.3-6.3,2.2c0,0,0,1,0,1h0c0,0-0.1,0.1-0.1,0.8
	c3.1,2,10.7,0.9,12.3-0.1c0.3-1.7,0.3-1.9,0.3-1.9C305.2,382.6,302.4,381.6,298.9,381.5z"/>
<path display="none" fill="#D4A12D" d="M316.2,367.5c0-0.4-0.6-0.7-1.6-1c0-0.1,0-0.2,0.1-0.3c0.2-0.1,0.5-0.2,0.6-0.3
	c0.3-1.7,0.3-1.7,0.3-1.7c0-0.2-0.2-0.4-0.5-0.7c0.2-1.1,0.2-1.1,0.2-1.1c0-0.2-0.1-0.3-0.3-0.5c0,0,0,0,0,0
	c0.2-1.7,0.2-1.7,0.2-1.7c0-0.2-0.2-0.4-0.5-0.6c0.1-0.9,0.1-0.9,0.1-0.9c0-0.1,0-0.1-0.1-0.2c0.2-0.1,0.4-0.2,0.5-0.2
	c0.2-1.7,0.2-1.7,0.2-1.7c0-0.2-0.2-0.4-0.6-0.6c0.2-1.5,0.2-1.5,0.2-1.5c0-0.2-0.2-0.4-0.5-0.6c0.1-1,0.1-1,0.1-1
	c0-0.1,0-0.2-0.1-0.2c0.2-0.1,0.5-0.2,0.6-0.3c0.2-1.7,0.2-1.7,0.2-1.7c0-0.1-0.1-0.3-0.2-0.4c0.2-1.2,0.2-1.2,0.2-1.2
	c0-0.9-2.8-1.6-6.3-1.5c-3.5,0-6.3,0.9-6.3,1.7c0,0,0,0.3,0,0.3h0c0,0,1,1,1,1.7c0,0,0-0.3,0-0.3c0,0,0-0.1,0-0.1
	c0,0.1-0.5,0-0.5,0.1c0,0-0.2,0-0.2,0c0,0.2-0.1,0.7-0.1,1.3c-0.5,0.2-0.8,0.2-0.8,0.5c0,0,0-0.1,0-0.1h0c0,0,0,1.2,0,1.9
	c0.1,0.1,0.2,0.2,0.4,0.3c0,0.3,0,1,0,1.5c0.1,0.1,0.3,0.1,0.4,0.2c0,0.1-0.1-0.5-0.1-0.4c0,0,0-0.5,0-0.5h0c0,0,0,1.3,0,1.9
	c-0.4,0.2-0.7,1.1-0.7,1.3c0,0,0,0.7,0,0.7h0c0,0,0,0.6,0,1.3c0.1,0.1,0.2-0.1,0.3,0c0,0.3,0,0.8,0,1.2c0,0,0.1,0,0.1,0
	c-0.1,0.1-0.1,0.7-0.1,0.8c0,0,0,0.6,0,0.6h0c0,0,0,0.4,0,1.1c0.1,0.1,0.2-0.2,0.3-0.1c0,0.2,0,0.2,0,0.4c-0.5,0.2-0.9,0.9-0.9,1.1
	c0,0,0,0.5,0,0.5h0c0,0,0,0.5,0,1.2c0.4,0.3,0.9,0.2,1.5,0.4c0,0.3,0,0.5,0,0.9c-0.4,0.2-0.6-0.2-0.6,0c0,0,0-0.5,0-0.5h0
	c0,0,0,1.5,0,2.2c0,0,0,0.4,0,0.4c0,0,0,0.4,0,0.4h0c0,0,0,0.9,0,1.6c3.2,1.9,10.8,1,12.3-0.1c0.2-1.7,0.2-1.7,0.2-1.7
	c0-0.1-0.1-0.3-0.2-0.4c0.2-1.4,0.2-1.4,0.2-1.4c0-0.1,0-0.2-0.1-0.3c0.1-0.1,0.3-0.1,0.4-0.2C316.2,367.5,316.2,367.5,316.2,367.5z
	"/>
<path fill="#B38825" d="M289,356.2c0-0.6,0-0.6,0-0.6h0c0,0,0-0.6,0-0.6c0-0.5-0.8-1.1-2.1-1.4c0.3-0.1,0.7-0.2,1-0.4
	c0-0.7,0-1.6,0-1.6h0c0,0,0-0.3,0-0.3c0-0.2-0.2-0.8-0.6-1c0-0.6,0-1.7,0-1.7s0,0,0,0c0,0,0,0.2,0,0.1c0,0,0,0.1,0,0.1
	c0.2-0.1,0.4-0.8,0.6-0.9c0-0.7-0.1-2.3-0.1-2.3h0c0,0,0,0.6,0,0.6c0,0,0,0.3,0,0.3c0,0,0,0.2,0.1,0.1c0-0.3,0-0.6,0-0.9
	c0.1-0.1,0.2,0.2,0.3,0.2c0-0.7,0-1.3,0-1.3h0c0,0,0-0.4,0-0.4c0-0.1,0-0.4-0.1-0.5c0,0,0.1-0.3,0.1-0.3c0-0.7,0-1.9,0-1.9s0,0,0,0
	c0,0,0,0.1,0,0c0,0,0,0.5-0.1,0.4c0-0.5,0-0.5,0-0.5h0c0,0,0-0.6,0-0.6c0,0,0-0.3-0.1-0.4c0.3-0.1,0.7-0.2,1-0.4c0-0.7,0-1.6,0-1.6
	h0c0,0,0-0.2,0-0.2c0-0.1-0.1-1.4-0.2-1.5c0-0.6,0-2.2,0-2.2h0c0,0,0,1,0,0.9c0-0.9-2.8-1-6.3-1c-3.5,0-6.3,1-6.3,1.8
	c0,0,0,0.1,0.2,1.7c0,0,0,0.1,0,0.1c0,0,0,0.1,0.2,1.5c-0.7,0.3-1.1,0.6-1.1,0.9c0,0,0,0,0.1,1c-0.1,0.1-0.1,0.2-0.1,0.3
	c0,0,0,0,0.2,1.7c0,0,0,0,0,0c-0.2,0.1-0.3,0.3-0.3,0.5c0,0,0,0,0.2,1.1c-0.3,0.2-0.5,0.4-0.5,0.7c0,0,0,0,0.3,1.3
	c-0.2,0.1-0.3,0.3-0.3,0.4c0,0,0,0,0.1,0.8c-0.4,0.2-0.7,0.4-0.7,0.7c0,0,0,0,0.2,1.7c0.1,0.1,0.3,0.1,0.4,0.2
	c-0.1,0.1-0.1,0.2-0.1,0.3c0,0,0,0,0.2,1.7c0.4,0.3,1.1,0.5,2.1,0.7c-0.8,0.3-1.3,0.6-1.3,0.9c0,0,0,0,0.2,1.6c0,0,0,0,0,0
	c0,0,0,0,0.2,1.4c-0.7,0.3-1.1,0.6-1.1,0.9c0,0,0,0,0.1,1c-0.1,0.1-0.1,0.2-0.1,0.3c0,0,0,0,0.2,1.7c0,0,0,0,0,0
	c-0.2,0.1-0.3,0.3-0.3,0.5c0,0,0,0,0.2,1.1c-0.3,0.2-0.5,0.4-0.5,0.7c0,0,0,0,0.3,1.3c-0.2,0.1-0.3,0.3-0.3,0.4c0,0,0,0,0.1,0.8
	c-0.4,0.2-0.7,0.4-0.7,0.7c0,0,0,0,0.2,1.7c0.1,0.1,0.3,0.1,0.4,0.2c-0.1,0.1-0.1,0.2-0.1,0.3c0,0,0,0,0.2,1.7
	c1.6,1.1,9.2,2.8,12.3,0.8c0-0.7,0-0.9,0-0.9h0c0-3,0-0.8,0-0.9c0-0.2-0.2-0.5-0.6-0.7c0-0.6,0-1.5,0-1.5s0,0,0,0c0,0,0-0.4,0-0.4
	c0,0,0-0.2,0-0.2c0.2-0.1,0.4-0.4,0.6-0.5c0-0.7-0.1-1.9-0.1-1.9h0c0,0,0,0.1,0,0c0,0,0,0.1,0,0.1c0,0,0,0,0.1,0c0-0.3,0-0.7,0-1
	c0.1-0.1,0.2,0.3,0.3,0.2c0-0.7,0-1.3,0-1.3h0c0,0,0-0.4,0-0.5c0-0.1,0-0.4-0.1-0.5c0,0,0.1-0.2,0.1-0.2c0-0.7,0-1.8,0-1.8s0,0,0,0
	c0,0,0,0,0,0c0,0,0,0.5-0.1,0.5c0-0.5,0-0.5,0-0.5h0c0,0,0-0.6,0-0.7c0,0,0-0.4-0.1-0.4c0.3-0.1,0.7-0.2,1-0.3c0-0.7,0-1.6,0-1.6h0
	c0,0,0,0,0,0C289.3,356.4,289.2,356.4,289,356.2z"/>
<path display="none" fill="#D4A12D" d="M300.2,367.3c0-0.3-0.3-0.5-0.7-0.7c0.1-0.8,0.1-0.8,0.1-0.8c0-0.2-0.1-0.3-0.3-0.4
	c0.3-1.3,0.3-1.3,0.3-1.3c0-0.2-0.2-0.4-0.5-0.7c0.2-1.1,0.2-1.1,0.2-1.1c0-0.2-0.1-0.3-0.3-0.5c0,0,0,0,0,0
	c0.2-1.7,0.2-1.7,0.2-1.7c0-0.3-0.4-0.6-1.1-0.9c0.1-0.5,0.1-0.6,0.1-0.6c0.5-0.1,0.9-0.3,1.2-0.5c0.2-1.7,0.2-1.7,0.2-1.7
	c0-0.2-0.2-0.4-0.6-0.6c0.2-1.5,0.2-1.5,0.2-1.5c0-0.2-0.2-0.4-0.5-0.6c0.1-1,0.1-1,0.1-1c0-0.1,0-0.2-0.1-0.2
	c0.2-0.1,0.5-0.2,0.6-0.3c0.2-1.7,0.2-1.7,0.2-1.7c0-0.1-0.1-0.3-0.2-0.4c0.2-1.2,0.2-1.2,0.2-1.2c0-0.3-0.3-0.5-0.8-0.8
	c0.1-0.7,0.1-0.7,0.1-0.7c0-0.3-0.3-0.5-0.8-0.7c0.1-0.7,0.1-0.7,0.1-0.7c0-0.9-2.8-1.6-6.3-1.6c-3.5,0-6.3,0.9-6.3,1.8
	c0,0,0,0.3,0,0.3h0c0,0,0,0.8,0,1.4c0.2,0.1,0.5,0.1,0.7,0.2c0,0.3,0,0.7,0,1.1c0.2,0.1,0.4,0.2,0.7,0.3c0,0.3,0,0.6,0,1
	c0,0,0,0,0,0c0,0,0,0,0,0c0,0.1,0,0.1,0,0.2c0,0,0,0,0,0c0,0.2,0,0.7,0,1.3c-0.5,0.2-0.8,0.8-0.8,1.1c0,0,0,0.5,0,0.5h0
	c0,0,0,0.6,0,1.3c0.1,0.1,0.2-0.1,0.4,0c0,0.3,0,0.9,0,1.4c0.1,0.1,0.3,0.1,0.4,0.1c0,0.1-0.1,1.1-0.1,1.2c0,0,0,1.1,0,1.1h0
	c0,0,0-0.5,0,0.1c-0.9,0.3-1.4,0-1.4,0.4c0,0,0-0.5,0-0.5h0c0,0,0,1.1,0,1.7c0.3,0.2,0.7,0.4,1,0.5c0,0.3,0,0.7,0,1
	c0,0,0.1,0,0.1,0.1c-0.1,0.1-0.1,0.3-0.1,0.4c0,0,0,0.2,0,0.2h0c0,0,0,0.8,0,1.5c0.1,0.1,0.2,0,0.3,0.1c0,0.3,0,0.7,0,1
	c0,0,0,0,0.1,0c0,0,0,0.1,0,0.1c0,0,0,0.2,0,0.2h0c0,0-0.1,0.8-0.1,1.5c0.2,0.1,0.4,0.1,0.6,0.2c0,0,0,0.6,0,0.6c0,0,0,0.7,0,0.7h0
	c0,0,0,0.2,0,0.8c-0.4,0.2-0.6-0.4-0.6-0.1c0,0,0-0.7,0-0.7h0c0,0,0,1.4,0,2.1c0,0,0,0.4,0,0.4c0,0,0,0.5,0,0.5h0c0,0,0,0.8,0,1.5
	c3.2,1.9,10.8,0.9,12.3-0.1c0.2-1.7,0.2-1.7,0.2-1.7c0-0.1-0.1-0.3-0.2-0.4c0.2-1.4,0.2-1.4,0.2-1.4c0-0.1,0-0.2-0.1-0.3
	c0.1-0.1,0.3-0.1,0.4-0.2C300.2,367.3,300.2,367.3,300.2,367.3z"/>
<path display="none" fill="#B38825" d="M271.3,365.6c0-0.4-0.6-0.7-1.6-1c0-0.1,0-0.2,0.1-0.3c0.2-0.1,0.5-0.2,0.6-0.3
	c0.3-1.7,0.3-1.7,0.3-1.7c0-0.2-0.2-0.4-0.5-0.7c0.2-1.1,0.2-1.1,0.2-1.1c0-0.2-0.1-0.3-0.3-0.5c0,0,0,0,0,0
	c0.2-1.7,0.2-1.7,0.2-1.7c0-0.2-0.2-0.4-0.5-0.6c0.1-0.9,0.1-0.9,0.1-0.9c0-0.1,0-0.1-0.1-0.2c0.2-0.1,0.4-0.2,0.5-0.2
	c0.2-1.7,0.2-1.7,0.2-1.7c0-0.2-0.2-0.4-0.6-0.6c0.2-1.5,0.2-1.5,0.2-1.5c0-0.2-0.2-0.4-0.5-0.6c0.1-1,0.1-1,0.1-1
	c0-0.1,0-0.2-0.1-0.2c0.2-0.1,0.5-0.2,0.6-0.3c0.2-1.7,0.2-1.7,0.2-1.7c0-0.1-0.1-0.3-0.2-0.4c0.2-1.2,0.2-1.2,0.2-1.2
	c0-0.9-2.8-1.6-6.3-1.5c-3.5,0-6.3,1.3-6.3,2.2c0,0,0,0.7,0,0.7h0c0,0,0.8,0.2,0.8,0.8c0,0,0-0.3,0-0.3c0,0,0-0.1,0-0.1
	c0,0.1-0.4,0-0.4,0.1c0,0-0.2,0-0.2,0c0,0.2-0.1,0.7-0.1,1.3c-0.5,0.2-0.8,0.2-0.8,0.4c0,0,0-0.2,0-0.2h0c0,0,0,1.3,0,1.9
	c0.1,0.1,0.2,0.2,0.4,0.3c0,0.3,0,1,0,1.5c0.1,0.1,0.3,0.2,0.4,0.2c0,0.1-0.1-0.5-0.1-0.4c0,0,0-0.6,0-0.6h0c0,0,0,1.4,0,2
	c-0.4,0.2-0.7,1-0.7,1.3c0,0,0,0.7,0,0.7h0c0,0,0,0.7,0,1.4c0.1,0.1,0.2,0,0.3,0c0,0.3,0,0.8,0,1.3c0,0,0.1,0,0.1,0
	c-0.1,0.1-0.1,1.1-0.1,1.3c0,0,0,1,0,1h0c0,0,0,0,0,0.7c0.1,0.1,0.2-0.4,0.3-0.3c0,0.2,0,0.1,0,0.2c-0.5,0.2-0.9,0.7-0.9,1
	c0,0,0,0.4,0,0.4h0c0,0,0,0.6,0,1.3c0.4,0.3,0.9,0.3,1.5,0.5c0,0.3,0,0.6,0,0.9c-0.4,0.2-0.6-0.3-0.6,0c0,0,0-0.6,0-0.6h0
	c0,0,0,1.6,0,2.2c0,0,0,0.3,0,0.4c0,0,0,0.4,0,0.4h0c0,0,0,1,0,1.7c3.2,1.9,10.8,1,12.3-0.1c0.2-1.7,0.2-1.7,0.2-1.7
	c0-0.1-0.1-0.2-0.2-0.4c0.2-1.4,0.2-1.4,0.2-1.4c0-0.1,0-0.2-0.1-0.3c0.1-0.1,0.3-0.1,0.4-0.2C271.3,365.6,271.3,365.6,271.3,365.6z
	"/>
<path display="none" fill="#D4A12D" d="M249.1,366.6c0,0,0-0.5,0-0.5c0-0.1-0.1-0.2-0.2-0.4c0-0.6,0-1.1,0-1.1h0c0,0,0-0.3,0-0.3
	c0-0.9-2.8-1.7-6.3-1.7c-3.5,0-6.3,0.6-6.3,1.5c0,0,0,0,0.2,1.6c0,0,0,0,0,0c0,0,0,0,0.2,1.4c-0.7,0.3-1.1,0.6-1.1,0.9
	c0,0,0,0,0.1,1c-0.1,0.1-0.1,0.2-0.1,0.3c0,0,0,0,0.2,1.7c0,0,0,0,0,0c-0.2,0.1-0.3,0.3-0.3,0.5c0,0,0,0,0.2,1.1
	c-0.3,0.2-0.5,0.4-0.5,0.7c0,0,0,0,0.3,1.3c-0.2,0.1-0.3,0.3-0.3,0.4c0,0,0,0,0.1,0.8c-0.4,0.2-0.7,0.4-0.7,0.7c0,0,0,0,0.2,1.7
	c0.1,0.1,0.3,0.1,0.4,0.2c-0.1,0.1-0.1,0.2-0.1,0.3c0,0,0,0,0.2,1.7c1.6,1.1,9.2,1,12.3-1c0-0.7,0-2.7,0-2.7h0c0,0,0,1,0,0.9
	c0-0.2-0.2,0.1-0.6-0.1c0-0.6,0-0.9,0-0.9h0c0,0,0-0.1,0-0.1c0,0,0,0,0-0.1c0.2-0.1,0.4-0.1,0.6-0.2c0-0.7-0.1-1.6-0.1-1.6h0
	c0,0,0-0.2,0-0.2c0,0,0,0,0-0.1c0,0,0,0,0.1,0c0-0.3,0-0.7,0-1c0.1-0.1,0.2,0.5,0.3,0.4c0-0.7,0-1.1,0-1.1h0c0,0,0-0.6,0-0.7
	c0-0.1,0-0.5-0.1-0.6c0,0,0.1-0.1,0.1-0.1c0-0.7,0-1.7,0-1.7h0c0,0,0-0.2,0-0.2c0,0,0-0.9-0.1-0.9c0-0.5,0-1.8,0-1.8h0
	c0,0,0,0.7,0,0.6c0,0,0,0.3-0.1,0.2c0.3-0.1,0.7,0.4,1,0.2C249.1,367,249.1,366.6,249.1,366.6L249.1,366.6z"/>
<path display="none" fill="#D4A12D" d="M278.8,372.6L278.8,372.6C278.8,372.6,278.8,372.7,278.8,372.6c0-0.2-0.3-0.1-0.9-0.3
	c0-0.1,0,0.3,0,0.3h0c0,0,0-0.3,0-0.4c0-0.1,0-0.4-0.1-0.5c0,0,0.1-0.3,0.1-0.3c0-0.7,0-1.9,0-1.9h0c0,0,0,0.1,0,0.1
	c0,0,0,0.5-0.1,0.4c0-0.5,0-0.5,0-0.5h0c0,0,0-0.6,0-0.6c0,0,0-0.3-0.1-0.4c0.3-0.1,0.7-0.2,1-0.4c0-0.7,0-1.6,0-1.6h0
	c0,0,0-0.2,0-0.2c0-0.3-0.4-0.7-1.1-1c0-0.3,0-0.6,0-0.8c0.2-0.1,0.4-0.7,0.6-0.8c0-0.7-0.1-2.2-0.1-2.2h0c0,0,0,0.4,0,0.4
	c0-0.3-0.4-0.3-0.9-0.5c0-0.1,0,0.1,0,0.1h0c0,0,0-0.1,0-0.1c0-0.1,0-0.2-0.1-0.3c0,0,0.1-0.5,0.1-0.5c0-0.7,0-2.1,0-2.1h0
	c0,0,0,0.4,0,0.3c0,0,0,0.3-0.1,0.3c0-0.5,0-0.6,0-0.6h0c0,0,0-0.3,0-0.3c0,0,0-0.2-0.1-0.2c0.3-0.1,0.7,0.6,1,0.4
	c0-0.7,0-0.8,0-0.8h0c0,0,0-0.9,0-1c0-0.3-0.4-1-1.1-1.3c0-0.6,0-1.8,0-1.8h0c0,0,0-0.1,0-0.1c0-0.9-2.8-1.6-6.3-1.6
	c-3.5,0-6.3,0.7-6.3,1.6c0,0,0,0,0.2,1.7c0.2,0.1,0.6,0.3,1,0.4c-0.1,0.1-0.1,0.2-0.1,0.3c0,0,0,0,0.2,1.4c-0.7,0.3-1.1,0.6-1.1,0.9
	c0,0,0,0,0.1,1c-0.1,0.1-0.1,0.2-0.1,0.3c0,0,0,0,0.2,1.7c0,0,0,0,0,0c-0.2,0.1-0.3,0.3-0.3,0.5c0,0,0,0,0.2,1.7
	c0.1,0.1,0.3,0.1,0.4,0.2c-0.2,0.1-0.3,0.3-0.3,0.5c0,0,0,0,0.2,1.7c0.2,0.1,0.6,0.3,1,0.4c-0.1,0.1-0.1,0.2-0.1,0.3
	c0,0,0,0,0.2,1.4c-0.7,0.3-1.1,0.6-1.1,0.9c0,0,0,0,0.1,1c-0.1,0.1-0.1,0.2-0.1,0.3c0,0,0,0,0.2,1.7c0,0,0,0,0,0
	c-0.2,0.1-0.3,0.3-0.3,0.5c0,0,0,0,0.2,1.7c0.2,0.1,0.4,0.2,0.7,0.3c0,0.2,0.1,0.6,0.2,1.2c1.6,1,9.2,1.3,12.3-0.7
	C278.8,373.8,278.8,372.6,278.8,372.6z"/>
<rect x="152.2" y="318.3" display="none" opacity="0.16" fill="#191919" width="224.2" height="119.4"/>
</svg>
