<?xml version="1.0" encoding="utf-8"?>
<!-- Generator: Adobe Illustrator 18.0.0, SVG Export Plug-In . SVG Version: 6.00 Build 0)  -->
<!DOCTYPE svg PUBLIC "-//W3C//DTD SVG 1.1//EN" "http://www.w3.org/Graphics/SVG/1.1/DTD/svg11.dtd" [
	<!ENTITY ns_extend "http://ns.adobe.com/Extensibility/1.0/">
	<!ENTITY ns_ai "http://ns.adobe.com/AdobeIllustrator/10.0/">
	<!ENTITY ns_graphs "http://ns.adobe.com/Graphs/1.0/">
	<!ENTITY ns_vars "http://ns.adobe.com/Variables/1.0/">
	<!ENTITY ns_imrep "http://ns.adobe.com/ImageReplacement/1.0/">
	<!ENTITY ns_sfw "http://ns.adobe.com/SaveForWeb/1.0/">
	<!ENTITY ns_custom "http://ns.adobe.com/GenericCustomNamespace/1.0/">
	<!ENTITY ns_adobe_xpath "http://ns.adobe.com/XPath/1.0/">
]>
<svg version="1.1" id="Layer_1" xmlns:x="&ns_extend;" xmlns:i="&ns_ai;" xmlns:graph="&ns_graphs;"
	 xmlns="http://www.w3.org/2000/svg" xmlns:xlink="http://www.w3.org/1999/xlink" x="0px" y="0px" viewBox="0 0 400 200"
	 enable-background="new 0 0 400 200" xml:space="preserve">
<metadata>
	<sfw  xmlns="&ns_sfw;">
		<slices></slices>
		<sliceSourceBounds  width="653.1" height="233.2" x="-3.5" y="-205.5" bottomLeftOrigin="true"></sliceSourceBounds>
	</sfw>
</metadata>
<rect x="-3" y="-4.5" display="none" fill="#191919" stroke="#000000" stroke-miterlimit="10" width="409" height="209.5"/>
<g id="aaron-b3" display="none">
	
		<linearGradient id="SVGID_1_" gradientUnits="userSpaceOnUse" x1="296.3091" y1="139.9354" x2="296.3091" y2="130.5951" gradientTransform="matrix(1.1367 -1.138956e-002 0.1508 1.0318 -134.9252 -0.3899)">
		<stop  offset="0" style="stop-color:#BD9661"/>
		<stop  offset="0.4058" style="stop-color:#C39B64"/>
		<stop  offset="0.9548" style="stop-color:#D4A96D"/>
		<stop  offset="0.9972" style="stop-color:#D6AA6E"/>
	</linearGradient>
	<path display="inline" fill="url(#SVGID_1_)" d="M223.8,131.5c1.9,1.5,2.6,2.9,1.4,6.5c-1,2.8-2.6,3.3-4.4,1.7
		c-2.7-2.4-2-3.3-1.2-5.6C220.4,131.9,222,130,223.8,131.5z"/>
	
		<linearGradient id="SVGID_2_" gradientUnits="userSpaceOnUse" x1="221.1768" y1="157.5797" x2="221.1768" y2="127.2366" gradientTransform="matrix(0.999 4.401876e-002 -4.401876e-002 0.999 12.1962 -31.0362)">
		<stop  offset="0" style="stop-color:#6C7880"/>
		<stop  offset="4.063693e-002" style="stop-color:#6F7B83"/>
		<stop  offset="0.3524" style="stop-color:#808F97"/>
		<stop  offset="0.6695" style="stop-color:#8A9AA2"/>
		<stop  offset="0.9972" style="stop-color:#8D9EA6"/>
	</linearGradient>
	<path display="inline" fill="url(#SVGID_2_)" d="M225.6,136.1c4.4-17.3,8.6-26.1,8.6-26.1l-0.7-3.9c-0.8,0.6-8.6,9.1-14.1,28.4
		L225.6,136.1L225.6,136.1z"/>
</g>
<g id="abe-b3" display="none">
	
		<linearGradient id="SVGID_3_" gradientUnits="userSpaceOnUse" x1="356.2914" y1="141.1603" x2="356.2914" y2="131.82" gradientTransform="matrix(-1.1367 -5.071853e-003 -0.1451 1.0326 616.9644 -4.4315)">
		<stop  offset="0" style="stop-color:#BD9661"/>
		<stop  offset="0.4058" style="stop-color:#C39B64"/>
		<stop  offset="0.9548" style="stop-color:#D4A96D"/>
		<stop  offset="0.9972" style="stop-color:#D6AA6E"/>
	</linearGradient>
	<path display="inline" fill="url(#SVGID_3_)" d="M190.6,130.4c-1.9,1.5-2.6,2.9-1.3,6.5c1,2.8,2.6,3.3,4.4,1.7
		c2.7-2.4,2-3.3,1.2-5.6C194,130.8,192.4,128.9,190.6,130.4z"/>
	
		<linearGradient id="SVGID_4_" gradientUnits="userSpaceOnUse" x1="296.8755" y1="146.3741" x2="285.3719" y2="135.9583" gradientTransform="matrix(-0.9988 4.957049e-002 4.957049e-002 0.9988 469.6749 -34.2596)">
		<stop  offset="0" style="stop-color:#6C7880"/>
		<stop  offset="0.2312" style="stop-color:#859198"/>
		<stop  offset="0.4807" style="stop-color:#98A4AB"/>
		<stop  offset="0.7347" style="stop-color:#A3B0B6"/>
		<stop  offset="0.9972" style="stop-color:#A7B4BA"/>
	</linearGradient>
	<path display="inline" fill="url(#SVGID_4_)" d="M188.8,135c-4.5-17.2-8.7-26.1-8.7-26.1l0.7-3.9c0.8,0.6,8.7,9.1,14.3,28.3
		L188.8,135L188.8,135z"/>
</g>
<g id="abe-b2" display="none">
	
		<linearGradient id="SVGID_5_" gradientUnits="userSpaceOnUse" x1="215.3064" y1="119.8121" x2="221.5486" y2="119.8121" gradientTransform="matrix(0.9239 0.3826 -0.3826 0.9239 44.6078 -62.709)">
		<stop  offset="0" style="stop-color:#BD9661"/>
		<stop  offset="0.4058" style="stop-color:#C39B64"/>
		<stop  offset="0.9548" style="stop-color:#D4A96D"/>
		<stop  offset="0.9972" style="stop-color:#D6AA6E"/>
	</linearGradient>
	<path display="inline" fill="url(#SVGID_5_)" d="M196.6,132.9c0,0,2.1,1.5,3.1,1.5c6.3,0.2,3-5.1,2.1-5.5c-0.8-0.4-2.9-0.7-2.9-0.7
		L196.6,132.9z"/>
	
		<linearGradient id="SVGID_6_" gradientUnits="userSpaceOnUse" x1="202.7641" y1="122.8229" x2="202.7641" y2="104.1777" gradientTransform="matrix(0.9239 0.3826 -0.3826 0.9239 44.6078 -62.709)">
		<stop  offset="0" style="stop-color:#6C7880"/>
		<stop  offset="0.2312" style="stop-color:#859198"/>
		<stop  offset="0.4807" style="stop-color:#98A4AB"/>
		<stop  offset="0.7347" style="stop-color:#A3B0B6"/>
		<stop  offset="0.9972" style="stop-color:#A7B4BA"/>
	</linearGradient>
	<path display="inline" fill="url(#SVGID_6_)" d="M177.2,110.5l1.6,3.1l3.2-6.7c2.7,1.2,3.6,14.3,18.3,21.3l0,0l-2.6,5.4
		C184.7,127.5,179.3,114.5,177.2,110.5L177.2,110.5z"/>
</g>
<g id="abe-b1" display="none">
	
		<linearGradient id="SVGID_7_" gradientUnits="userSpaceOnUse" x1="187.209" y1="109.0831" x2="193.4513" y2="109.0831" gradientTransform="matrix(0.9972 -7.496473e-002 7.496473e-002 0.9972 10.0761 26.0285)">
		<stop  offset="0" style="stop-color:#BD9661"/>
		<stop  offset="0.4058" style="stop-color:#C39B64"/>
		<stop  offset="0.9548" style="stop-color:#D4A96D"/>
		<stop  offset="0.9972" style="stop-color:#D6AA6E"/>
	</linearGradient>
	<path display="inline" fill="url(#SVGID_7_)" d="M205.1,123.5c0,0,2.5,0.4,3.4-0.1c5.7-2.6,0.4-5.9-0.6-5.9c-0.9,0-2.9,0.7-2.9,0.7
		L205.1,123.5z"/>
	
		<linearGradient id="SVGID_8_" gradientUnits="userSpaceOnUse" x1="175.7866" y1="112.3222" x2="175.7866" y2="94.2821" gradientTransform="matrix(0.9972 -7.496473e-002 7.496473e-002 0.9972 10.0761 26.0285)">
		<stop  offset="0" style="stop-color:#6C7880"/>
		<stop  offset="0.2312" style="stop-color:#859198"/>
		<stop  offset="0.4807" style="stop-color:#98A4AB"/>
		<stop  offset="0.7347" style="stop-color:#A3B0B6"/>
		<stop  offset="0.9972" style="stop-color:#A7B4BA"/>
	</linearGradient>
	<path display="inline" fill="url(#SVGID_8_)" d="M183,107.6c7.2,10.3,9.1,12.4,23.2,10.1l0,0l0.2,6c-13.9,2-19.4,0.9-26.4-10.6
		L183,107.6z"/>
</g>
<g id="abe" display="none">
	<g display="inline">
		
			<linearGradient id="SVGID_9_" gradientUnits="userSpaceOnUse" x1="1076.5012" y1="132.1413" x2="1076.5012" y2="122.7989" gradientTransform="matrix(1.1363 3.340098e-002 0.1101 1.0369 -1070.0159 -32.5969)">
			<stop  offset="0" style="stop-color:#BD9661"/>
			<stop  offset="0.4058" style="stop-color:#C39B64"/>
			<stop  offset="0.9548" style="stop-color:#D4A96D"/>
			<stop  offset="0.9972" style="stop-color:#D6AA6E"/>
		</linearGradient>
		<path fill="url(#SVGID_9_)" d="M168.8,131.3c1.8,1.6,2.5,3,1.1,6.6c-1,2.8-2.7,3.2-4.4,1.5c-2.6-2.5-1.9-3.4-1-5.6
			C165.5,131.5,167.1,129.8,168.8,131.3z"/>
		
			<linearGradient id="SVGID_10_" gradientUnits="userSpaceOnUse" x1="305.2575" y1="123.6497" x2="312.6212" y2="119.3765" gradientTransform="matrix(-1 2.212614e-003 2.212614e-003 1 482.6758 -0.7591)">
			<stop  offset="0" style="stop-color:#6C7880"/>
			<stop  offset="0.2312" style="stop-color:#859198"/>
			<stop  offset="0.4807" style="stop-color:#98A4AB"/>
			<stop  offset="0.7347" style="stop-color:#A3B0B6"/>
			<stop  offset="0.9972" style="stop-color:#A7B4BA"/>
		</linearGradient>
		<path fill="url(#SVGID_10_)" d="M170.5,136l-6.1-1.9c6.1-19,14.1-27.2,14.9-27.8l0.6,3.9C179.9,110.3,175.5,118.9,170.5,136
			L170.5,136z"/>
	</g>
	<g display="inline">
		<path fill="#20211D" d="M167.4,166.5c1.5,0.2,2.5-0.1,2.5-0.1s0.1-11.9,0.7-19.6c0.6-7.6,1.6-12.3,1.6-12.3l15.9,0.2
			c0,0,1.1,4.4,2,11.9c0.9,7.7,1.7,19.2,1.7,19.2s1.1,0.4,2.5,0.1l1.2,2.7c-6.6,1.3-14.1,0-14.1,0s-0.2-10.1-1-24
			c-0.2,13.9,0.1,24,0.1,24s-7.5,1.7-14.1,0.7L167.4,166.5z"/>
		
			<linearGradient id="SVGID_11_" gradientUnits="userSpaceOnUse" x1="305.4269" y1="146.092" x2="290.0631" y2="119.481" gradientTransform="matrix(-0.9997 2.409443e-002 2.409443e-002 0.9997 476.8738 -16.4604)">
			<stop  offset="0" style="stop-color:#6C7880"/>
			<stop  offset="0.2312" style="stop-color:#859198"/>
			<stop  offset="0.4807" style="stop-color:#98A4AB"/>
			<stop  offset="0.7347" style="stop-color:#A3B0B6"/>
			<stop  offset="0.9972" style="stop-color:#A7B4BA"/>
		</linearGradient>
		<path fill="url(#SVGID_11_)" d="M180.1,104.7l2.9,2.8c1.4,9.2,3.3,21.1,5.5,28.5l-16.7-0.7C174.1,111,180.1,104.7,180.1,104.7z"/>
		
			<linearGradient id="SVGID_12_" gradientUnits="userSpaceOnUse" x1="298.4413" y1="130.3718" x2="301.1413" y2="130.3718" gradientTransform="matrix(-0.9997 2.409443e-002 2.409443e-002 0.9997 476.8738 -16.4604)">
			<stop  offset="0" style="stop-color:#212121"/>
			<stop  offset="0.2515" style="stop-color:#242424"/>
			<stop  offset="0.9972" style="stop-color:#282828"/>
		</linearGradient>
		<path fill="url(#SVGID_12_)" d="M181,108.7c0,0.2,0.1,19.2,0.9,24.6l-2.7,0.1c-0.2-14.2,0.5-24.3,0.5-24.6L181,108.7z"/>
		
			<linearGradient id="SVGID_13_" gradientUnits="userSpaceOnUse" x1="297.9794" y1="117.2496" x2="297.6483" y2="103.5115" gradientTransform="matrix(-0.9997 2.409443e-002 2.409443e-002 0.9997 476.8738 -16.4604)">
			<stop  offset="0" style="stop-color:#B5905D"/>
			<stop  offset="0.5079" style="stop-color:#C89F67"/>
			<stop  offset="0.9972" style="stop-color:#D6AA6E"/>
		</linearGradient>
		<path fill="url(#SVGID_13_)" d="M178.7,96.2c1.4-0.3,2.2,0.7,3.8,0.8c1.3,0.1,2.5,0.9,3.7,1.3c0.1,0,0.2,0.1,0.2,0.1
			c0.3,2.8-0.3,7-1.4,8.2c-1.8,1.4-6.6,1.3-6.8,1c-0.2-0.4-1.2-5.4-1-9.2C177.6,97.4,178,96.4,178.7,96.2z"/>
		<path fill="#A08B35" d="M185.7,96c0.3,0.5,0.5,1.4,0.7,2.5c-0.1,0-0.2-0.1-0.2-0.1c-1.2-0.5-2.4-1.2-3.7-1.3
			c-1.6-0.1-2.4-1.2-3.8-0.8c-0.6,0.2-1.1,1.2-1.5,2.3c0.1-1.3,0.2-2.4,0.6-3C179.3,93.1,184.5,94.3,185.7,96z"/>
	</g>
</g>
<g display="none">
	
		<linearGradient id="SVGID_14_" gradientUnits="userSpaceOnUse" x1="187.9717" y1="129.8976" x2="194.2139" y2="129.8976" gradientTransform="matrix(-0.9239 0.3826 0.3826 0.9239 341.8848 -62.709)">
		<stop  offset="0" style="stop-color:#BD9661"/>
		<stop  offset="0.4058" style="stop-color:#C39B64"/>
		<stop  offset="0.9548" style="stop-color:#D4A96D"/>
		<stop  offset="0.9972" style="stop-color:#D6AA6E"/>
	</linearGradient>
	<path display="inline" fill="url(#SVGID_14_)" d="M216.6,127c0,0-2.1,0.3-2.9,0.7c-0.8,0.4-4.1,5.7,2.1,5.5c1,0,3.1-1.5,3.1-1.5
		L216.6,127z"/>
	
		<linearGradient id="SVGID_15_" gradientUnits="userSpaceOnUse" x1="188.6859" y1="133.5178" x2="164.1255" y2="114.6699" gradientTransform="matrix(-0.9239 0.3826 0.3826 0.9239 341.8848 -62.709)">
		<stop  offset="0" style="stop-color:#6C7880"/>
		<stop  offset="4.063693e-002" style="stop-color:#6F7B83"/>
		<stop  offset="0.3524" style="stop-color:#808F97"/>
		<stop  offset="0.6695" style="stop-color:#8A9AA2"/>
		<stop  offset="0.9972" style="stop-color:#8D9EA6"/>
	</linearGradient>
	<path display="inline" fill="url(#SVGID_15_)" d="M238.4,109.4c-2.1,4.1-7.5,17-20.5,23.1l-2.6-5.4l0,0
		c14.6-6.9,14.5-19.1,18.3-21.3l3.2,6.7L238.4,109.4L238.4,109.4z"/>
</g>
<g display="none">
	
		<linearGradient id="SVGID_16_" gradientUnits="userSpaceOnUse" x1="158.639" y1="105.7346" x2="164.8813" y2="105.7346" gradientTransform="matrix(-1 2.645256e-004 2.645256e-004 1 369.8736 16.5535)">
		<stop  offset="0" style="stop-color:#BD9661"/>
		<stop  offset="0.4058" style="stop-color:#C39B64"/>
		<stop  offset="0.9548" style="stop-color:#D4A96D"/>
		<stop  offset="0.9972" style="stop-color:#D6AA6E"/>
	</linearGradient>
	<path display="inline" fill="url(#SVGID_16_)" d="M210.9,119.8c0,0-2-0.5-3-0.4c-0.9,0.1-6,3.7-0.1,5.9c1,0.4,3.4-0.2,3.4-0.2
		L210.9,119.8z"/>
	
		<linearGradient id="SVGID_17_" gradientUnits="userSpaceOnUse" x1="152.1419" y1="111.8163" x2="142.9523" y2="88.8376" gradientTransform="matrix(-1 2.645256e-004 2.645256e-004 1 369.8736 16.5535)">
		<stop  offset="0" style="stop-color:#6C7880"/>
		<stop  offset="4.063693e-002" style="stop-color:#6F7B83"/>
		<stop  offset="0.3524" style="stop-color:#808F97"/>
		<stop  offset="0.6695" style="stop-color:#8A9AA2"/>
		<stop  offset="0.9972" style="stop-color:#8D9EA6"/>
	</linearGradient>
	<path display="inline" fill="url(#SVGID_17_)" d="M235.6,112.8c-6.1,11.9-11.5,13.5-25.5,12.5l-0.3-6l0,0c14.3,1.2,16-1,22.4-11.9
		L235.6,112.8z"/>
</g>
<g id="aaron">
	<g>
		
			<linearGradient id="SVGID_18_" gradientUnits="userSpaceOnUse" x1="1136.2147" y1="127.7266" x2="1136.2147" y2="118.3842" gradientTransform="matrix(-1.1361 3.971558e-002 -0.1043 1.0375 1551.8724 -37.9308)">
			<stop  offset="0" style="stop-color:#BD9661"/>
			<stop  offset="0.4058" style="stop-color:#C39B64"/>
			<stop  offset="0.9548" style="stop-color:#D4A96D"/>
			<stop  offset="0.9972" style="stop-color:#D6AA6E"/>
		</linearGradient>
		<path fill="url(#SVGID_18_)" d="M246.6,130.6c-1.8,1.6-2.4,3-1.1,6.6c1.1,2.8,2.7,3.2,4.4,1.5c2.6-2.5,1.9-3.4,1-5.6
			C250,130.9,248.3,129.1,246.6,130.6z"/>
		
			<linearGradient id="SVGID_19_" gradientUnits="userSpaceOnUse" x1="243.4366" y1="133.6418" x2="243.4366" y2="104.0098" gradientTransform="matrix(1 -3.345203e-003 3.345203e-003 1 -0.6379 2.5163)">
			<stop  offset="0" style="stop-color:#6C7880"/>
			<stop  offset="4.063693e-002" style="stop-color:#6F7B83"/>
			<stop  offset="0.3524" style="stop-color:#808F97"/>
			<stop  offset="0.6695" style="stop-color:#8A9AA2"/>
			<stop  offset="0.9972" style="stop-color:#8D9EA6"/>
		</linearGradient>
		<path fill="url(#SVGID_19_)" d="M244.9,135.3l6.1-1.9c-6.2-19-14.3-27.1-15.1-27.7l-0.5,3.9C235.4,109.7,239.9,118.3,244.9,135.3
			L244.9,135.3z"/>
	</g>
	<g>
		<path fill="#20211D" d="M248.2,166.4c-1.4,0.2-2.5-0.1-2.5-0.1s-0.1-11.9-0.8-19.6c-0.6-7.6-1.6-12.3-1.6-12.3l-15.9,0.3
			c0,0-1.1,4.4-2,11.9c-0.9,7.7-1.6,19.2-1.6,19.2s-1.1,0.4-2.5,0.1l-1.2,2.7c6.6,1.3,14.1-0.1,14.1-0.1s0.1-10.1,0.9-24
			c0.3,13.9,0,24,0,24s7.5,1.7,14.1,0.6L248.2,166.4z"/>
		
			<linearGradient id="SVGID_20_" gradientUnits="userSpaceOnUse" x1="238.0371" y1="145.7528" x2="222.6733" y2="119.1418" gradientTransform="matrix(0.9998 1.853788e-002 -1.853788e-002 0.9998 5.0964 -13.1973)">
			<stop  offset="0" style="stop-color:#6C7880"/>
			<stop  offset="4.063693e-002" style="stop-color:#6F7B83"/>
			<stop  offset="0.3524" style="stop-color:#808F97"/>
			<stop  offset="0.6695" style="stop-color:#8A9AA2"/>
			<stop  offset="0.9972" style="stop-color:#8D9EA6"/>
		</linearGradient>
		<path fill="url(#SVGID_20_)" d="M235.2,104.7l-2.9,2.8c-1.4,9.2-3.2,21.1-5.3,28.5l16.7-0.8C241.2,111,235.2,104.7,235.2,104.7z"
			/>
		
			<linearGradient id="SVGID_21_" gradientUnits="userSpaceOnUse" x1="231.0516" y1="130.0327" x2="233.7515" y2="130.0327" gradientTransform="matrix(0.9998 1.853788e-002 -1.853788e-002 0.9998 5.0964 -13.1973)">
			<stop  offset="0" style="stop-color:#212121"/>
			<stop  offset="0.2515" style="stop-color:#242424"/>
			<stop  offset="0.9972" style="stop-color:#282828"/>
		</linearGradient>
		<path fill="url(#SVGID_21_)" d="M234.2,108.7c0,0.2,0,19.2-0.8,24.6l2.7,0.1c0.1-14.2-0.6-24.3-0.6-24.6L234.2,108.7z"/>
		
			<linearGradient id="SVGID_22_" gradientUnits="userSpaceOnUse" x1="230.544" y1="116.9006" x2="230.2891" y2="103.1566" gradientTransform="matrix(0.9998 1.853788e-002 -1.853788e-002 0.9998 5.0964 -13.1973)">
			<stop  offset="0" style="stop-color:#B5905D"/>
			<stop  offset="0.5079" style="stop-color:#C89F67"/>
			<stop  offset="0.9972" style="stop-color:#D6AA6E"/>
		</linearGradient>
		<path fill="url(#SVGID_22_)" d="M236.6,96.2c-1.4-0.3-2.2,0.7-3.7,0.9c-1.3,0.1-2.5,0.9-3.7,1.3c-0.1,0-0.2,0.1-0.2,0.1
			c-0.3,2.8,0.4,7,1.4,8.2c1.8,1.4,6.6,1.3,6.8,1c0.2-0.4,1.1-5.4,0.9-9.2C237.7,97.4,237.2,96.4,236.6,96.2z"/>
		<path fill="#44473D" d="M229.5,96.1c-0.3,0.5-0.5,1.4-0.7,2.5c0.1,0,0.1-0.1,0.2-0.1c1.2-0.5,2.4-1.2,3.7-1.3
			c1.6-0.2,2.4-1.2,3.7-0.9c0.6,0.2,1.1,1.2,1.5,2.3c-0.1-1.3-0.2-2.4-0.6-3C235.9,93.1,230.7,94.3,229.5,96.1z"/>
	</g>
</g>
<g id="mesa" display="none">
	
		<linearGradient id="SVGID_23_" gradientUnits="userSpaceOnUse" x1="183.5333" y1="196.7464" x2="183.5333" y2="171.4964" gradientTransform="matrix(1 0 0 -1 0 341.75)">
		<stop  offset="0" style="stop-color:#191919"/>
		<stop  offset="2.240006e-002" style="stop-color:#1A1A1A"/>
		<stop  offset="1" style="stop-color:#423E35"/>
	</linearGradient>
	<rect x="181.5" y="145" display="inline" fill="url(#SVGID_23_)" width="4" height="25.3"/>
	
		<linearGradient id="SVGID_24_" gradientUnits="userSpaceOnUse" x1="230.0333" y1="196.7464" x2="230.0333" y2="171.4964" gradientTransform="matrix(1 0 0 -1 0 341.75)">
		<stop  offset="0" style="stop-color:#191919"/>
		<stop  offset="2.240006e-002" style="stop-color:#1A1A1A"/>
		<stop  offset="1" style="stop-color:#423E35"/>
	</linearGradient>
	<rect x="228" y="145" display="inline" fill="url(#SVGID_24_)" width="4" height="25.3"/>
	
		<linearGradient id="SVGID_25_" gradientUnits="userSpaceOnUse" x1="205.7664" y1="209.2672" x2="206.2427" y2="195.6275" gradientTransform="matrix(1 0 0.4441 -1 -88.4225 341.75)">
		<stop  offset="0" style="stop-color:#423E35"/>
		<stop  offset="0.9776" style="stop-color:#1A1A1A"/>
		<stop  offset="1" style="stop-color:#191919"/>
	</linearGradient>
	<polygon display="inline" fill="url(#SVGID_25_)" points="168.5,145 179,133.6 246.5,133.6 237.2,145 	"/>
</g>
<g id="dentrobox" display="none">
	
		<linearGradient id="SVGID_26_" gradientUnits="userSpaceOnUse" x1="206.3334" y1="208.0117" x2="206.5657" y2="201.3593" gradientTransform="matrix(1 0 0.4441 -1 -88.4225 341.75)">
		<stop  offset="0" style="stop-color:#CCCCCC"/>
		<stop  offset="1" style="stop-color:#4D4D4D"/>
	</linearGradient>
	<polygon display="inline" fill="url(#SVGID_26_)" points="192.6,139.9 197,134.2 225.2,134.2 221.4,139.9 	"/>
	<g display="inline">
		<linearGradient id="SVGID_27_" gradientUnits="userSpaceOnUse" x1="210" y1="137.8592" x2="210" y2="133">
			<stop  offset="0" style="stop-color:#4D4D4D"/>
			<stop  offset="1" style="stop-color:#CCCCCC"/>
		</linearGradient>
		<path fill="url(#SVGID_27_)" d="M197,133v2.4c0,0,4.6,2.4,12.5,2.4c7.9,0,13.5-2.4,13.5-2.4V133"/>
		<g>
			<linearGradient id="SVGID_28_" gradientUnits="userSpaceOnUse" x1="210.0087" y1="136.586" x2="210.0087" y2="130.139">
				<stop  offset="0" style="stop-color:#4D4D4D"/>
				<stop  offset="1" style="stop-color:#CCCCCC"/>
			</linearGradient>
			<path fill="url(#SVGID_28_)" d="M223,133.4c0,1.8-5.9,3.2-13.2,3.2s-12.8-1.4-12.8-3.2s5.5-3.2,12.8-3.2S223,131.6,223,133.4z"/>
			<g>
				
					<linearGradient id="SVGID_29_" gradientUnits="userSpaceOnUse" x1="246.6167" y1="123.4799" x2="250.6361" y2="116.518" gradientTransform="matrix(0.9371 0.3492 -0.3492 0.9371 24.9202 -70.2445)">
					<stop  offset="0" style="stop-color:#4D4D4D"/>
					<stop  offset="1" style="stop-color:#CCCCCC"/>
				</linearGradient>
				<polygon fill="url(#SVGID_29_)" points="220.6,131.9 215.2,134.4 211.4,126.1 216.8,123.7 				"/>
				<polygon fill="#999999" points="218.1,126.7 215.7,128.4 212.8,129.2 211.9,127.3 214.7,126.5 217.3,124.8 				"/>
				<polygon fill="#999999" points="219.8,130.1 217.3,131.9 214.4,132.6 213.5,130.7 216.3,130 218.9,128.3 				"/>
				<g>
					
						<ellipse transform="matrix(0.4157 0.9095 -0.9095 0.4157 238.3301 -121.6735)" fill="#999999" cx="213.9" cy="124.7" rx="0.8" ry="3.5"/>
					<path fill="#CCCCCC" d="M210.8,126.4c-0.1,0-0.2-0.1-0.2-0.2c-0.3-0.6,1.3-1.6,2.9-2.4c1.5-0.7,3-1,3.5-0.8
						c0.1,0,0.2,0.1,0.2,0.2c0.3,0.6-1.3,1.6-2.9,2.4C212.7,126.2,211.3,126.6,210.8,126.4z M216.9,123.1c-0.4-0.2-1.7,0.1-3.3,0.8
						c-1.9,0.9-2.9,1.8-2.8,2.1c0,0,0,0.1,0.1,0.1c0.4,0.2,1.7-0.1,3.3-0.8c1.9-0.9,2.9-1.8,2.8-2.1
						C217,123.2,216.9,123.2,216.9,123.1z"/>
				</g>
				<g>
					
						<ellipse transform="matrix(0.4157 0.9095 -0.9095 0.4157 237.7702 -121.8182)" fill="#999999" cx="213.7" cy="124.1" rx="0.7" ry="3.5"/>
					<path fill="#CCCCCC" d="M210.6,125.8c-0.1,0-0.2-0.1-0.2-0.2c-0.1-0.2,0.1-0.6,0.8-1c0.6-0.4,1.3-0.9,2.2-1.2
						c1.6-0.7,3-1.1,3.5-0.9c0.1,0,0.2,0.1,0.2,0.2c0.3,0.6-1.6,1.7-3,2.3C212.5,125.6,211,126,210.6,125.8z M216.8,122.7
						c-0.4-0.1-1.6,0.1-3.3,0.9c-0.9,0.4-1.6,0.8-2.2,1.2c-0.6,0.5-0.7,0.7-0.7,0.8c0,0,0,0,0.1,0c0.4,0.1,1.6-0.1,3.3-0.9
						C216,123.8,216.9,122.9,216.8,122.7C216.8,122.7,216.8,122.7,216.8,122.7z"/>
				</g>
			</g>
			<g>
				
					<linearGradient id="SVGID_30_" gradientUnits="userSpaceOnUse" x1="170.1661" y1="139.2789" x2="174.1856" y2="132.317" gradientTransform="matrix(-0.9467 0.3222 0.3222 0.9467 322.4167 -55.1476)">
					<stop  offset="0" style="stop-color:#4D4D4D"/>
					<stop  offset="1" style="stop-color:#CCCCCC"/>
				</linearGradient>
				<polygon fill="url(#SVGID_30_)" points="198.5,131.7 203.8,134.3 207.8,126.1 202.5,123.5 				"/>
				<polygon fill="#999999" points="201.1,126.5 203.4,128.3 206.4,129.1 207.3,127.3 204.5,126.4 202,124.7 				"/>
				<polygon fill="#999999" points="199.4,129.9 201.8,131.7 204.7,132.5 205.6,130.6 202.8,129.8 200.3,128 				"/>
				<g>
					
						<ellipse transform="matrix(-0.4416 0.8972 -0.8972 -0.4416 407.9187 -4.7206)" fill="#999999" cx="205.4" cy="124.6" rx="0.8" ry="3.5"/>
					<path fill="#CCCCCC" d="M205,125.4c-1.6-0.8-3.1-1.9-2.9-2.5c0-0.1,0.1-0.2,0.2-0.2c0.5-0.2,2,0.2,3.5,0.9
						c1.6,0.8,3.1,1.9,2.9,2.5c0,0.1-0.1,0.2-0.2,0.2C207.9,126.6,206.5,126.2,205,125.4z M202.3,123.1c-0.1,0.3,0.9,1.2,2.8,2.2
						c1.6,0.8,2.9,1.1,3.3,0.9c0.1,0,0.1,0,0.1-0.1c0.1-0.3-0.9-1.2-2.8-2.2c-1.6-0.8-2.9-1.1-3.3-0.9
						C202.4,123,202.4,123,202.3,123.1z"/>
				</g>
				<g>
					
						<ellipse transform="matrix(-0.4416 0.8972 -0.8972 -0.4416 407.7294 -5.6089)" fill="#999999" cx="205.6" cy="124.1" rx="0.7" ry="3.5"/>
					<path fill="#CCCCCC" d="M205.2,124.8c-1.3-0.6-3.2-1.8-2.9-2.4c0-0.1,0.1-0.1,0.2-0.2c0.5-0.2,1.9,0.3,3.5,1
						c0.9,0.4,1.6,0.9,2.2,1.3c0.6,0.5,0.9,0.8,0.7,1.1c0,0.1-0.1,0.1-0.2,0.2C208.2,126,206.8,125.6,205.2,124.8z M202.5,122.6
						c-0.1,0.2,0.8,1.1,2.8,2.1c1.7,0.8,2.9,1.1,3.3,1c0,0,0.1,0,0.1,0c0-0.1-0.1-0.3-0.7-0.8c-0.5-0.4-1.3-0.9-2.1-1.3
						C204.2,122.7,203,122.4,202.5,122.6C202.6,122.5,202.5,122.5,202.5,122.6z"/>
				</g>
			</g>
			<g>
				
					<linearGradient id="SVGID_31_" gradientUnits="userSpaceOnUse" x1="188.0657" y1="151.1077" x2="192.5276" y2="143.3794" gradientTransform="matrix(-0.6781 0.7349 0.7349 0.6781 230.4676 -108.9916)">
					<stop  offset="0" style="stop-color:#4D4D4D"/>
					<stop  offset="1" style="stop-color:#CCCCCC"/>
				</linearGradient>
				<polygon fill="url(#SVGID_31_)" points="206.5,135.4 213.2,135.2 212.8,126 206.1,126.2 				"/>
				<polygon fill="#999999" points="206.3,129.6 209.6,130.1 213,129.4 212.9,127.3 209.6,127.9 206.2,127.5 				"/>
				<polygon fill="#999999" points="206.4,133.5 209.8,133.9 213.1,133.2 213,131.1 209.8,131.8 206.3,131.4 				"/>
				<g>
					<path fill="#999999" d="M209.6,126.7c2.2-0.1,4-0.5,4-1c0-0.5-1.9-0.8-4.1-0.7s-4,0.5-4,1S207.4,126.7,209.6,126.7z"/>
					<path fill="#CCCCCC" d="M209.6,126.8c-2.1,0.1-4.2-0.2-4.2-0.8c0-0.1,0-0.2,0.1-0.3c0.4-0.4,2.1-0.8,4-0.8
						c2.1-0.1,4.2,0.2,4.2,0.8c0,0.1,0,0.2-0.1,0.3C213.2,126.4,211.5,126.7,209.6,126.8z M205.6,125.9c0,0.3,1.5,0.7,3.9,0.6
						c2.1-0.1,3.5-0.4,3.8-0.8c0,0,0.1-0.1,0.1-0.1c0-0.3-1.5-0.7-3.9-0.6c-2.1,0.1-3.5,0.4-3.8,0.8
						C205.7,125.9,205.6,125.9,205.6,125.9z"/>
				</g>
				<g>
					<path fill="#999999" d="M209.5,126c2.2-0.1,4-0.5,4-0.9s-1.8-0.7-4.1-0.6s-4,0.5-4,0.9S207.3,126.1,209.5,126z"/>
					<path fill="#CCCCCC" d="M209.5,126.1c-1.7,0.1-4.2-0.1-4.2-0.7c0-0.1,0-0.2,0.1-0.2c0.4-0.4,2.1-0.7,4-0.8c1.1,0,2.1,0,2.9,0.1
						c0.9,0.1,1.3,0.3,1.3,0.6c0,0.1,0,0.2-0.1,0.2C213.1,125.7,211.5,126.1,209.5,126.1z M205.6,125.4c0,0.2,1.4,0.6,3.9,0.5
						c2.1-0.1,3.6-0.4,3.8-0.7c0,0,0,0,0-0.1c0-0.1-0.2-0.2-1.1-0.4c-0.8-0.1-1.8-0.2-2.8-0.1C207.3,124.7,205.9,125.1,205.6,125.4
						C205.6,125.4,205.6,125.4,205.6,125.4z"/>
				</g>
			</g>
		</g>
		<path fill="none" stroke="#B3B3B3" stroke-width="0.5" stroke-miterlimit="10" d="M202.6,128.2c0,0-1.2-0.4-1.2-1.5
			c0-1.2-0.7-1.4-1.5-1.1c-0.8,0.3-4.4,1.4-2.5,3c1.9,1.6,2,1.9,1.1,2.5c-0.9,0.6-0.9,1.7,1.4,2"/>
		<path fill="none" stroke="#B3B3B3" stroke-width="0.5" stroke-miterlimit="10" d="M217.8,127.6c0,0,1,1.1,1.8,0.6
			c0.8-0.5,1.4,0.1,1.8,1.1c0.4,1,2,5.3-0.3,3.9s-2.7-1.3-2.4-0.1c0.3,1.2-0.5,1.7-2.3-0.6"/>
		<path fill="none" stroke="#B3B3B3" stroke-width="0.5" stroke-miterlimit="10" d="M202.3,131.2c0.5,1,2.4,5.5,5.1,3.1
			c2.7-2.4,3.3-2.5,4.2-1.3s3,1.2,3.5-1.7"/>
	</g>
	<radialGradient id="SVGID_32_" cx="196.5338" cy="138.3831" r="0.5459" gradientUnits="userSpaceOnUse">
		<stop  offset="0" style="stop-color:#4D4D4D"/>
		<stop  offset="1" style="stop-color:#CCCCCC"/>
	</radialGradient>
	<circle display="inline" fill="url(#SVGID_32_)" cx="196.5" cy="138.4" r="0.5"/>
	<radialGradient id="SVGID_33_" cx="219.5338" cy="138.3831" r="0.5459" gradientUnits="userSpaceOnUse">
		<stop  offset="0" style="stop-color:#4D4D4D"/>
		<stop  offset="1" style="stop-color:#CCCCCC"/>
	</radialGradient>
	<circle display="inline" fill="url(#SVGID_33_)" cx="219.5" cy="138.4" r="0.5"/>
</g>
<g id="metalbox" display="none">
	<g display="inline">
		<g>
			<linearGradient id="SVGID_34_" gradientUnits="userSpaceOnUse" x1="191.2691" y1="137.8847" x2="226.6328" y2="102.521">
				<stop  offset="0" style="stop-color:#4D4D4D"/>
				<stop  offset="1" style="stop-color:#CCCCCC"/>
			</linearGradient>
			<rect x="191.9" y="101.9" fill="url(#SVGID_34_)" width="34.1" height="36.6"/>
			<linearGradient id="SVGID_35_" gradientUnits="userSpaceOnUse" x1="191.9097" y1="141.7808" x2="191.9097" y2="97.8716">
				<stop  offset="0" style="stop-color:#191919"/>
				<stop  offset="1" style="stop-color:#998675"/>
			</linearGradient>
			<rect x="190.9" y="97.9" fill="url(#SVGID_35_)" width="2" height="43.9"/>
			<linearGradient id="SVGID_36_" gradientUnits="userSpaceOnUse" x1="225.9922" y1="141.7808" x2="225.9922" y2="97.8716">
				<stop  offset="0" style="stop-color:#191919"/>
				<stop  offset="1" style="stop-color:#998675"/>
			</linearGradient>
			<rect x="225" y="97.9" fill="url(#SVGID_36_)" width="2" height="43.9"/>
			
				<linearGradient id="SVGID_37_" gradientUnits="userSpaceOnUse" x1="241.1013" y1="157.5825" x2="238.6447" y2="157.5825" gradientTransform="matrix(4.489659e-011 1 -1 4.489659e-011 366.7124 -101.098)">
				<stop  offset="0" style="stop-color:#191919"/>
				<stop  offset="1" style="stop-color:#7A6B5D"/>
			</linearGradient>
			<rect x="189.8" y="137.5" fill="url(#SVGID_37_)" width="38.6" height="2.5"/>
		</g>
		<radialGradient id="SVGID_38_" cx="199.5338" cy="111.3831" r="0.5459" gradientUnits="userSpaceOnUse">
			<stop  offset="0" style="stop-color:#4D4D4D"/>
			<stop  offset="1" style="stop-color:#CCCCCC"/>
		</radialGradient>
		<circle fill="url(#SVGID_38_)" cx="199.5" cy="111.4" r="0.5"/>
		<radialGradient id="SVGID_39_" cx="217.5492" cy="111.3831" r="0.5459" gradientUnits="userSpaceOnUse">
			<stop  offset="0" style="stop-color:#4D4D4D"/>
			<stop  offset="1" style="stop-color:#CCCCCC"/>
		</radialGradient>
		<circle fill="url(#SVGID_39_)" cx="217.5" cy="111.4" r="0.5"/>
		<radialGradient id="SVGID_40_" cx="199.5338" cy="129.3985" r="0.5459" gradientUnits="userSpaceOnUse">
			<stop  offset="0" style="stop-color:#4D4D4D"/>
			<stop  offset="1" style="stop-color:#CCCCCC"/>
		</radialGradient>
		<circle fill="url(#SVGID_40_)" cx="199.5" cy="129.4" r="0.5"/>
		<radialGradient id="SVGID_41_" cx="217.5492" cy="129.3985" r="0.5459" gradientUnits="userSpaceOnUse">
			<stop  offset="0" style="stop-color:#4D4D4D"/>
			<stop  offset="1" style="stop-color:#CCCCCC"/>
		</radialGradient>
		<circle fill="url(#SVGID_41_)" cx="217.5" cy="129.4" r="0.5"/>
		<radialGradient id="SVGID_42_" cx="209.13" cy="120.9792" r="2.8873" gradientUnits="userSpaceOnUse">
			<stop  offset="0" style="stop-color:#4D4D4D"/>
			<stop  offset="1" style="stop-color:#CCCCCC"/>
		</radialGradient>
		<circle opacity="0.31" fill="url(#SVGID_42_)" cx="209.1" cy="121" r="2.9"/>
	</g>
	<linearGradient id="SVGID_43_" gradientUnits="userSpaceOnUse" x1="186.7883" y1="140" x2="186.7883" y2="116.3109">
		<stop  offset="0" style="stop-color:#191919"/>
		<stop  offset="1" style="stop-color:#7A6B5D"/>
	</linearGradient>
	<path display="inline" fill="url(#SVGID_43_)" d="M183.7,140c-0.5,0-0.8,0-1-0.3c-0.4-0.9,1.3-2.6,1.7-2.9l2-2.9
		c0.8-0.6,2-1.8,1.8-2.5c-0.1-0.3-0.4-0.5-0.9-0.6c-1.4-0.3-2.3-1.6-2.6-3.4c-0.2-1.2,0-2.7,0.5-3c0.5-0.3,1.7-3.8,1.1-6.2
		c-0.2-0.6-0.1-1,0.3-1.3c0.9-0.8,3.2,0.1,3.5,0.2l-0.2,0.5c-0.9-0.3-2.5-0.7-2.9-0.3c-0.2,0.2-0.2,0.4-0.1,0.8
		c0.6,2.5-0.5,6.4-1.3,6.8c-0.2,0.1-0.5,1.4-0.2,2.8c0.2,0.9,0.7,2.3,2.1,2.7c0.8,0.2,1.2,0.5,1.3,1c0.3,1.2-1.6,2.8-2,3l-2,2.9
		c-0.9,0.9-1.7,2.2-1.6,2.6C183.2,139.9,183.5,140,183.7,140C183.7,140,183.7,140,183.7,140c2,0,4.7-3.2,4.7-3.2l0.1-0.2l2.5,0.2
		l-0.1,0.5l-2.2-0.4C188.1,137.6,185.7,140,183.7,140C183.7,140,183.7,140,183.7,140z"/>
	<rect x="189.4" y="110.3" display="inline" fill="#332D2A" width="1.5" height="8"/>
	<g display="inline">
		<rect x="227" y="107.3" fill="#4D4D4D" width="0.9" height="3"/>
		<rect x="227" y="129.9" fill="#4D4D4D" width="0.9" height="3"/>
	</g>
</g>
</svg>
