<?xml version="1.0" encoding="utf-8"?>
<!-- Generator: Adobe Illustrator 18.0.0, SVG Export Plug-In . SVG Version: 6.00 Build 0)  -->
<!DOCTYPE svg PUBLIC "-//W3C//DTD SVG 1.1//EN" "http://www.w3.org/Graphics/SVG/1.1/DTD/svg11.dtd" [
	<!ENTITY ns_extend "http://ns.adobe.com/Extensibility/1.0/">
	<!ENTITY ns_ai "http://ns.adobe.com/AdobeIllustrator/10.0/">
	<!ENTITY ns_graphs "http://ns.adobe.com/Graphs/1.0/">
	<!ENTITY ns_vars "http://ns.adobe.com/Variables/1.0/">
	<!ENTITY ns_imrep "http://ns.adobe.com/ImageReplacement/1.0/">
	<!ENTITY ns_sfw "http://ns.adobe.com/SaveForWeb/1.0/">
	<!ENTITY ns_custom "http://ns.adobe.com/GenericCustomNamespace/1.0/">
	<!ENTITY ns_adobe_xpath "http://ns.adobe.com/XPath/1.0/">
]>
<svg version="1.1" id="Layer_1" xmlns:x="&ns_extend;" xmlns:i="&ns_ai;" xmlns:graph="&ns_graphs;"
	 xmlns="http://www.w3.org/2000/svg" xmlns:xlink="http://www.w3.org/1999/xlink" x="0px" y="0px" viewBox="0 0 600 200"
	 enable-background="new 0 0 600 200" xml:space="preserve">
<metadata>
	<sfw  xmlns="&ns_sfw;">
		<slices></slices>
		<sliceSourceBounds  width="909.5" height="495.2" y="-637.8" x="-51.6" bottomLeftOrigin="true"></sliceSourceBounds>
	</sfw>
</metadata>
<rect x="-151.6" y="-132.5" display="none" fill="#191919" width="909.5" height="470.3"/>
<g id="aaron-fora" display="none">
	
		<linearGradient id="SVGID_1_" gradientUnits="userSpaceOnUse" x1="357.6953" y1="106.0712" x2="357.6953" y2="96.7308" gradientTransform="matrix(1.1367 -1.138956e-002 0.1508 1.0318 -148.5949 0.749)">
		<stop  offset="0" style="stop-color:#BD9661"/>
		<stop  offset="0.4058" style="stop-color:#C39B64"/>
		<stop  offset="0.9548" style="stop-color:#D4A96D"/>
		<stop  offset="0.9972" style="stop-color:#D6AA6E"/>
	</linearGradient>
	<path display="inline" fill="url(#SVGID_1_)" d="M274.8,97c1.9,1.5,2.6,2.9,1.4,6.5c-1,2.8-2.6,3.3-4.4,1.7c-2.7-2.4-2-3.3-1.2-5.6
		S273,95.5,274.8,97z"/>
	
		<linearGradient id="SVGID_2_" gradientUnits="userSpaceOnUse" x1="270.7057" y1="125.27" x2="270.7057" y2="94.927" gradientTransform="matrix(0.999 4.401876e-002 -4.401876e-002 0.999 12.2932 -35.4381)">
		<stop  offset="0" style="stop-color:#6C7880"/>
		<stop  offset="4.063693e-002" style="stop-color:#6F7B83"/>
		<stop  offset="0.3524" style="stop-color:#808F97"/>
		<stop  offset="0.6695" style="stop-color:#8A9AA2"/>
		<stop  offset="0.9972" style="stop-color:#8D9EA6"/>
	</linearGradient>
	<path display="inline" fill="url(#SVGID_2_)" d="M276.6,101.6c4.4-17.3,8.6-26.1,8.6-26.1l-0.7-3.9c-0.8,0.6-8.6,9.1-14.1,28.4
		L276.6,101.6L276.6,101.6z"/>
	<path display="inline" fill="#20211D" d="M299.2,131.9c-1.4,0.2-2.5-0.1-2.5-0.1s-0.1-11.9-0.8-19.6c-0.6-7.6-1.6-12.3-1.6-12.3
		l-15.9,0.3c0,0-1.1,4.4-2,11.9c-0.9,7.7-1.6,19.2-1.6,19.2s-1.1,0.4-2.5,0.1l-1.2,2.7c6.6,1.3,14.1-0.1,14.1-0.1s0.1-10.1,0.9-24
		c0.3,13.9,0,24,0,24s7.5,1.7,14.1,0.6L299.2,131.9z"/>
	
		<linearGradient id="SVGID_3_" gradientUnits="userSpaceOnUse" x1="288.406" y1="112.1671" x2="273.0421" y2="85.5561" gradientTransform="matrix(0.9998 1.853788e-002 -1.853788e-002 0.9998 5.1136 -15.0511)">
		<stop  offset="0" style="stop-color:#6C7880"/>
		<stop  offset="4.063693e-002" style="stop-color:#6F7B83"/>
		<stop  offset="0.3524" style="stop-color:#808F97"/>
		<stop  offset="0.6695" style="stop-color:#8A9AA2"/>
		<stop  offset="0.9972" style="stop-color:#8D9EA6"/>
	</linearGradient>
	<path display="inline" fill="url(#SVGID_3_)" d="M286.2,70.2l-2.9,2.8c-1.4,9.2-3.2,21.1-5.3,28.5l16.7-0.8
		C292.2,76.5,286.2,70.2,286.2,70.2z"/>
	
		<linearGradient id="SVGID_4_" gradientUnits="userSpaceOnUse" x1="1282.562" y1="92.6992" x2="1282.562" y2="83.3568" gradientTransform="matrix(-1.1361 3.971558e-002 -0.1043 1.0375 1765.4784 -41.9024)">
		<stop  offset="0" style="stop-color:#BD9661"/>
		<stop  offset="0.4058" style="stop-color:#C39B64"/>
		<stop  offset="0.9548" style="stop-color:#D4A96D"/>
		<stop  offset="0.9972" style="stop-color:#D6AA6E"/>
	</linearGradient>
	<path display="inline" fill="url(#SVGID_4_)" d="M297.6,96.1c-1.8,1.6-2.4,3-1.1,6.6c1.1,2.8,2.7,3.2,4.4,1.5
		c2.6-2.5,1.9-3.4,1-5.6C301,96.4,299.3,94.6,297.6,96.1z"/>
	
		<linearGradient id="SVGID_5_" gradientUnits="userSpaceOnUse" x1="294.5522" y1="98.9781" x2="294.5522" y2="69.346" gradientTransform="matrix(1 -3.345203e-003 3.345203e-003 1 -0.6373 2.8508)">
		<stop  offset="0" style="stop-color:#6C7880"/>
		<stop  offset="4.063693e-002" style="stop-color:#6F7B83"/>
		<stop  offset="0.3524" style="stop-color:#808F97"/>
		<stop  offset="0.6695" style="stop-color:#8A9AA2"/>
		<stop  offset="0.9972" style="stop-color:#8D9EA6"/>
	</linearGradient>
	<path display="inline" fill="url(#SVGID_5_)" d="M295.9,100.8l6.1-1.9c-6.2-19-14.3-27.1-15.1-27.7l-0.5,3.9
		C286.4,75.2,290.9,83.8,295.9,100.8L295.9,100.8z"/>
	
		<linearGradient id="SVGID_6_" gradientUnits="userSpaceOnUse" x1="281.4204" y1="96.4469" x2="284.1203" y2="96.4469" gradientTransform="matrix(0.9998 1.853788e-002 -1.853788e-002 0.9998 5.1136 -15.0511)">
		<stop  offset="0" style="stop-color:#212121"/>
		<stop  offset="0.2515" style="stop-color:#242424"/>
		<stop  offset="0.9972" style="stop-color:#282828"/>
	</linearGradient>
	<path display="inline" fill="url(#SVGID_6_)" d="M285.2,74.2c0,0.2,0,19.2-0.8,24.6l2.7,0.1c0.1-14.2-0.6-24.3-0.6-24.6L285.2,74.2
		z"/>
	
		<linearGradient id="SVGID_7_" gradientUnits="userSpaceOnUse" x1="280.9128" y1="83.3149" x2="280.658" y2="69.5709" gradientTransform="matrix(0.9998 1.853788e-002 -1.853788e-002 0.9998 5.1136 -15.0511)">
		<stop  offset="0" style="stop-color:#B5905D"/>
		<stop  offset="0.5079" style="stop-color:#C89F67"/>
		<stop  offset="0.9972" style="stop-color:#D6AA6E"/>
	</linearGradient>
	<path display="inline" fill="url(#SVGID_7_)" d="M287.6,61.7c-1.4-0.3-2.2,0.7-3.7,0.9c-1.3,0.1-2.5,0.9-3.7,1.3
		c-0.1,0-0.2,0.1-0.2,0.1c-0.3,2.8,0.4,7,1.4,8.2c1.8,1.4,6.6,1.3,6.8,1c0.2-0.4,1.1-5.4,0.9-9.2C288.7,62.9,288.2,61.9,287.6,61.7z
		"/>
	<path display="inline" fill="#44473D" d="M280.5,61.6c-0.3,0.5-0.5,1.4-0.7,2.5c0.1,0,0.1-0.1,0.2-0.1c1.2-0.5,2.4-1.2,3.7-1.3
		c1.6-0.2,2.4-1.2,3.7-0.9c0.6,0.2,1.1,1.2,1.5,2.3c-0.1-1.3-0.2-2.4-0.6-3C286.9,58.6,281.7,59.8,280.5,61.6z"/>
</g>
<g id="aaron-dentro" display="none">
	
		<linearGradient id="SVGID_8_" gradientUnits="userSpaceOnUse" x1="357.6953" y1="106.0712" x2="357.6953" y2="96.7308" gradientTransform="matrix(1.1367 -1.138956e-002 0.1508 1.0318 -148.5949 0.749)">
		<stop  offset="0" style="stop-color:#BD9661"/>
		<stop  offset="0.4058" style="stop-color:#C39B64"/>
		<stop  offset="0.9548" style="stop-color:#D4A96D"/>
		<stop  offset="0.9972" style="stop-color:#D6AA6E"/>
	</linearGradient>
	<path display="inline" fill="url(#SVGID_8_)" d="M274.8,97c1.9,1.5,2.6,2.9,1.4,6.5c-1,2.8-2.6,3.3-4.4,1.7c-2.7-2.4-2-3.3-1.2-5.6
		S273,95.5,274.8,97z"/>
	
		<linearGradient id="SVGID_9_" gradientUnits="userSpaceOnUse" x1="270.7057" y1="125.27" x2="270.7057" y2="94.927" gradientTransform="matrix(0.999 4.401876e-002 -4.401876e-002 0.999 12.2932 -35.4381)">
		<stop  offset="0" style="stop-color:#6C7880"/>
		<stop  offset="4.063693e-002" style="stop-color:#6F7B83"/>
		<stop  offset="0.3524" style="stop-color:#808F97"/>
		<stop  offset="0.6695" style="stop-color:#8A9AA2"/>
		<stop  offset="0.9972" style="stop-color:#8D9EA6"/>
	</linearGradient>
	<path display="inline" fill="url(#SVGID_9_)" d="M276.6,101.6c4.4-17.3,8.6-26.1,8.6-26.1l-0.7-3.9c-0.8,0.6-8.6,9.1-14.1,28.4
		L276.6,101.6L276.6,101.6z"/>
	<path display="inline" fill="#20211D" d="M299.2,131.9c-1.4,0.2-2.5-0.1-2.5-0.1s-0.1-11.9-0.8-19.6c-0.6-7.6-1.6-12.3-1.6-12.3
		l-15.9,0.3c0,0-1.1,4.4-2,11.9c-0.9,7.7-1.6,19.2-1.6,19.2s-1.1,0.4-2.5,0.1l-1.2,2.7c6.6,1.3,14.1-0.1,14.1-0.1s0.1-10.1,0.9-24
		c0.3,13.9,0,24,0,24s7.5,1.7,14.1,0.6L299.2,131.9z"/>
	
		<linearGradient id="SVGID_10_" gradientUnits="userSpaceOnUse" x1="288.406" y1="112.1671" x2="273.0421" y2="85.5561" gradientTransform="matrix(0.9998 1.853788e-002 -1.853788e-002 0.9998 5.1136 -15.0511)">
		<stop  offset="0" style="stop-color:#6C7880"/>
		<stop  offset="4.063693e-002" style="stop-color:#6F7B83"/>
		<stop  offset="0.3524" style="stop-color:#808F97"/>
		<stop  offset="0.6695" style="stop-color:#8A9AA2"/>
		<stop  offset="0.9972" style="stop-color:#8D9EA6"/>
	</linearGradient>
	<path display="inline" fill="url(#SVGID_10_)" d="M286.2,70.2l-2.9,2.8c-1.4,9.2-3.2,21.1-5.3,28.5l16.7-0.8
		C292.2,76.5,286.2,70.2,286.2,70.2z"/>
	
		<linearGradient id="SVGID_11_" gradientUnits="userSpaceOnUse" x1="1282.562" y1="92.6992" x2="1282.562" y2="83.3568" gradientTransform="matrix(-1.1361 3.971558e-002 -0.1043 1.0375 1765.4784 -41.9024)">
		<stop  offset="0" style="stop-color:#BD9661"/>
		<stop  offset="0.4058" style="stop-color:#C39B64"/>
		<stop  offset="0.9548" style="stop-color:#D4A96D"/>
		<stop  offset="0.9972" style="stop-color:#D6AA6E"/>
	</linearGradient>
	<path display="inline" fill="url(#SVGID_11_)" d="M297.6,96.1c-1.8,1.6-2.4,3-1.1,6.6c1.1,2.8,2.7,3.2,4.4,1.5
		c2.6-2.5,1.9-3.4,1-5.6C301,96.4,299.3,94.6,297.6,96.1z"/>
	
		<linearGradient id="SVGID_12_" gradientUnits="userSpaceOnUse" x1="294.5522" y1="98.9781" x2="294.5522" y2="69.346" gradientTransform="matrix(1 -3.345203e-003 3.345203e-003 1 -0.6373 2.8508)">
		<stop  offset="0" style="stop-color:#6C7880"/>
		<stop  offset="4.063693e-002" style="stop-color:#6F7B83"/>
		<stop  offset="0.3524" style="stop-color:#808F97"/>
		<stop  offset="0.6695" style="stop-color:#8A9AA2"/>
		<stop  offset="0.9972" style="stop-color:#8D9EA6"/>
	</linearGradient>
	<path display="inline" fill="url(#SVGID_12_)" d="M295.9,100.8l6.1-1.9c-6.2-19-14.3-27.1-15.1-27.7l-0.5,3.9
		C286.4,75.2,290.9,83.8,295.9,100.8L295.9,100.8z"/>
	
		<linearGradient id="SVGID_13_" gradientUnits="userSpaceOnUse" x1="281.4204" y1="96.4469" x2="284.1203" y2="96.4469" gradientTransform="matrix(0.9998 1.853788e-002 -1.853788e-002 0.9998 5.1136 -15.0511)">
		<stop  offset="0" style="stop-color:#212121"/>
		<stop  offset="0.2515" style="stop-color:#242424"/>
		<stop  offset="0.9972" style="stop-color:#282828"/>
	</linearGradient>
	<path display="inline" fill="url(#SVGID_13_)" d="M285.2,74.2c0,0.2,0,19.2-0.8,24.6l2.7,0.1c0.1-14.2-0.6-24.3-0.6-24.6
		L285.2,74.2z"/>
	
		<linearGradient id="SVGID_14_" gradientUnits="userSpaceOnUse" x1="339.9027" y1="82.2211" x2="339.6479" y2="68.4772" gradientTransform="matrix(-0.9998 1.853788e-002 1.853788e-002 0.9998 625.7538 -15.0511)">
		<stop  offset="0" style="stop-color:#B5905D"/>
		<stop  offset="0.5079" style="stop-color:#C89F67"/>
		<stop  offset="0.9972" style="stop-color:#D6AA6E"/>
	</linearGradient>
	<path display="inline" fill="url(#SVGID_14_)" d="M284.3,61.7c1.4-0.3,2.2,0.7,3.7,0.9c1.3,0.1,2.5,0.9,3.7,1.3
		c0.1,0,0.2,0.1,0.2,0.1c0.3,2.8-0.4,7-1.4,8.2c-1.8,1.4-6.6,1.3-6.8,1s-1.1-5.4-0.9-9.2C283.2,62.9,283.7,61.9,284.3,61.7z"/>
	<path display="inline" fill="#44473D" d="M291.3,61.6c0.3,0.5,0.5,1.4,0.7,2.5c-0.1,0-0.1-0.1-0.2-0.1c-1.2-0.5-2.4-1.2-3.7-1.3
		c-1.6-0.2-2.4-1.2-3.7-0.9c-0.6,0.2-1.1,1.2-1.5,2.3c0.1-1.3,0.2-2.4,0.6-3C284.9,58.6,290.2,59.8,291.3,61.6z"/>
</g>
<g id="aaron-duplo-fora">
	<g id="Aaron">
		
			<linearGradient id="SVGID_15_" gradientUnits="userSpaceOnUse" x1="569.403" y1="108.4082" x2="569.403" y2="99.0678" gradientTransform="matrix(-1.1367 -1.138956e-002 -0.1508 1.0318 1039.1178 0.749)">
			<stop  offset="0" style="stop-color:#BD9661"/>
			<stop  offset="0.4058" style="stop-color:#C39B64"/>
			<stop  offset="0.9548" style="stop-color:#D4A96D"/>
			<stop  offset="0.9972" style="stop-color:#D6AA6E"/>
		</linearGradient>
		<path fill="url(#SVGID_15_)" d="M374.7,97c-1.9,1.5-2.6,2.9-1.4,6.5c1,2.8,2.6,3.3,4.4,1.7c2.7-2.4,2-3.3,1.2-5.6
			C378.1,97.4,376.6,95.5,374.7,97z"/>
		
			<linearGradient id="SVGID_16_" gradientUnits="userSpaceOnUse" x1="511.4721" y1="114.6615" x2="511.4721" y2="84.3185" gradientTransform="matrix(-0.999 4.401876e-002 4.401876e-002 0.999 878.2297 -35.4381)">
			<stop  offset="0" style="stop-color:#6C7880"/>
			<stop  offset="4.063693e-002" style="stop-color:#6F7B83"/>
			<stop  offset="0.3524" style="stop-color:#808F97"/>
			<stop  offset="0.6695" style="stop-color:#8A9AA2"/>
			<stop  offset="0.9972" style="stop-color:#8D9EA6"/>
		</linearGradient>
		<path fill="url(#SVGID_16_)" d="M372.9,101.6c-4.4-17.3-8.6-26.1-8.6-26.1l0.7-3.9c0.8,0.6,8.6,9.1,14.1,28.4L372.9,101.6
			L372.9,101.6z"/>
		<path fill="#20211D" d="M350.3,131.9c1.4,0.2,2.5-0.1,2.5-0.1s0.1-11.9,0.8-19.6c0.6-7.6,1.6-12.3,1.6-12.3l15.9,0.3
			c0,0,1.1,4.4,2,11.9c0.9,7.7,1.6,19.2,1.6,19.2s1.1,0.4,2.5,0.1l1.2,2.7c-6.6,1.3-14.1-0.1-14.1-0.1s-0.1-10.1-0.9-24
			c-0.3,13.9,0,24,0,24s-7.5,1.7-14.1,0.6L350.3,131.9z"/>
		
			<linearGradient id="SVGID_17_" gradientUnits="userSpaceOnUse" x1="529.3646" y1="107.6994" x2="514.0007" y2="81.0885" gradientTransform="matrix(-0.9998 1.853788e-002 1.853788e-002 0.9998 885.4093 -15.0511)">
			<stop  offset="0" style="stop-color:#6C7880"/>
			<stop  offset="4.063693e-002" style="stop-color:#6F7B83"/>
			<stop  offset="0.3524" style="stop-color:#808F97"/>
			<stop  offset="0.6695" style="stop-color:#8A9AA2"/>
			<stop  offset="0.9972" style="stop-color:#8D9EA6"/>
		</linearGradient>
		<path fill="url(#SVGID_17_)" d="M363.3,70.2l2.9,2.8c1.4,9.2,3.2,21.1,5.3,28.5l-16.7-0.8C357.4,76.5,363.3,70.2,363.3,70.2z"/>
		
			<linearGradient id="SVGID_18_" gradientUnits="userSpaceOnUse" x1="1069.6771" y1="100.8485" x2="1069.6771" y2="91.5061" gradientTransform="matrix(1.1361 3.971558e-002 0.1043 1.0375 -874.9555 -41.9024)">
			<stop  offset="0" style="stop-color:#BD9661"/>
			<stop  offset="0.4058" style="stop-color:#C39B64"/>
			<stop  offset="0.9548" style="stop-color:#D4A96D"/>
			<stop  offset="0.9972" style="stop-color:#D6AA6E"/>
		</linearGradient>
		<path fill="url(#SVGID_18_)" d="M351.9,96.1c1.8,1.6,2.4,3,1.1,6.6c-1.1,2.8-2.7,3.2-4.4,1.5c-2.6-2.5-1.9-3.4-1-5.6
			C348.6,96.4,350.2,94.6,351.9,96.1z"/>
		
			<linearGradient id="SVGID_19_" gradientUnits="userSpaceOnUse" x1="535.5509" y1="99.7843" x2="535.5509" y2="70.1522" gradientTransform="matrix(-1 -3.345203e-003 -3.345203e-003 1 891.1602 2.8508)">
			<stop  offset="0" style="stop-color:#6C7880"/>
			<stop  offset="4.063693e-002" style="stop-color:#6F7B83"/>
			<stop  offset="0.3524" style="stop-color:#808F97"/>
			<stop  offset="0.6695" style="stop-color:#8A9AA2"/>
			<stop  offset="0.9972" style="stop-color:#8D9EA6"/>
		</linearGradient>
		<path fill="url(#SVGID_19_)" d="M353.6,100.8l-6.1-1.9c6.2-19,14.3-27.1,15.1-27.7l0.5,3.9C363.1,75.2,358.6,83.8,353.6,100.8
			L353.6,100.8z"/>
		
			<linearGradient id="SVGID_20_" gradientUnits="userSpaceOnUse" x1="522.379" y1="91.9793" x2="525.0789" y2="91.9793" gradientTransform="matrix(-0.9998 1.853788e-002 1.853788e-002 0.9998 885.4093 -15.0511)">
			<stop  offset="0" style="stop-color:#212121"/>
			<stop  offset="0.2515" style="stop-color:#242424"/>
			<stop  offset="0.9972" style="stop-color:#282828"/>
		</linearGradient>
		<path fill="url(#SVGID_20_)" d="M364.3,74.2c0,0.2,0,19.2,0.8,24.6l-2.7,0.1c-0.1-14.2,0.6-24.3,0.6-24.6L364.3,74.2z"/>
		
			<linearGradient id="SVGID_21_" gradientUnits="userSpaceOnUse" x1="521.8714" y1="78.8472" x2="521.6166" y2="65.1033" gradientTransform="matrix(-0.9998 1.853788e-002 1.853788e-002 0.9998 885.4093 -15.0511)">
			<stop  offset="0" style="stop-color:#B5905D"/>
			<stop  offset="0.5079" style="stop-color:#C89F67"/>
			<stop  offset="0.9972" style="stop-color:#D6AA6E"/>
		</linearGradient>
		<path fill="url(#SVGID_21_)" d="M362,61.7c1.4-0.3,2.2,0.7,3.7,0.9c1.3,0.1,2.5,0.9,3.7,1.3c0.1,0,0.2,0.1,0.2,0.1
			c0.3,2.8-0.4,7-1.4,8.2c-1.8,1.4-6.6,1.3-6.8,1c-0.2-0.4-1.1-5.4-0.9-9.2C360.8,62.9,361.3,61.9,362,61.7z"/>
		<path fill="#44473D" d="M369,61.6c0.3,0.5,0.5,1.4,0.7,2.5c-0.1,0-0.1-0.1-0.2-0.1c-1.2-0.5-2.4-1.2-3.7-1.3
			c-1.6-0.2-2.4-1.2-3.7-0.9c-0.6,0.2-1.1,1.2-1.5,2.3c0.1-1.3,0.2-2.4,0.6-3C362.6,58.6,367.8,59.8,369,61.6z"/>
	</g>
	<g id="Aaron_3_" opacity="0.4">
		<path fill="#FFFFFF" d="M374.7,97c-1.9,1.5-2.6,2.9-1.4,6.5c1,2.8,2.6,3.3,4.4,1.7c2.7-2.4,2-3.3,1.2-5.6
			C378.1,97.4,376.6,95.5,374.7,97z"/>
		<path fill="#FFFFFF" d="M372.9,101.6c-4.4-17.3-8.6-26.1-8.6-26.1l0.7-3.9c0.8,0.6,8.6,9.1,14.1,28.4L372.9,101.6L372.9,101.6z"/>
		<path fill="#FFFFFF" d="M350.3,131.9c1.4,0.2,2.5-0.1,2.5-0.1s0.1-11.9,0.8-19.6c0.6-7.6,1.6-12.3,1.6-12.3l15.9,0.3
			c0,0,1.1,4.4,2,11.9c0.9,7.7,1.6,19.2,1.6,19.2s1.1,0.4,2.5,0.1l1.2,2.7c-6.6,1.3-14.1-0.1-14.1-0.1s-0.1-10.1-0.9-24
			c-0.3,13.9,0,24,0,24s-7.5,1.7-14.1,0.6L350.3,131.9z"/>
		<path fill="#FFFFFF" d="M363.3,70.2l2.9,2.8c1.4,9.2,3.2,21.1,5.3,28.5l-16.7-0.8C357.4,76.5,363.3,70.2,363.3,70.2z"/>
		<path fill="#FFFFFF" d="M351.9,96.1c1.8,1.6,2.4,3,1.1,6.6c-1.1,2.8-2.7,3.2-4.4,1.5c-2.6-2.5-1.9-3.4-1-5.6
			C348.6,96.4,350.2,94.6,351.9,96.1z"/>
		<path fill="#FFFFFF" d="M353.6,100.8l-6.1-1.9c6.2-19,14.3-27.1,15.1-27.7l0.5,3.9C363.1,75.2,358.6,83.8,353.6,100.8L353.6,100.8
			z"/>
		<path fill="#FFFFFF" d="M364.3,74.2c0,0.2,0,19.2,0.8,24.6l-2.7,0.1c-0.1-14.2,0.6-24.3,0.6-24.6L364.3,74.2z"/>
		<path fill="#FFFFFF" d="M362,61.7c1.4-0.3,2.2,0.7,3.7,0.9c1.3,0.1,2.5,0.9,3.7,1.3c0.1,0,0.2,0.1,0.2,0.1c0.3,2.8-0.4,7-1.4,8.2
			c-1.8,1.4-6.6,1.3-6.8,1c-0.2-0.4-1.1-5.4-0.9-9.2C360.8,62.9,361.3,61.9,362,61.7z"/>
		<path fill="#FFFFFF" d="M369,61.6c0.3,0.5,0.5,1.4,0.7,2.5c-0.1,0-0.1-0.1-0.2-0.1c-1.2-0.5-2.4-1.2-3.7-1.3
			c-1.6-0.2-2.4-1.2-3.7-0.9c-0.6,0.2-1.1,1.2-1.5,2.3c0.1-1.3,0.2-2.4,0.6-3C362.6,58.6,367.8,59.8,369,61.6z"/>
	</g>
</g>
<g id="aaron-duplo-dentro" display="none">
	<g display="inline">
		
			<linearGradient id="SVGID_22_" gradientUnits="userSpaceOnUse" x1="567.6461" y1="108.3888" x2="567.6461" y2="99.0485" gradientTransform="matrix(-1.1367 -1.138956e-002 -0.1508 1.0318 1037.1178 0.749)">
			<stop  offset="0" style="stop-color:#BD9661"/>
			<stop  offset="0.4058" style="stop-color:#C39B64"/>
			<stop  offset="0.9548" style="stop-color:#D4A96D"/>
			<stop  offset="0.9972" style="stop-color:#D6AA6E"/>
		</linearGradient>
		<path fill="url(#SVGID_22_)" d="M374.7,97c-1.9,1.5-2.6,2.9-1.4,6.5c1,2.8,2.6,3.3,4.4,1.7c2.7-2.4,2-3.3,1.2-5.6
			C378.1,97.4,376.6,95.5,374.7,97z"/>
		
			<linearGradient id="SVGID_23_" gradientUnits="userSpaceOnUse" x1="509.474" y1="114.7495" x2="509.474" y2="84.4065" gradientTransform="matrix(-0.999 4.401876e-002 4.401876e-002 0.999 876.2297 -35.4381)">
			<stop  offset="0" style="stop-color:#6C7880"/>
			<stop  offset="4.063693e-002" style="stop-color:#6F7B83"/>
			<stop  offset="0.3524" style="stop-color:#808F97"/>
			<stop  offset="0.6695" style="stop-color:#8A9AA2"/>
			<stop  offset="0.9972" style="stop-color:#8D9EA6"/>
		</linearGradient>
		<path fill="url(#SVGID_23_)" d="M372.9,101.6c-4.4-17.3-8.6-26.1-8.6-26.1l0.7-3.9c0.8,0.6,8.6,9.1,14.1,28.4L372.9,101.6
			L372.9,101.6z"/>
		<path fill="#20211D" d="M350.3,131.9c1.4,0.2,2.5-0.1,2.5-0.1s0.1-11.9,0.8-19.6c0.6-7.6,1.6-12.3,1.6-12.3l15.9,0.3
			c0,0,1.1,4.4,2,11.9c0.9,7.7,1.6,19.2,1.6,19.2s1.1,0.4,2.5,0.1l1.2,2.7c-6.6,1.3-14.1-0.1-14.1-0.1s-0.1-10.1-0.9-24
			c-0.3,13.9,0,24,0,24s-7.5,1.7-14.1,0.6L350.3,131.9z"/>
		
			<linearGradient id="SVGID_24_" gradientUnits="userSpaceOnUse" x1="527.3649" y1="107.7365" x2="512.0011" y2="81.1255" gradientTransform="matrix(-0.9998 1.853788e-002 1.853788e-002 0.9998 883.4093 -15.0511)">
			<stop  offset="0" style="stop-color:#6C7880"/>
			<stop  offset="4.063693e-002" style="stop-color:#6F7B83"/>
			<stop  offset="0.3524" style="stop-color:#808F97"/>
			<stop  offset="0.6695" style="stop-color:#8A9AA2"/>
			<stop  offset="0.9972" style="stop-color:#8D9EA6"/>
		</linearGradient>
		<path fill="url(#SVGID_24_)" d="M363.3,70.2l2.9,2.8c1.4,9.2,3.2,21.1,5.3,28.5l-16.7-0.8C357.4,76.5,363.3,70.2,363.3,70.2z"/>
		
			<linearGradient id="SVGID_25_" gradientUnits="userSpaceOnUse" x1="1071.4438" y1="100.7809" x2="1071.4438" y2="91.4385" gradientTransform="matrix(1.1361 3.971558e-002 0.1043 1.0375 -876.9555 -41.9024)">
			<stop  offset="0" style="stop-color:#BD9661"/>
			<stop  offset="0.4058" style="stop-color:#C39B64"/>
			<stop  offset="0.9548" style="stop-color:#D4A96D"/>
			<stop  offset="0.9972" style="stop-color:#D6AA6E"/>
		</linearGradient>
		<path fill="url(#SVGID_25_)" d="M351.9,96.1c1.8,1.6,2.4,3,1.1,6.6c-1.1,2.8-2.7,3.2-4.4,1.5c-2.6-2.5-1.9-3.4-1-5.6
			C348.6,96.4,350.2,94.6,351.9,96.1z"/>
		
			<linearGradient id="SVGID_26_" gradientUnits="userSpaceOnUse" x1="533.5509" y1="99.7776" x2="533.5509" y2="70.1455" gradientTransform="matrix(-1 -3.345203e-003 -3.345203e-003 1 889.1602 2.8508)">
			<stop  offset="0" style="stop-color:#6C7880"/>
			<stop  offset="4.063693e-002" style="stop-color:#6F7B83"/>
			<stop  offset="0.3524" style="stop-color:#808F97"/>
			<stop  offset="0.6695" style="stop-color:#8A9AA2"/>
			<stop  offset="0.9972" style="stop-color:#8D9EA6"/>
		</linearGradient>
		<path fill="url(#SVGID_26_)" d="M353.6,100.8l-6.1-1.9c6.2-19,14.3-27.1,15.1-27.7l0.5,3.9C363.1,75.2,358.6,83.8,353.6,100.8
			L353.6,100.8z"/>
		
			<linearGradient id="SVGID_27_" gradientUnits="userSpaceOnUse" x1="520.3793" y1="92.0164" x2="523.0793" y2="92.0164" gradientTransform="matrix(-0.9998 1.853788e-002 1.853788e-002 0.9998 883.4093 -15.0511)">
			<stop  offset="0" style="stop-color:#212121"/>
			<stop  offset="0.2515" style="stop-color:#242424"/>
			<stop  offset="0.9972" style="stop-color:#282828"/>
		</linearGradient>
		<path fill="url(#SVGID_27_)" d="M364.3,74.2c0,0.2,0,19.2,0.8,24.6l-2.7,0.1c-0.1-14.2,0.6-24.3,0.6-24.6L364.3,74.2z"/>
		
			<linearGradient id="SVGID_28_" gradientUnits="userSpaceOnUse" x1="100.9438" y1="86.6517" x2="100.6889" y2="72.9077" gradientTransform="matrix(0.9998 1.853788e-002 -1.853788e-002 0.9998 262.7691 -15.0511)">
			<stop  offset="0" style="stop-color:#B5905D"/>
			<stop  offset="0.5079" style="stop-color:#C89F67"/>
			<stop  offset="0.9972" style="stop-color:#D6AA6E"/>
		</linearGradient>
		<path fill="url(#SVGID_28_)" d="M365.2,61.7c-1.4-0.3-2.2,0.7-3.7,0.9c-1.3,0.1-2.5,0.9-3.7,1.3c-0.1,0-0.2,0.1-0.2,0.1
			c-0.3,2.8,0.4,7,1.4,8.2c1.8,1.4,6.6,1.3,6.8,1c0.2-0.4,1.1-5.4,0.9-9.2C366.3,62.9,365.9,61.9,365.2,61.7z"/>
		<path fill="#44473D" d="M358.2,61.6c-0.3,0.5-0.5,1.4-0.7,2.5c0.1,0,0.1-0.1,0.2-0.1c1.2-0.5,2.4-1.2,3.7-1.3
			c1.6-0.2,2.4-1.2,3.7-0.9c0.6,0.2,1.1,1.2,1.5,2.3c-0.1-1.3-0.2-2.4-0.6-3C364.6,58.6,359.3,59.8,358.2,61.6z"/>
	</g>
	<g display="inline" opacity="0.4">
		<path fill="#FFFFFF" d="M374.7,97c-1.9,1.5-2.6,2.9-1.4,6.5c1,2.8,2.6,3.3,4.4,1.7c2.7-2.4,2-3.3,1.2-5.6
			C378.1,97.4,376.6,95.5,374.7,97z"/>
		<path fill="#FFFFFF" d="M372.9,101.6c-4.4-17.3-8.6-26.1-8.6-26.1l0.7-3.9c0.8,0.6,8.6,9.1,14.1,28.4L372.9,101.6L372.9,101.6z"/>
		<path fill="#FFFFFF" d="M350.3,131.9c1.4,0.2,2.5-0.1,2.5-0.1s0.1-11.9,0.8-19.6c0.6-7.6,1.6-12.3,1.6-12.3l15.9,0.3
			c0,0,1.1,4.4,2,11.9c0.9,7.7,1.6,19.2,1.6,19.2s1.1,0.4,2.5,0.1l1.2,2.7c-6.6,1.3-14.1-0.1-14.1-0.1s-0.1-10.1-0.9-24
			c-0.3,13.9,0,24,0,24s-7.5,1.7-14.1,0.6L350.3,131.9z"/>
		<path fill="#FFFFFF" d="M363.3,70.2l2.9,2.8c1.4,9.2,3.2,21.1,5.3,28.5l-16.7-0.8C357.4,76.5,363.3,70.2,363.3,70.2z"/>
		<path fill="#FFFFFF" d="M351.9,96.1c1.8,1.6,2.4,3,1.1,6.6c-1.1,2.8-2.7,3.2-4.4,1.5c-2.6-2.5-1.9-3.4-1-5.6
			C348.6,96.4,350.2,94.6,351.9,96.1z"/>
		<path fill="#FFFFFF" d="M353.6,100.8l-6.1-1.9c6.2-19,14.3-27.1,15.1-27.7l0.5,3.9C363.1,75.2,358.6,83.8,353.6,100.8L353.6,100.8
			z"/>
		<path fill="#FFFFFF" d="M364.3,74.2c0,0.2,0,19.2,0.8,24.6l-2.7,0.1c-0.1-14.2,0.6-24.3,0.6-24.6L364.3,74.2z"/>
		<path fill="#FFFFFF" d="M365.2,61.7c-1.4-0.3-2.2,0.7-3.7,0.9c-1.3,0.1-2.5,0.9-3.7,1.3c-0.1,0-0.2,0.1-0.2,0.1
			c-0.3,2.8,0.4,7,1.4,8.2c1.8,1.4,6.6,1.3,6.8,1c0.2-0.4,1.1-5.4,0.9-9.2C366.3,62.9,365.9,61.9,365.2,61.7z"/>
		<path fill="#FFFFFF" d="M358.2,61.6c-0.3,0.5-0.5,1.4-0.7,2.5c0.1,0,0.1-0.1,0.2-0.1c1.2-0.5,2.4-1.2,3.7-1.3
			c1.6-0.2,2.4-1.2,3.7-0.9c0.6,0.2,1.1,1.2,1.5,2.3c-0.1-1.3-0.2-2.4-0.6-3C364.6,58.6,359.3,59.8,358.2,61.6z"/>
	</g>
</g>
<radialGradient id="nuvem2_1_" cx="300" cy="109.2007" r="57.1654" gradientTransform="matrix(1 0 0 0.6 0 39.8538)" gradientUnits="userSpaceOnUse">
	<stop  offset="0.4837" style="stop-color:#666666"/>
	<stop  offset="0.9972" style="stop-color:#666666;stop-opacity:0.5"/>
</radialGradient>
<path id="nuvem2" display="none" fill="url(#nuvem2_1_)" d="M327.1,77.3c3.3-1.3,6.6-2,9.5-0.2c2,1.3,3.7,3.3,5.2,5.2
	c0.8,1,1.2,1.6,2.6,1.1c8.5-3.4,15.2,1.4,15.5,11.1c0,0.7,0.4,1.6,0.8,2.1c3,3.8,3.6,8,1.7,12.5c-0.5,1.3-0.3,2,0.5,3
	c3,3.7,3.6,7.9,1.7,12.2c-1.9,4.4-5.3,6.6-9.9,6.5c-1.3,0-2.3,0.2-3.1,1.5c-2,2.9-4.9,4.4-8.3,4.4c-1.4,0-2,0.6-2.6,1.8
	c-3.6,7.1-12,8.2-17.5,2.6c-2.5-2.5-5.6-3.8-9.2-2.9c-0.7,0.2-1.5,0.8-2,1.4c-4.3,4.7-10.6,5.1-15.2,0.8c-1.3-1.3-2.5-1.5-4.1-0.7
	c-4,2.1-7.8,1.6-11.5-1c-0.7-0.5-2-0.7-2.9-0.4c-4.7,1.7-8.7,0.7-12.2-3.1c-1.4-1.6-2.8-2-4.8-0.7c-7.2,4.7-15.8-0.1-16.4-9.1
	c-0.1-1.3-0.5-2-1.7-2.5c-5.5-2.2-7.8-6.4-7.2-12.5c0.1-0.9-0.2-1.9-0.5-2.8c-2.2-5.3-1.1-10.2,2.9-14.1c0.8-0.7,1.4-1.7,1.8-2.7
	c1.5-3.4,3.8-5.5,7.2-6.7c1-0.3,2-1.2,2.5-2.1c2.6-4.7,6.7-6.8,11.8-6c0.8,0.1,1.9,0,2.6-0.3c3.1-1.5,6.1-1.4,9.1,0.1
	c1.7,0.8,3.1,0.6,4.4-0.8c2-2.3,4.5-3.4,7.5-3.7c1-0.1,2.2-0.7,2.9-1.4c4.5-4.6,11.3-4.6,15.6,0.2c2.3,2.5,3.6,2.6,6.3,0.6
	c5.6-4.2,13.2-2,16.1,4.6C326.4,75.7,326.7,76.4,327.1,77.3z"/>
<radialGradient id="nuvem1_1_" cx="498.1177" cy="-18.8976" r="53.1437" gradientTransform="matrix(-0.8267 0 0 -0.6 696.5581 79.0004)" gradientUnits="userSpaceOnUse">
	<stop  offset="0.4837" style="stop-color:#666666"/>
	<stop  offset="0.9972" style="stop-color:#666666;stop-opacity:0.5"/>
</radialGradient>
<path id="nuvem1" display="none" fill="url(#nuvem1_1_)" d="M264,116.5c-2.6,1.2-5.1,1.9-7.3,0.2c-1.5-1.2-2.8-3-4-4.8
	c-0.6-0.9-0.9-1.5-2-1c-6.5,3.2-11.7-1.3-11.9-10.3c0-0.7-0.3-1.4-0.6-2c-2.3-3.5-2.8-7.4-1.3-11.6c0.4-1.2,0.3-1.8-0.4-2.8
	c-2.3-3.4-2.8-7.3-1.3-11.4c1.5-4.1,4.1-6.1,7.6-6c1,0,1.7-0.2,2.4-1.3c1.6-2.7,3.8-4.1,6.4-4.1c1.1,0,1.5-0.5,2-1.6
	c2.8-6.6,9.2-7.7,13.4-2.4c1.9,2.3,4.3,3.5,7,2.7c0.6-0.2,1.1-0.8,1.5-1.3c3.3-4.4,8.2-4.8,11.7-0.7c1,1.2,1.9,1.4,3.2,0.6
	c3.1-2,6-1.5,8.8,1c0.6,0.5,1.6,0.6,2.2,0.3c3.6-1.5,6.7-0.7,9.3,2.9c1.1,1.5,2.2,1.9,3.7,0.6c5.5-4.4,12.1,0.1,12.6,8.5
	c0.1,1.2,0.4,1.8,1.3,2.3c4.2,2.1,6,5.9,5.6,11.6c-0.1,0.8,0.1,1.8,0.4,2.6c1.7,4.9,0.9,9.5-2.3,13.1c-0.6,0.7-1,1.6-1.4,2.5
	c-1.1,3.2-2.9,5.1-5.5,6.2c-0.7,0.3-1.5,1.1-1.9,1.9c-2,4.3-5.2,6.3-9.1,5.6c-0.7-0.1-1.4,0-2,0.3c-2.4,1.4-4.7,1.3-7-0.1
	c-1.3-0.8-2.4-0.6-3.4,0.7c-1.6,2.1-3.5,3.2-5.8,3.5c-0.8,0.1-1.7,0.6-2.2,1.3c-3.4,4.3-8.7,4.2-12-0.2c-1.7-2.3-2.8-2.4-4.9-0.5
	c-4.3,3.9-10.1,1.9-12.4-4.3C264.5,117.9,264.3,117.3,264,116.5z"/>
<linearGradient id="SVGID_29_" gradientUnits="userSpaceOnUse" x1="992.4168" y1="416.7508" x2="992.4168" y2="217.6535" gradientTransform="matrix(4.489700e-011 -1 1 4.489700e-011 -217.6535 1092.4169)">
	<stop  offset="0" style="stop-color:#191919;stop-opacity:0"/>
	<stop  offset="0.8965" style="stop-color:#191919"/>
</linearGradient>
<path display="none" fill="url(#SVGID_29_)" d="M199.1-50v300H0L0-50H199.1z"/>
<linearGradient id="SVGID_30_" gradientUnits="userSpaceOnUse" x1="992.4168" y1="633.8481" x2="992.4168" y2="434.7508" gradientTransform="matrix(-4.078302e-016 -1 -1 4.078302e-016 1034.7507 1092.4169)">
	<stop  offset="0" style="stop-color:#191919;stop-opacity:0"/>
	<stop  offset="0.8965" style="stop-color:#191919"/>
</linearGradient>
<path display="none" fill="url(#SVGID_30_)" d="M600-50v300H400.9V-50H600z"/>
</svg>
