<?xml version="1.0" encoding="utf-8"?>
<!-- Generator: Adobe Illustrator 18.0.0, SVG Export Plug-In . SVG Version: 6.00 Build 0)  -->
<!DOCTYPE svg PUBLIC "-//W3C//DTD SVG 1.1//EN" "http://www.w3.org/Graphics/SVG/1.1/DTD/svg11.dtd" [
	<!ENTITY ns_extend "http://ns.adobe.com/Extensibility/1.0/">
	<!ENTITY ns_ai "http://ns.adobe.com/AdobeIllustrator/10.0/">
	<!ENTITY ns_graphs "http://ns.adobe.com/Graphs/1.0/">
	<!ENTITY ns_vars "http://ns.adobe.com/Variables/1.0/">
	<!ENTITY ns_imrep "http://ns.adobe.com/ImageReplacement/1.0/">
	<!ENTITY ns_sfw "http://ns.adobe.com/SaveForWeb/1.0/">
	<!ENTITY ns_custom "http://ns.adobe.com/GenericCustomNamespace/1.0/">
	<!ENTITY ns_adobe_xpath "http://ns.adobe.com/XPath/1.0/">
]>
<svg version="1.1" id="Layer_1" xmlns:x="&ns_extend;" xmlns:i="&ns_ai;" xmlns:graph="&ns_graphs;"
	 xmlns="http://www.w3.org/2000/svg" xmlns:xlink="http://www.w3.org/1999/xlink" x="0px" y="0px" viewBox="0 0 400 200"
	 enable-background="new 0 0 400 200" xml:space="preserve">
<metadata>
	<sfw  xmlns="&ns_sfw;">
		<slices></slices>
		<sliceSourceBounds  width="455.8" height="321.3" x="-3.5" y="-231.2" bottomLeftOrigin="true"></sliceSourceBounds>
	</sfw>
</metadata>
<rect x="-3" y="-4.5" display="none" fill="#191919" stroke="#000000" stroke-miterlimit="10" width="409" height="209.5"/>
<g id="ampm" display="none">
	<g display="inline">
		<path fill="#FFFFFF" d="M65.7,109c0,0-0.1,0-0.2,0c-0.1,0-0.1,0-0.2,0c-0.1,0-0.1,0-0.2,0c0,0-0.1,0-0.1,0c-0.1,0-0.1,0.1-0.2,0.2
			c-0.1,0.1-0.1,0.3-0.2,0.4c-0.1,0.2-0.2,0.4-0.2,0.6c-0.1,0.2-0.2,0.4-0.3,0.6c-0.1,0.2-0.2,0.3-0.3,0.4s-0.2,0.2-0.3,0.2
			c-0.1,0-0.1,0-0.2,0c-0.1,0-0.1-0.1-0.2-0.1c-0.1-0.1-0.1-0.1-0.2-0.2c0-0.1-0.1-0.1-0.1-0.2c0-0.1,0-0.3,0.1-0.5s0.3-0.5,0.4-0.8
			c0.2-0.3,0.4-0.7,0.6-1.1c0.2-0.4,0.5-0.8,0.7-1.3c0.1-0.1,0.2-0.3,0.2-0.5c0.1-0.2,0.2-0.4,0.3-0.6s0.2-0.5,0.3-0.7
			c0.1-0.2,0.2-0.5,0.3-0.7c0.1-0.2,0.2-0.5,0.3-0.7c0.1-0.2,0.2-0.4,0.3-0.6c0.1-0.2,0.2-0.3,0.3-0.4c0.1-0.1,0.2-0.1,0.3-0.1
			c0.1,0,0.2,0,0.4,0c0.1,0,0.2,0.1,0.3,0.2c0,0,0,0,0.1,0.1c0,0.1,0,0.1,0,0.2c0,0.1,0,0.1,0,0.2s0,0.1,0,0.2
			c0,0.1,0.1,0.1,0.1,0.2c0,0.1,0.1,0.2,0.1,0.3c0.1,0.1,0.1,0.2,0.2,0.4s0.1,0.3,0.2,0.4c0.1,0.2,0.2,0.4,0.4,0.6s0.3,0.5,0.4,0.7
			s0.3,0.5,0.5,0.8c0.2,0.3,0.3,0.5,0.5,0.8c0.1,0.1,0.2,0.3,0.3,0.5c0.1,0.2,0.2,0.4,0.4,0.6c0.1,0.2,0.3,0.4,0.4,0.6
			c0.1,0.2,0.3,0.3,0.4,0.4c0.1,0.1,0.2,0.2,0.4,0.3c0.1,0.1,0.2,0.2,0.3,0.3s0.2,0.2,0.2,0.2c0.1,0.1,0.1,0.2,0.1,0.2
			c0,0.1,0,0.2,0,0.2s-0.1,0.1-0.1,0.2s-0.1,0.1-0.2,0.1c-0.1,0-0.1,0-0.2,0c-0.2,0-0.3-0.1-0.5-0.2c-0.2-0.1-0.3-0.3-0.5-0.4
			s-0.3-0.4-0.5-0.5c-0.2-0.2-0.3-0.4-0.4-0.5c-0.1-0.1-0.2-0.2-0.3-0.4c-0.1-0.2-0.2-0.3-0.3-0.5s-0.2-0.3-0.2-0.4
			s-0.1-0.2-0.2-0.2c-0.1,0-0.2,0-0.4,0c-0.2,0-0.4,0.1-0.6,0.1c-0.2,0.1-0.5,0.1-0.7,0.2s-0.5,0.1-0.6,0.1c0,0-0.1,0-0.2,0
			s-0.2,0-0.3,0c-0.1,0-0.2,0-0.3,0c-0.1,0-0.2,0-0.3,0s-0.2,0-0.3,0C65.8,109,65.7,109,65.7,109z M69,107.5
			c-0.1-0.1-0.1-0.2-0.2-0.4c-0.1-0.2-0.2-0.4-0.3-0.6c-0.1-0.2-0.3-0.5-0.4-0.7c-0.1-0.2-0.3-0.5-0.4-0.7s-0.2-0.4-0.3-0.5
			c-0.1-0.1-0.1-0.2-0.2-0.2c-0.1,0.3-0.2,0.6-0.4,0.9s-0.3,0.6-0.5,0.9c-0.2,0.3-0.3,0.6-0.5,0.9c-0.2,0.3-0.3,0.6-0.4,0.9
			c0.1,0,0.2,0,0.3,0c0.1,0,0.2,0,0.3,0c0.1,0,0.2,0,0.3,0c0.1,0,0.2,0,0.3,0s0.2,0,0.2,0c0.1,0,0.3,0,0.5-0.1
			c0.2,0,0.3-0.1,0.5-0.1c0.2,0,0.4-0.1,0.6-0.1S68.8,107.6,69,107.5z"/>
		<path fill="#FFFFFF" d="M83.1,102.3c0,0,0,0.1,0,0.1c0,0,0,0.1-0.1,0.1c0,0,0,0.1-0.1,0.1c0,0,0,0.1,0,0.1c0,0,0,0,0,0s0,0,0,0.1
			c0,0.1,0,0.1,0,0.2s0,0.1,0,0.1c0,0.1,0,0.3,0,0.4s0,0.3,0,0.4c0,0.3,0.1,0.6,0.1,0.9c0,0.1,0,0.3,0,0.5c0,0.2,0,0.3,0,0.5
			c0,0.2,0,0.3,0,0.5c0,0.2,0,0.3,0,0.5c0,0.3,0,0.5,0.1,0.8c0,0.3,0.1,0.6,0.1,0.9c0,0.2,0.1,0.5,0.1,0.8c0.1,0.3,0.1,0.7,0.2,1.1
			c0.1,0,0.1,0.1,0.2,0.2c0.1,0.1,0.2,0.1,0.3,0.2c0.1,0,0.1,0.1,0.1,0.2c0,0.1,0,0.3-0.2,0.4c-0.1,0.1-0.3,0.2-0.4,0.2
			c-0.4,0-0.7-0.3-0.9-0.8c-0.2-0.5-0.4-1.1-0.5-1.6c0-0.2,0-0.3,0-0.5s0-0.3,0-0.5c0-0.1,0-0.3,0-0.5s0-0.5,0-0.9
			c0-0.3,0-0.6,0-0.8c0-0.2,0-0.3,0-0.3c0,0,0-0.1,0-0.1c0-0.1,0-0.1,0-0.2c0-0.2,0-0.4,0-0.5s0-0.3,0-0.3c0,0,0-0.1,0-0.1
			s0-0.1,0-0.1c0,0,0-0.1-0.1-0.1c-0.1,0.1-0.1,0.2-0.2,0.3c-0.1,0.1-0.2,0.3-0.3,0.4c-0.2,0.3-0.3,0.5-0.5,0.7
			c-0.1,0.1-0.1,0.2-0.2,0.3c-0.1,0.1-0.1,0.2-0.2,0.3c-0.1,0.1-0.1,0.2-0.2,0.3c-0.1,0.1-0.2,0.3-0.3,0.4c-0.2,0.3-0.4,0.7-0.6,1.1
			c0,0,0,0,0,0.1c0,0-0.1,0.1-0.1,0.1c-0.1,0.1-0.1,0.2-0.1,0.2c-0.2,0.4-0.5,0.6-0.7,0.6c-0.4-0.1-0.7-0.3-0.9-0.5
			c0-0.1-0.1-0.1-0.1-0.2c0,0-0.1-0.1-0.1-0.1c0,0-0.1-0.1-0.1-0.1c0,0-0.1-0.1-0.1-0.1c-0.1-0.1-0.2-0.3-0.3-0.4
			c-0.1-0.1-0.2-0.2-0.2-0.3c-0.1-0.2-0.3-0.4-0.4-0.6c-0.1-0.2-0.2-0.4-0.4-0.6c-0.1-0.1-0.1-0.3-0.2-0.4c0-0.1-0.1-0.2-0.1-0.2
			c0,0-0.1-0.1-0.1-0.2c0-0.1-0.1-0.2-0.1-0.3s-0.1-0.2-0.2-0.3s-0.1-0.2-0.2-0.3c-0.1-0.2-0.2-0.4-0.2-0.4c0,0.1,0,0.2-0.1,0.4
			S75,104.8,75,105s-0.1,0.4-0.1,0.6c0,0.2,0,0.4-0.1,0.5c0,0.2,0,0.3,0,0.4s0,0.3,0,0.4c0,0.2-0.1,0.6-0.1,1.1c0,0.3,0,0.6,0,1
			c0,0.1,0,0.2,0.1,0.3c0,0.1,0.1,0.2,0.1,0.4c0.1,0.2,0.1,0.3,0.1,0.4c0,0.1,0.1,0.2,0.1,0.3c0,0.1,0,0.2-0.1,0.4
			c-0.1,0.1-0.2,0.2-0.3,0.2c0,0-0.1,0-0.2,0s-0.1,0-0.2,0c-0.2,0-0.4-0.1-0.5-0.4c-0.1-0.3-0.2-0.5-0.3-0.8c0-0.1,0-0.2,0-0.3
			c0-0.1,0-0.2,0-0.3s0-0.2,0-0.4c0-0.1,0-0.2,0-0.3c0-0.1,0-0.1,0-0.1c0-0.3,0.1-0.6,0.1-0.9c0-0.3,0.1-0.5,0.1-0.7
			c0-0.2,0.1-0.4,0.1-0.6c0-0.2,0.1-0.4,0.1-0.7c0-0.3,0.1-0.5,0.1-0.7c0-0.2,0-0.4,0.1-0.6c0-0.2,0-0.4,0-0.4c0-0.1,0-0.2,0-0.3
			c0-0.1,0-0.2,0.1-0.3c0.1-0.2,0.2-0.3,0.3-0.3c0.3,0,0.5,0,0.7,0.1c0.2,0,0.3,0.2,0.5,0.4c0.1,0.1,0.1,0.2,0.2,0.3
			c0.1,0.1,0.1,0.2,0.1,0.3c0,0.1,0.1,0.2,0.1,0.3c0.1,0.1,0.1,0.3,0.2,0.4c0,0.1,0.1,0.2,0.1,0.2s0.1,0.2,0.1,0.3
			c0.4,0.9,1,1.8,1.8,2.7c0,0,0.1-0.1,0.2-0.1c0,0,0.1-0.1,0.1-0.1c0,0,0.1-0.1,0.1-0.1c0-0.1,0.1-0.1,0.1-0.2
			c0-0.1,0.1-0.2,0.1-0.3c0.1-0.2,0.2-0.4,0.3-0.6c0.1-0.2,0.2-0.3,0.3-0.5c0.1-0.1,0.1-0.1,0.2-0.3s0.2-0.2,0.2-0.4
			c0.1-0.1,0.2-0.3,0.2-0.4c0.1-0.1,0.1-0.2,0.2-0.3c0.1-0.1,0.1-0.1,0.2-0.2c0-0.1,0.1-0.1,0.1-0.2s0.1-0.1,0.1-0.2
			c0.1-0.1,0.1-0.2,0.2-0.3c0,0,0.1-0.1,0.1-0.2c0,0,0.1-0.1,0.1-0.1c0,0,0-0.1,0.1-0.1c0.1-0.1,0.1-0.2,0.2-0.3
			c0.1-0.1,0.1-0.3,0.2-0.4c0.1-0.2,0.2-0.3,0.2-0.4s0.1-0.2,0.2-0.3c0,0,0.1-0.1,0.1-0.1c0.1,0,0.1,0,0.2,0c0.1,0,0.2,0.1,0.3,0.1
			c0.1,0.1,0.2,0.1,0.2,0.2C83,102.2,83.1,102.2,83.1,102.3z"/>
	</g>
	<g display="inline">
		<path fill="#FFFFFF" d="M325,104.2c0,0.3,0,0.5-0.1,0.8c-0.1,0.2-0.2,0.5-0.4,0.7c-0.2,0.2-0.3,0.4-0.6,0.6s-0.4,0.3-0.6,0.4
			c-0.2,0.1-0.5,0.3-0.7,0.4c-0.3,0.1-0.6,0.2-0.8,0.4c-0.3,0.1-0.6,0.2-0.9,0.3c-0.3,0.1-0.6,0.2-0.9,0.2c0,0-0.1,0-0.2,0
			c-0.1,0-0.2,0-0.3,0.1c-0.1,0-0.2,0-0.3,0.1s-0.2,0-0.3,0.1c-0.1,0-0.2,0-0.2,0.1s-0.1,0-0.1,0c0,0,0,0.1,0,0.2c0,0.1,0,0.2,0,0.4
			s0,0.3,0,0.5c0,0.2,0,0.3,0,0.5c0,0.1,0,0.3,0,0.4c0,0.1,0,0.2,0,0.2c0,0,0,0.1,0,0.2c0,0.1,0,0.1,0,0.2s0,0.1-0.1,0.2
			c0,0.1-0.1,0.1-0.1,0.1c0,0-0.1,0.1-0.1,0.1s-0.1,0-0.2,0c-0.1,0-0.2,0-0.2,0c-0.1,0-0.1,0-0.2-0.1c0,0-0.1-0.1-0.1-0.1
			c0-0.1-0.1-0.1-0.1-0.2s0-0.1-0.1-0.2c0-0.1,0-0.1,0-0.2c0-0.1,0-0.3,0-0.5c0-0.2,0-0.4,0-0.6c0-0.2,0-0.5,0-0.7
			c0-0.3,0-0.5,0-0.8c0-0.1,0-0.2,0-0.4s0-0.3,0-0.5c0-0.2,0-0.4,0-0.6c0-0.2,0-0.4,0-0.5s0-0.3,0-0.4c0-0.1,0-0.2,0-0.2
			c0,0,0-0.1,0-0.1c0-0.1,0-0.1,0-0.2c0-0.1,0-0.1,0-0.2c0-0.1,0-0.1,0-0.2c0-0.1,0-0.1-0.1-0.2c0,0,0-0.1-0.1-0.1
			c-0.1,0-0.2-0.1-0.2-0.1c-0.1,0-0.1-0.1-0.1-0.1c0,0,0-0.1-0.1-0.2c0-0.1,0-0.1,0-0.2c0,0,0-0.1,0-0.1c0,0,0.1-0.1,0.1-0.1
			c0.1,0,0.2-0.1,0.3-0.1c0.1-0.1,0.3-0.1,0.5-0.2c0.2,0,0.4-0.1,0.6-0.1c0.2,0,0.5-0.1,0.7-0.1c0.3,0,0.5-0.1,0.8-0.1
			c0.3,0,0.5-0.1,0.8-0.1c0.3,0,0.5,0,0.7-0.1c0.2,0,0.4,0,0.6,0s0.3,0,0.5,0s0.4,0,0.6,0.1c0.2,0,0.4,0.1,0.6,0.1s0.4,0.1,0.5,0.3
			c0.1,0,0.1,0.1,0.2,0.2c0.1,0.1,0.2,0.2,0.2,0.3c0.1,0.1,0.1,0.2,0.2,0.3C325,104,325,104.1,325,104.2z M322.1,103.4
			c-0.2,0-0.4,0-0.6,0c-0.2,0-0.5,0.1-0.8,0.1c-0.3,0.1-0.6,0.1-0.9,0.2c-0.3,0.1-0.6,0.2-1,0.3c0,0,0,0.1,0,0.2s0,0.2,0,0.4
			c0,0.1,0,0.3,0,0.4s0,0.3,0,0.4c0,0.3,0,0.6,0,0.9c0,0.3,0,0.7,0,1.1c0.5-0.1,1-0.2,1.4-0.3c0.4-0.1,0.9-0.3,1.3-0.4
			c0.1,0,0.3-0.1,0.5-0.2c0.2-0.1,0.4-0.2,0.6-0.3c0.2-0.1,0.4-0.2,0.6-0.4c0.2-0.1,0.4-0.3,0.5-0.4s0.3-0.3,0.4-0.5
			c0.1-0.2,0.1-0.3,0.1-0.5c0-0.2-0.1-0.4-0.2-0.5c-0.1-0.1-0.3-0.2-0.5-0.3c-0.2-0.1-0.4-0.1-0.6-0.1S322.3,103.4,322.1,103.4z"/>
		<path fill="#FFFFFF" d="M336.8,102.9c0,0,0,0.1,0,0.1s0,0.1-0.1,0.1c0,0-0.1,0.1-0.1,0.1c0,0,0,0.1,0,0.1c0,0,0,0,0,0
			c0,0,0,0,0,0.1c0,0.1,0,0.1,0,0.2s0,0.1,0,0.1c0,0.1,0,0.3,0,0.4c0,0.1,0,0.3,0,0.4c0,0.3,0,0.5,0,0.8c0,0.1,0,0.3,0,0.4
			c0,0.2,0,0.3,0,0.5c0,0.2,0,0.3,0,0.5c0,0.2,0,0.3,0,0.4c0,0.3,0,0.5,0,0.8c0,0.3,0,0.6,0.1,0.9c0,0.2,0.1,0.5,0.1,0.8
			c0,0.3,0.1,0.7,0.1,1.1c0.1,0,0.1,0.1,0.2,0.2c0.1,0.1,0.2,0.1,0.3,0.2c0.1,0,0.1,0.1,0.1,0.2c0,0.1-0.1,0.3-0.2,0.4
			c-0.2,0.1-0.3,0.2-0.5,0.2c-0.4,0-0.7-0.3-0.9-0.8c-0.2-0.5-0.3-1-0.4-1.5c0-0.2,0-0.3,0-0.5s0-0.3,0-0.5c0-0.1,0-0.3,0-0.5
			s0-0.5,0-0.8c0-0.3,0-0.6,0-0.8c0-0.2,0-0.3,0-0.3c0,0,0-0.1,0-0.1s0-0.1,0-0.2c0-0.2,0-0.4,0-0.5c0-0.1,0-0.2,0-0.3
			c0,0,0,0,0-0.1c0,0,0-0.1,0-0.1c0,0,0-0.1-0.1-0.1c-0.1,0.1-0.1,0.2-0.2,0.3c-0.1,0.1-0.2,0.2-0.3,0.4c-0.2,0.3-0.4,0.5-0.5,0.7
			c-0.1,0.1-0.1,0.2-0.2,0.3c-0.1,0.1-0.1,0.2-0.2,0.3c-0.1,0.1-0.1,0.2-0.2,0.3c-0.1,0.1-0.2,0.2-0.3,0.4c-0.2,0.3-0.5,0.6-0.7,1
			c0,0,0,0-0.1,0.1c0,0-0.1,0.1-0.1,0.1c-0.1,0.1-0.1,0.2-0.1,0.2c-0.3,0.3-0.5,0.5-0.7,0.6c-0.4-0.1-0.7-0.3-0.9-0.5
			c0-0.1-0.1-0.1-0.1-0.2c0,0-0.1-0.1-0.1-0.1c0,0-0.1-0.1-0.1-0.1s-0.1-0.1-0.1-0.1c-0.1-0.1-0.2-0.2-0.3-0.4s-0.1-0.2-0.2-0.3
			c-0.1-0.2-0.2-0.4-0.4-0.5s-0.2-0.4-0.3-0.6c-0.1-0.1-0.1-0.3-0.2-0.3c0-0.1-0.1-0.2-0.1-0.2c0,0,0-0.1-0.1-0.2
			c0-0.1-0.1-0.2-0.1-0.3c0-0.1-0.1-0.2-0.1-0.3c-0.1-0.1-0.1-0.2-0.2-0.3c-0.1-0.2-0.2-0.4-0.2-0.4c0,0.1,0,0.2-0.1,0.4
			c0,0.2-0.1,0.3-0.1,0.5c0,0.2-0.1,0.4-0.1,0.5c0,0.2-0.1,0.3-0.1,0.5c0,0.1-0.1,0.3-0.1,0.4c0,0.1,0,0.3-0.1,0.4
			c0,0.2-0.1,0.6-0.2,1.1c-0.1,0.3-0.1,0.6,0,0.9c0,0.1,0,0.1,0,0.2c0,0.1,0.1,0.2,0.1,0.4c0,0.1,0.1,0.3,0.1,0.4
			c0,0.1,0,0.2,0.1,0.3c0,0.1,0,0.2-0.1,0.4c-0.1,0.1-0.2,0.2-0.3,0.2c0,0-0.1,0-0.2,0c-0.1,0-0.1,0-0.2,0c-0.2,0-0.4-0.1-0.5-0.4
			c-0.1-0.2-0.2-0.5-0.2-0.8c0-0.1,0-0.2,0-0.3c0-0.1,0-0.2,0-0.3c0-0.1,0-0.2,0.1-0.3c0-0.1,0-0.2,0.1-0.3c0-0.1,0-0.1,0-0.1
			c0.1-0.3,0.1-0.6,0.2-0.8s0.1-0.5,0.1-0.6c0-0.2,0.1-0.4,0.1-0.6c0-0.2,0.1-0.4,0.1-0.6c0.1-0.3,0.1-0.5,0.1-0.7
			c0-0.2,0.1-0.4,0.1-0.5c0-0.2,0-0.3,0-0.4c0-0.1,0-0.2,0.1-0.3c0-0.1,0.1-0.2,0.1-0.3c0.1-0.2,0.2-0.3,0.3-0.3
			c0.3,0,0.6,0,0.7,0.1c0.2,0.1,0.3,0.2,0.5,0.4c0.1,0.1,0.1,0.2,0.2,0.3c0.1,0.1,0.1,0.2,0.1,0.3c0,0.1,0.1,0.2,0.1,0.3
			s0.1,0.2,0.1,0.4c0,0.1,0.1,0.2,0.1,0.2c0,0.1,0.1,0.2,0.1,0.2c0.4,0.9,1,1.7,1.7,2.6c0,0,0.1-0.1,0.2-0.1c0.1,0,0.1-0.1,0.1-0.1
			c0,0,0.1-0.1,0.1-0.1c0.1-0.1,0.1-0.1,0.2-0.2c0.1-0.1,0.1-0.2,0.2-0.3c0.1-0.2,0.2-0.4,0.3-0.5c0.1-0.2,0.2-0.3,0.3-0.4
			c0.1-0.1,0.1-0.1,0.2-0.2s0.2-0.2,0.3-0.3c0.1-0.1,0.2-0.2,0.3-0.3c0.1-0.1,0.1-0.2,0.2-0.2c0.1-0.1,0.1-0.1,0.2-0.2
			c0.1-0.1,0.1-0.1,0.2-0.2s0.1-0.1,0.2-0.2c0.1-0.1,0.1-0.2,0.2-0.3c0,0,0.1-0.1,0.2-0.2c0,0,0.1-0.1,0.1-0.1c0,0,0.1-0.1,0.1-0.1
			c0.1-0.1,0.1-0.2,0.2-0.3c0.1-0.1,0.2-0.2,0.2-0.4c0.1-0.2,0.2-0.3,0.2-0.4s0.1-0.2,0.2-0.3c0,0,0.1,0,0.1,0c0.1,0,0.1,0,0.2,0.1
			c0.1,0,0.2,0.1,0.3,0.1c0.1,0.1,0.2,0.1,0.2,0.2C336.8,102.8,336.8,102.8,336.8,102.9z"/>
	</g>
</g>
<g id="seta6" display="none">
	
		<rect x="265" y="89.8" transform="matrix(0.7071 0.7071 -0.7071 0.7071 143.9073 -160.7751)" display="inline" fill="#FFFFFF" width="2" height="7"/>
	
		<rect x="262.5" y="87.3" transform="matrix(0.7071 0.7071 -0.7071 0.7071 140.3634 -162.2543)" display="inline" fill="#FFFFFF" width="7" height="2"/>
</g>
<g id="seta1" display="none">
	
		<rect x="112" y="80.8" transform="matrix(0.7071 0.7071 -0.7071 0.7071 92.7308 -55.224)" display="inline" fill="#FFFFFF" width="2" height="7"/>
	
		<rect x="109.5" y="78.3" transform="matrix(0.7071 0.7071 -0.7071 0.7071 89.1745 -56.697)" display="inline" fill="#FFFFFF" width="7" height="2"/>
</g>
<g id="seta2" display="none">
	
		<rect x="200" y="80.8" transform="matrix(0.7071 0.7071 -0.7071 0.7071 118.5053 -117.4492)" display="inline" fill="#FFFFFF" width="2" height="7"/>
	
		<rect x="197.5" y="78.3" transform="matrix(0.7071 0.7071 -0.7071 0.7071 114.9588 -118.9265)" display="inline" fill="#FFFFFF" width="7" height="2"/>
</g>
<g id="seta3" display="none">
	
		<rect x="248" y="53.8" transform="matrix(0.7071 0.7071 -0.7071 0.7071 112.4413 -161.8199)" display="inline" fill="#FFFFFF" width="7" height="2"/>
	
		<rect x="245.5" y="51.3" transform="matrix(0.7071 0.7071 -0.7071 0.7071 110.9577 -158.2568)" display="inline" fill="#FFFFFF" width="2" height="7"/>
</g>
<g id="seta4" display="none">
	
		<rect x="202" y="22.8" transform="matrix(0.7071 0.7071 -0.7071 0.7071 78.0582 -135.8598)" display="inline" fill="#FFFFFF" width="2" height="7"/>
	
		<rect x="199.5" y="30.3" transform="matrix(0.7071 0.7071 -0.7071 0.7071 81.6226 -134.3927)" display="inline" fill="#FFFFFF" width="7" height="2"/>
</g>
<g id="seta5" display="none">
	
		<rect x="149" y="53.8" transform="matrix(0.7071 0.7071 -0.7071 0.7071 83.4258 -91.789)" display="inline" fill="#FFFFFF" width="7" height="2"/>
	
		<rect x="156.5" y="51.3" transform="matrix(0.7071 0.7071 -0.7071 0.7071 84.8988 -95.3452)" display="inline" fill="#FFFFFF" width="2" height="7"/>
</g>
<rect x="172" y="81" display="none" fill="#FFFFFF" width="47" height="2"/>
<polygon display="none" fill="#FFFFFF" points="161.9,81 160.2,81 124,81 124,83 161.7,83 163.2,83 172,83 172,81 "/>
<rect x="76" y="81" display="none" fill="#FFFFFF" width="48" height="2"/>
<path display="none" fill="#FFFFFF" d="M247.9,55.4c0,5-1.4,9.8-4.1,13.9l1.7,1.1c2.9-4.4,4.5-9.6,4.4-15c0-6.1-2-11.7-5.4-16.2
	l-1.5,1.3C246.1,44.6,247.9,49.8,247.9,55.4z"/>
<path display="none" fill="#FFFFFF" d="M222.4,30C222.4,30,222.4,30,222.4,30c8.4,0,15.9,4.1,20.6,10.4l1.5-1.3
	c-5-6.8-13-11.1-22.1-11.1c0,0,0,0,0,0l-2.4,0v2L222.4,30z"/>
<path display="none" fill="#FFFFFF" d="M163.3,37.4c4.8-4.8,11.1-7.4,17.9-7.4l1.9,0v-2l-1.9,0c-7.3,0-14.1,2.8-19.3,8
	c-1.3,1.3-2.4,2.6-3.4,4.1l1.6,1.2C161,39.9,162.1,38.6,163.3,37.4z"/>
<rect x="231" y="90" display="none" fill="#FFFFFF" width="48" height="2"/>
<rect x="183" y="90" display="none" fill="#FFFFFF" width="48" height="2"/>
<rect x="279" y="90" display="none" fill="#FFFFFF" width="44" height="2"/>
<rect x="183" y="28" display="none" fill="#FFFFFF" width="37" height="2"/>
<path display="none" fill="#FFFFFF" d="M155.9,56.7l0-1.3c0-5.1,1.4-9.9,4.2-14.1l-1.6-1.2c-3,4.5-4.6,9.8-4.6,15.3l0,1.3
	c0,5.4,0,11.6,1.3,17.3l1.9-0.7C155.9,68.1,155.9,62.2,155.9,56.7z"/>
<path fill="#FFFFFF" d="M243.8,69.3c-0.9,1.4-2,2.8-3.3,4.1c-4.8,4.8-11.1,7.6-17.9,7.7H220h-1v2h1h2.7c7.3,0,14.1-3.1,19.2-8.3
	c1.3-1.3,2.5-2.8,3.5-4.3L243.8,69.3z"/>
<path display="none" fill="#FFFFFF" d="M181.4,90C181.4,90,181.3,90,181.4,90c-8.6,0-14.8-2-18.9-6.1c-0.3-0.3-0.5-0.6-0.8-0.9
	c-0.6-0.6-1.1-1.3-1.5-2c-1.5-2.3-2.5-4.9-3.1-7.6l-1.9,0.7c0.6,2.5,1.4,4.8,2.6,7c0.4,0.7,0.8,1.4,1.3,2c0.6,0.8,1.2,1.6,1.9,2.3
	c4.5,4.5,11,6.6,19.9,6.7v0h0.3c0,0,0,0,0,0h1.6v-2H181.4z"/>
</svg>
