<?xml version="1.0" encoding="utf-8"?>
<!-- Generator: Adobe Illustrator 18.0.0, SVG Export Plug-In . SVG Version: 6.00 Build 0)  -->
<!DOCTYPE svg PUBLIC "-//W3C//DTD SVG 1.1//EN" "http://www.w3.org/Graphics/SVG/1.1/DTD/svg11.dtd" [
	<!ENTITY ns_extend "http://ns.adobe.com/Extensibility/1.0/">
	<!ENTITY ns_ai "http://ns.adobe.com/AdobeIllustrator/10.0/">
	<!ENTITY ns_graphs "http://ns.adobe.com/Graphs/1.0/">
	<!ENTITY ns_vars "http://ns.adobe.com/Variables/1.0/">
	<!ENTITY ns_imrep "http://ns.adobe.com/ImageReplacement/1.0/">
	<!ENTITY ns_sfw "http://ns.adobe.com/SaveForWeb/1.0/">
	<!ENTITY ns_custom "http://ns.adobe.com/GenericCustomNamespace/1.0/">
	<!ENTITY ns_adobe_xpath "http://ns.adobe.com/XPath/1.0/">
]>
<svg version="1.1" id="Layer_1" xmlns:x="&ns_extend;" xmlns:i="&ns_ai;" xmlns:graph="&ns_graphs;"
	 xmlns="http://www.w3.org/2000/svg" xmlns:xlink="http://www.w3.org/1999/xlink" x="0px" y="0px" viewBox="0 0 400 200"
	 enable-background="new 0 0 400 200" xml:space="preserve">
<metadata>
	<sfw  xmlns="&ns_sfw;">
		<slices></slices>
		<sliceSourceBounds  width="455.8" height="236.2" x="-3.5" y="-231.2" bottomLeftOrigin="true"></sliceSourceBounds>
	</sfw>
</metadata>
<rect x="-3" y="-4.5" display="none" fill="#191919" stroke="#000000" stroke-miterlimit="10" width="409" height="209.5"/>
<rect x="76" y="81" fill="#FFFFFF" width="247" height="2"/>
<g id="ampm" display="none">
	<g display="inline">
		<path fill="#FFFFFF" d="M65.7,109c0,0-0.1,0-0.2,0c-0.1,0-0.1,0-0.2,0c-0.1,0-0.1,0-0.2,0c0,0-0.1,0-0.1,0c-0.1,0-0.1,0.1-0.2,0.2
			c-0.1,0.1-0.1,0.3-0.2,0.4c-0.1,0.2-0.2,0.4-0.2,0.6c-0.1,0.2-0.2,0.4-0.3,0.6c-0.1,0.2-0.2,0.3-0.3,0.4s-0.2,0.2-0.3,0.2
			c-0.1,0-0.1,0-0.2,0c-0.1,0-0.1-0.1-0.2-0.1c-0.1-0.1-0.1-0.1-0.2-0.2c0-0.1-0.1-0.1-0.1-0.2c0-0.1,0-0.3,0.1-0.5s0.3-0.5,0.4-0.8
			c0.2-0.3,0.4-0.7,0.6-1.1c0.2-0.4,0.5-0.8,0.7-1.3c0.1-0.1,0.2-0.3,0.2-0.5c0.1-0.2,0.2-0.4,0.3-0.6s0.2-0.5,0.3-0.7
			c0.1-0.2,0.2-0.5,0.3-0.7c0.1-0.2,0.2-0.5,0.3-0.7c0.1-0.2,0.2-0.4,0.3-0.6c0.1-0.2,0.2-0.3,0.3-0.4c0.1-0.1,0.2-0.1,0.3-0.1
			c0.1,0,0.2,0,0.4,0c0.1,0,0.2,0.1,0.3,0.2c0,0,0,0,0.1,0.1c0,0.1,0,0.1,0,0.2c0,0.1,0,0.1,0,0.2s0,0.1,0,0.2
			c0,0.1,0.1,0.1,0.1,0.2c0,0.1,0.1,0.2,0.1,0.3c0.1,0.1,0.1,0.2,0.2,0.4s0.1,0.3,0.2,0.4c0.1,0.2,0.2,0.4,0.4,0.6s0.3,0.5,0.4,0.7
			s0.3,0.5,0.5,0.8c0.2,0.3,0.3,0.5,0.5,0.8c0.1,0.1,0.2,0.3,0.3,0.5c0.1,0.2,0.2,0.4,0.4,0.6c0.1,0.2,0.3,0.4,0.4,0.6
			c0.1,0.2,0.3,0.3,0.4,0.4c0.1,0.1,0.2,0.2,0.4,0.3c0.1,0.1,0.2,0.2,0.3,0.3s0.2,0.2,0.2,0.2c0.1,0.1,0.1,0.2,0.1,0.2
			c0,0.1,0,0.2,0,0.2s-0.1,0.1-0.1,0.2s-0.1,0.1-0.2,0.1c-0.1,0-0.1,0-0.2,0c-0.2,0-0.3-0.1-0.5-0.2c-0.2-0.1-0.3-0.3-0.5-0.4
			s-0.3-0.4-0.5-0.5c-0.2-0.2-0.3-0.4-0.4-0.5c-0.1-0.1-0.2-0.2-0.3-0.4c-0.1-0.2-0.2-0.3-0.3-0.5s-0.2-0.3-0.2-0.4
			s-0.1-0.2-0.2-0.2c-0.1,0-0.2,0-0.4,0c-0.2,0-0.4,0.1-0.6,0.1c-0.2,0.1-0.5,0.1-0.7,0.2s-0.5,0.1-0.6,0.1c0,0-0.1,0-0.2,0
			s-0.2,0-0.3,0c-0.1,0-0.2,0-0.3,0c-0.1,0-0.2,0-0.3,0s-0.2,0-0.3,0C65.8,109,65.7,109,65.7,109z M69,107.5
			c-0.1-0.1-0.1-0.2-0.2-0.4c-0.1-0.2-0.2-0.4-0.3-0.6c-0.1-0.2-0.3-0.5-0.4-0.7c-0.1-0.2-0.3-0.5-0.4-0.7s-0.2-0.4-0.3-0.5
			c-0.1-0.1-0.1-0.2-0.2-0.2c-0.1,0.3-0.2,0.6-0.4,0.9s-0.3,0.6-0.5,0.9c-0.2,0.3-0.3,0.6-0.5,0.9c-0.2,0.3-0.3,0.6-0.4,0.9
			c0.1,0,0.2,0,0.3,0c0.1,0,0.2,0,0.3,0c0.1,0,0.2,0,0.3,0c0.1,0,0.2,0,0.3,0s0.2,0,0.2,0c0.1,0,0.3,0,0.5-0.1
			c0.2,0,0.3-0.1,0.5-0.1c0.2,0,0.4-0.1,0.6-0.1S68.8,107.6,69,107.5z"/>
		<path fill="#FFFFFF" d="M83.1,102.3c0,0,0,0.1,0,0.1c0,0,0,0.1-0.1,0.1c0,0,0,0.1-0.1,0.1c0,0,0,0.1,0,0.1c0,0,0,0,0,0s0,0,0,0.1
			c0,0.1,0,0.1,0,0.2s0,0.1,0,0.1c0,0.1,0,0.3,0,0.4s0,0.3,0,0.4c0,0.3,0.1,0.6,0.1,0.9c0,0.1,0,0.3,0,0.5c0,0.2,0,0.3,0,0.5
			c0,0.2,0,0.3,0,0.5c0,0.2,0,0.3,0,0.5c0,0.3,0,0.5,0.1,0.8c0,0.3,0.1,0.6,0.1,0.9c0,0.2,0.1,0.5,0.1,0.8c0.1,0.3,0.1,0.7,0.2,1.1
			c0.1,0,0.1,0.1,0.2,0.2c0.1,0.1,0.2,0.1,0.3,0.2c0.1,0,0.1,0.1,0.1,0.2c0,0.1,0,0.3-0.2,0.4c-0.1,0.1-0.3,0.2-0.4,0.2
			c-0.4,0-0.7-0.3-0.9-0.8c-0.2-0.5-0.4-1.1-0.5-1.6c0-0.2,0-0.3,0-0.5s0-0.3,0-0.5c0-0.1,0-0.3,0-0.5s0-0.5,0-0.9
			c0-0.3,0-0.6,0-0.8c0-0.2,0-0.3,0-0.3c0,0,0-0.1,0-0.1c0-0.1,0-0.1,0-0.2c0-0.2,0-0.4,0-0.5s0-0.3,0-0.3c0,0,0-0.1,0-0.1
			s0-0.1,0-0.1c0,0,0-0.1-0.1-0.1c-0.1,0.1-0.1,0.2-0.2,0.3c-0.1,0.1-0.2,0.3-0.3,0.4c-0.2,0.3-0.3,0.5-0.5,0.7
			c-0.1,0.1-0.1,0.2-0.2,0.3c-0.1,0.1-0.1,0.2-0.2,0.3c-0.1,0.1-0.1,0.2-0.2,0.3c-0.1,0.1-0.2,0.3-0.3,0.4c-0.2,0.3-0.4,0.7-0.6,1.1
			c0,0,0,0,0,0.1c0,0-0.1,0.1-0.1,0.1c-0.1,0.1-0.1,0.2-0.1,0.2c-0.2,0.4-0.5,0.6-0.7,0.6c-0.4-0.1-0.7-0.3-0.9-0.5
			c0-0.1-0.1-0.1-0.1-0.2c0,0-0.1-0.1-0.1-0.1c0,0-0.1-0.1-0.1-0.1c0,0-0.1-0.1-0.1-0.1c-0.1-0.1-0.2-0.3-0.3-0.4
			c-0.1-0.1-0.2-0.2-0.2-0.3c-0.1-0.2-0.3-0.4-0.4-0.6c-0.1-0.2-0.2-0.4-0.4-0.6c-0.1-0.1-0.1-0.3-0.2-0.4c0-0.1-0.1-0.2-0.1-0.2
			c0,0-0.1-0.1-0.1-0.2c0-0.1-0.1-0.2-0.1-0.3s-0.1-0.2-0.2-0.3s-0.1-0.2-0.2-0.3c-0.1-0.2-0.2-0.4-0.2-0.4c0,0.1,0,0.2-0.1,0.4
			S75,104.8,75,105s-0.1,0.4-0.1,0.6c0,0.2,0,0.4-0.1,0.5c0,0.2,0,0.3,0,0.4s0,0.3,0,0.4c0,0.2-0.1,0.6-0.1,1.1c0,0.3,0,0.6,0,1
			c0,0.1,0,0.2,0.1,0.3c0,0.1,0.1,0.2,0.1,0.4c0.1,0.2,0.1,0.3,0.1,0.4c0,0.1,0.1,0.2,0.1,0.3c0,0.1,0,0.2-0.1,0.4
			c-0.1,0.1-0.2,0.2-0.3,0.2c0,0-0.1,0-0.2,0s-0.1,0-0.2,0c-0.2,0-0.4-0.1-0.5-0.4c-0.1-0.3-0.2-0.5-0.3-0.8c0-0.1,0-0.2,0-0.3
			c0-0.1,0-0.2,0-0.3s0-0.2,0-0.4c0-0.1,0-0.2,0-0.3c0-0.1,0-0.1,0-0.1c0-0.3,0.1-0.6,0.1-0.9c0-0.3,0.1-0.5,0.1-0.7
			c0-0.2,0.1-0.4,0.1-0.6c0-0.2,0.1-0.4,0.1-0.7c0-0.3,0.1-0.5,0.1-0.7c0-0.2,0-0.4,0.1-0.6c0-0.2,0-0.4,0-0.4c0-0.1,0-0.2,0-0.3
			c0-0.1,0-0.2,0.1-0.3c0.1-0.2,0.2-0.3,0.3-0.3c0.3,0,0.5,0,0.7,0.1c0.2,0,0.3,0.2,0.5,0.4c0.1,0.1,0.1,0.2,0.2,0.3
			c0.1,0.1,0.1,0.2,0.1,0.3c0,0.1,0.1,0.2,0.1,0.3c0.1,0.1,0.1,0.3,0.2,0.4c0,0.1,0.1,0.2,0.1,0.2s0.1,0.2,0.1,0.3
			c0.4,0.9,1,1.8,1.8,2.7c0,0,0.1-0.1,0.2-0.1c0,0,0.1-0.1,0.1-0.1c0,0,0.1-0.1,0.1-0.1c0-0.1,0.1-0.1,0.1-0.2
			c0-0.1,0.1-0.2,0.1-0.3c0.1-0.2,0.2-0.4,0.3-0.6c0.1-0.2,0.2-0.3,0.3-0.5c0.1-0.1,0.1-0.1,0.2-0.3s0.2-0.2,0.2-0.4
			c0.1-0.1,0.2-0.3,0.2-0.4c0.1-0.1,0.1-0.2,0.2-0.3c0.1-0.1,0.1-0.1,0.2-0.2c0-0.1,0.1-0.1,0.1-0.2s0.1-0.1,0.1-0.2
			c0.1-0.1,0.1-0.2,0.2-0.3c0,0,0.1-0.1,0.1-0.2c0,0,0.1-0.1,0.1-0.1c0,0,0-0.1,0.1-0.1c0.1-0.1,0.1-0.2,0.2-0.3
			c0.1-0.1,0.1-0.3,0.2-0.4c0.1-0.2,0.2-0.3,0.2-0.4s0.1-0.2,0.2-0.3c0,0,0.1-0.1,0.1-0.1c0.1,0,0.1,0,0.2,0c0.1,0,0.2,0.1,0.3,0.1
			c0.1,0.1,0.2,0.1,0.2,0.2C83,102.2,83.1,102.2,83.1,102.3z"/>
	</g>
	<g display="inline">
		<path fill="#FFFFFF" d="M325,104.2c0,0.3,0,0.5-0.1,0.8c-0.1,0.2-0.2,0.5-0.4,0.7c-0.2,0.2-0.3,0.4-0.6,0.6s-0.4,0.3-0.6,0.4
			c-0.2,0.1-0.5,0.3-0.7,0.4c-0.3,0.1-0.6,0.2-0.8,0.4c-0.3,0.1-0.6,0.2-0.9,0.3c-0.3,0.1-0.6,0.2-0.9,0.2c0,0-0.1,0-0.2,0
			c-0.1,0-0.2,0-0.3,0.1c-0.1,0-0.2,0-0.3,0.1s-0.2,0-0.3,0.1c-0.1,0-0.2,0-0.2,0.1s-0.1,0-0.1,0c0,0,0,0.1,0,0.2c0,0.1,0,0.2,0,0.4
			s0,0.3,0,0.5c0,0.2,0,0.3,0,0.5c0,0.1,0,0.3,0,0.4c0,0.1,0,0.2,0,0.2c0,0,0,0.1,0,0.2c0,0.1,0,0.1,0,0.2s0,0.1-0.1,0.2
			c0,0.1-0.1,0.1-0.1,0.1c0,0-0.1,0.1-0.1,0.1s-0.1,0-0.2,0c-0.1,0-0.2,0-0.2,0c-0.1,0-0.1,0-0.2-0.1c0,0-0.1-0.1-0.1-0.1
			c0-0.1-0.1-0.1-0.1-0.2s0-0.1-0.1-0.2c0-0.1,0-0.1,0-0.2c0-0.1,0-0.3,0-0.5c0-0.2,0-0.4,0-0.6c0-0.2,0-0.5,0-0.7
			c0-0.3,0-0.5,0-0.8c0-0.1,0-0.2,0-0.4s0-0.3,0-0.5c0-0.2,0-0.4,0-0.6c0-0.2,0-0.4,0-0.5s0-0.3,0-0.4c0-0.1,0-0.2,0-0.2
			c0,0,0-0.1,0-0.1c0-0.1,0-0.1,0-0.2c0-0.1,0-0.1,0-0.2c0-0.1,0-0.1,0-0.2c0-0.1,0-0.1-0.1-0.2c0,0,0-0.1-0.1-0.1
			c-0.1,0-0.2-0.1-0.2-0.1c-0.1,0-0.1-0.1-0.1-0.1c0,0,0-0.1-0.1-0.2c0-0.1,0-0.1,0-0.2c0,0,0-0.1,0-0.1c0,0,0.1-0.1,0.1-0.1
			c0.1,0,0.2-0.1,0.3-0.1c0.1-0.1,0.3-0.1,0.5-0.2c0.2,0,0.4-0.1,0.6-0.1c0.2,0,0.5-0.1,0.7-0.1c0.3,0,0.5-0.1,0.8-0.1
			c0.3,0,0.5-0.1,0.8-0.1c0.3,0,0.5,0,0.7-0.1c0.2,0,0.4,0,0.6,0s0.3,0,0.5,0s0.4,0,0.6,0.1c0.2,0,0.4,0.1,0.6,0.1s0.4,0.1,0.5,0.3
			c0.1,0,0.1,0.1,0.2,0.2c0.1,0.1,0.2,0.2,0.2,0.3c0.1,0.1,0.1,0.2,0.2,0.3C325,104,325,104.1,325,104.2z M322.1,103.4
			c-0.2,0-0.4,0-0.6,0c-0.2,0-0.5,0.1-0.8,0.1c-0.3,0.1-0.6,0.1-0.9,0.2c-0.3,0.1-0.6,0.2-1,0.3c0,0,0,0.1,0,0.2s0,0.2,0,0.4
			c0,0.1,0,0.3,0,0.4s0,0.3,0,0.4c0,0.3,0,0.6,0,0.9c0,0.3,0,0.7,0,1.1c0.5-0.1,1-0.2,1.4-0.3c0.4-0.1,0.9-0.3,1.3-0.4
			c0.1,0,0.3-0.1,0.5-0.2c0.2-0.1,0.4-0.2,0.6-0.3c0.2-0.1,0.4-0.2,0.6-0.4c0.2-0.1,0.4-0.3,0.5-0.4s0.3-0.3,0.4-0.5
			c0.1-0.2,0.1-0.3,0.1-0.5c0-0.2-0.1-0.4-0.2-0.5c-0.1-0.1-0.3-0.2-0.5-0.3c-0.2-0.1-0.4-0.1-0.6-0.1S322.3,103.4,322.1,103.4z"/>
		<path fill="#FFFFFF" d="M336.8,102.9c0,0,0,0.1,0,0.1s0,0.1-0.1,0.1c0,0-0.1,0.1-0.1,0.1c0,0,0,0.1,0,0.1c0,0,0,0,0,0
			c0,0,0,0,0,0.1c0,0.1,0,0.1,0,0.2s0,0.1,0,0.1c0,0.1,0,0.3,0,0.4c0,0.1,0,0.3,0,0.4c0,0.3,0,0.5,0,0.8c0,0.1,0,0.3,0,0.4
			c0,0.2,0,0.3,0,0.5c0,0.2,0,0.3,0,0.5c0,0.2,0,0.3,0,0.4c0,0.3,0,0.5,0,0.8c0,0.3,0,0.6,0.1,0.9c0,0.2,0.1,0.5,0.1,0.8
			c0,0.3,0.1,0.7,0.1,1.1c0.1,0,0.1,0.1,0.2,0.2c0.1,0.1,0.2,0.1,0.3,0.2c0.1,0,0.1,0.1,0.1,0.2c0,0.1-0.1,0.3-0.2,0.4
			c-0.2,0.1-0.3,0.2-0.5,0.2c-0.4,0-0.7-0.3-0.9-0.8c-0.2-0.5-0.3-1-0.4-1.5c0-0.2,0-0.3,0-0.5s0-0.3,0-0.5c0-0.1,0-0.3,0-0.5
			s0-0.5,0-0.8c0-0.3,0-0.6,0-0.8c0-0.2,0-0.3,0-0.3c0,0,0-0.1,0-0.1s0-0.1,0-0.2c0-0.2,0-0.4,0-0.5c0-0.1,0-0.2,0-0.3
			c0,0,0,0,0-0.1c0,0,0-0.1,0-0.1c0,0,0-0.1-0.1-0.1c-0.1,0.1-0.1,0.2-0.2,0.3c-0.1,0.1-0.2,0.2-0.3,0.4c-0.2,0.3-0.4,0.5-0.5,0.7
			c-0.1,0.1-0.1,0.2-0.2,0.3c-0.1,0.1-0.1,0.2-0.2,0.3c-0.1,0.1-0.1,0.2-0.2,0.3c-0.1,0.1-0.2,0.2-0.3,0.4c-0.2,0.3-0.5,0.6-0.7,1
			c0,0,0,0-0.1,0.1c0,0-0.1,0.1-0.1,0.1c-0.1,0.1-0.1,0.2-0.1,0.2c-0.3,0.3-0.5,0.5-0.7,0.6c-0.4-0.1-0.7-0.3-0.9-0.5
			c0-0.1-0.1-0.1-0.1-0.2c0,0-0.1-0.1-0.1-0.1c0,0-0.1-0.1-0.1-0.1s-0.1-0.1-0.1-0.1c-0.1-0.1-0.2-0.2-0.3-0.4s-0.1-0.2-0.2-0.3
			c-0.1-0.2-0.2-0.4-0.4-0.5s-0.2-0.4-0.3-0.6c-0.1-0.1-0.1-0.3-0.2-0.3c0-0.1-0.1-0.2-0.1-0.2c0,0,0-0.1-0.1-0.2
			c0-0.1-0.1-0.2-0.1-0.3c0-0.1-0.1-0.2-0.1-0.3c-0.1-0.1-0.1-0.2-0.2-0.3c-0.1-0.2-0.2-0.4-0.2-0.4c0,0.1,0,0.2-0.1,0.4
			c0,0.2-0.1,0.3-0.1,0.5c0,0.2-0.1,0.4-0.1,0.5c0,0.2-0.1,0.3-0.1,0.5c0,0.1-0.1,0.3-0.1,0.4c0,0.1,0,0.3-0.1,0.4
			c0,0.2-0.1,0.6-0.2,1.1c-0.1,0.3-0.1,0.6,0,0.9c0,0.1,0,0.1,0,0.2c0,0.1,0.1,0.2,0.1,0.4c0,0.1,0.1,0.3,0.1,0.4
			c0,0.1,0,0.2,0.1,0.3c0,0.1,0,0.2-0.1,0.4c-0.1,0.1-0.2,0.2-0.3,0.2c0,0-0.1,0-0.2,0c-0.1,0-0.1,0-0.2,0c-0.2,0-0.4-0.1-0.5-0.4
			c-0.1-0.2-0.2-0.5-0.2-0.8c0-0.1,0-0.2,0-0.3c0-0.1,0-0.2,0-0.3c0-0.1,0-0.2,0.1-0.3c0-0.1,0-0.2,0.1-0.3c0-0.1,0-0.1,0-0.1
			c0.1-0.3,0.1-0.6,0.2-0.8s0.1-0.5,0.1-0.6c0-0.2,0.1-0.4,0.1-0.6c0-0.2,0.1-0.4,0.1-0.6c0.1-0.3,0.1-0.5,0.1-0.7
			c0-0.2,0.1-0.4,0.1-0.5c0-0.2,0-0.3,0-0.4c0-0.1,0-0.2,0.1-0.3c0-0.1,0.1-0.2,0.1-0.3c0.1-0.2,0.2-0.3,0.3-0.3
			c0.3,0,0.6,0,0.7,0.1c0.2,0.1,0.3,0.2,0.5,0.4c0.1,0.1,0.1,0.2,0.2,0.3c0.1,0.1,0.1,0.2,0.1,0.3c0,0.1,0.1,0.2,0.1,0.3
			s0.1,0.2,0.1,0.4c0,0.1,0.1,0.2,0.1,0.2c0,0.1,0.1,0.2,0.1,0.2c0.4,0.9,1,1.7,1.7,2.6c0,0,0.1-0.1,0.2-0.1c0.1,0,0.1-0.1,0.1-0.1
			c0,0,0.1-0.1,0.1-0.1c0.1-0.1,0.1-0.1,0.2-0.2c0.1-0.1,0.1-0.2,0.2-0.3c0.1-0.2,0.2-0.4,0.3-0.5c0.1-0.2,0.2-0.3,0.3-0.4
			c0.1-0.1,0.1-0.1,0.2-0.2s0.2-0.2,0.3-0.3c0.1-0.1,0.2-0.2,0.3-0.3c0.1-0.1,0.1-0.2,0.2-0.2c0.1-0.1,0.1-0.1,0.2-0.2
			c0.1-0.1,0.1-0.1,0.2-0.2s0.1-0.1,0.2-0.2c0.1-0.1,0.1-0.2,0.2-0.3c0,0,0.1-0.1,0.2-0.2c0,0,0.1-0.1,0.1-0.1c0,0,0.1-0.1,0.1-0.1
			c0.1-0.1,0.1-0.2,0.2-0.3c0.1-0.1,0.2-0.2,0.2-0.4c0.1-0.2,0.2-0.3,0.2-0.4s0.1-0.2,0.2-0.3c0,0,0.1,0,0.1,0c0.1,0,0.1,0,0.2,0.1
			c0.1,0,0.2,0.1,0.3,0.1c0.1,0.1,0.2,0.1,0.2,0.2C336.8,102.8,336.8,102.8,336.8,102.9z"/>
	</g>
</g>
<path display="none" fill="#FFFFFF" d="M181.3,92c-9.1,0-15.7-2.2-20.3-6.7c-7.2-7.2-7.2-19.1-7.2-28.6l0-1.3c0-7.3,2.8-14.2,8-19.4
	c5.2-5.2,12-8,19.3-8l41.3,0c0,0,0,0,0,0c15.1,0,27.4,12.3,27.5,27.4c0,7.3-2.8,14.2-8,19.4c-5.2,5.2-12,8-19.3,8l-3.3,0l0-2l3.3,0
	c6.7,0,13.1-2.7,17.9-7.5c4.8-4.8,7.4-11.2,7.4-18c-0.1-14-11.5-25.4-25.5-25.4c0,0,0,0,0,0l-41.3,0c-6.7,0-13.1,2.7-17.9,7.5
	c-4.8,4.8-7.4,11.2-7.4,18l0,1.3c0,9.6,0,20.5,6.6,27.2c4.1,4.1,10.3,6.1,18.8,6.1c0,0,0,0,0,0L181.3,92C181.4,92,181.3,92,181.3,92
	z"/>
<rect x="181" y="90" display="none" fill="#FFFFFF" width="142" height="2"/>
<g id="seta6" display="none">
	
		<rect x="265" y="89.8" transform="matrix(0.7071 0.7071 -0.7071 0.7071 143.9073 -160.7751)" display="inline" fill="#FFFFFF" width="2" height="7"/>
	
		<rect x="262.5" y="87.3" transform="matrix(0.7071 0.7071 -0.7071 0.7071 140.3634 -162.2543)" display="inline" fill="#FFFFFF" width="7" height="2"/>
</g>
<g id="seta1" display="none">
	
		<rect x="112" y="80.8" transform="matrix(0.7071 0.7071 -0.7071 0.7071 92.7308 -55.224)" display="inline" fill="#FFFFFF" width="2" height="7"/>
	
		<rect x="109.5" y="78.3" transform="matrix(0.7071 0.7071 -0.7071 0.7071 89.1745 -56.697)" display="inline" fill="#FFFFFF" width="7" height="2"/>
</g>
<g id="seta2" display="none">
	
		<rect x="200" y="80.8" transform="matrix(0.7071 0.7071 -0.7071 0.7071 118.5053 -117.4492)" display="inline" fill="#FFFFFF" width="2" height="7"/>
	
		<rect x="197.5" y="78.3" transform="matrix(0.7071 0.7071 -0.7071 0.7071 114.9588 -118.9265)" display="inline" fill="#FFFFFF" width="7" height="2"/>
</g>
<g id="seta3" display="none">
	
		<rect x="248" y="53.8" transform="matrix(0.7071 0.7071 -0.7071 0.7071 112.4413 -161.8199)" display="inline" fill="#FFFFFF" width="7" height="2"/>
	
		<rect x="245.5" y="51.3" transform="matrix(0.7071 0.7071 -0.7071 0.7071 110.9577 -158.2568)" display="inline" fill="#FFFFFF" width="2" height="7"/>
</g>
<g id="seta4" display="none">
	
		<rect x="202" y="22.8" transform="matrix(0.7071 0.7071 -0.7071 0.7071 78.0582 -135.8598)" display="inline" fill="#FFFFFF" width="2" height="7"/>
	
		<rect x="199.5" y="30.3" transform="matrix(0.7071 0.7071 -0.7071 0.7071 81.6226 -134.3927)" display="inline" fill="#FFFFFF" width="7" height="2"/>
</g>
<g id="seta5" display="none">
	
		<rect x="149" y="53.8" transform="matrix(0.7071 0.7071 -0.7071 0.7071 83.4258 -91.789)" display="inline" fill="#FFFFFF" width="7" height="2"/>
	
		<rect x="156.5" y="51.3" transform="matrix(0.7071 0.7071 -0.7071 0.7071 84.8988 -95.3452)" display="inline" fill="#FFFFFF" width="2" height="7"/>
</g>
</svg>
