<?xml version="1.0" encoding="utf-8"?>
<!-- Generator: Adobe Illustrator 18.0.0, SVG Export Plug-In . SVG Version: 6.00 Build 0)  -->
<!DOCTYPE svg PUBLIC "-//W3C//DTD SVG 1.1//EN" "http://www.w3.org/Graphics/SVG/1.1/DTD/svg11.dtd" [
	<!ENTITY ns_extend "http://ns.adobe.com/Extensibility/1.0/">
	<!ENTITY ns_ai "http://ns.adobe.com/AdobeIllustrator/10.0/">
	<!ENTITY ns_graphs "http://ns.adobe.com/Graphs/1.0/">
	<!ENTITY ns_vars "http://ns.adobe.com/Variables/1.0/">
	<!ENTITY ns_imrep "http://ns.adobe.com/ImageReplacement/1.0/">
	<!ENTITY ns_sfw "http://ns.adobe.com/SaveForWeb/1.0/">
	<!ENTITY ns_custom "http://ns.adobe.com/GenericCustomNamespace/1.0/">
	<!ENTITY ns_adobe_xpath "http://ns.adobe.com/XPath/1.0/">
]>
<svg version="1.1" id="Layer_1" xmlns:x="&ns_extend;" xmlns:i="&ns_ai;" xmlns:graph="&ns_graphs;"
	 xmlns="http://www.w3.org/2000/svg" xmlns:xlink="http://www.w3.org/1999/xlink" x="0px" y="0px" viewBox="0 0 400 200"
	 enable-background="new 0 0 400 200" xml:space="preserve">
<metadata>
	<sfw  xmlns="&ns_sfw;">
		<slices></slices>
		<sliceSourceBounds  width="407.4" height="211.2" y="-205.8" x="96.9" bottomLeftOrigin="true"></sliceSourceBounds>
	</sfw>
</metadata>
<rect x="-3.1" y="-5.4" display="none" fill="#191919" width="407.4" height="211.2"/>
<g display="none">
	
		<linearGradient id="SVGID_1_" gradientUnits="userSpaceOnUse" x1="301.189" y1="103.159" x2="301.189" y2="93.8187" gradientTransform="matrix(1.1367 -1.138956e-002 0.1508 1.0318 -134.9252 -0.3899)">
		<stop  offset="0" style="stop-color:#BD9661"/>
		<stop  offset="0.4058" style="stop-color:#C39B64"/>
		<stop  offset="0.9548" style="stop-color:#D4A96D"/>
		<stop  offset="0.9972" style="stop-color:#D6AA6E"/>
	</linearGradient>
	<path display="inline" fill="url(#SVGID_1_)" d="M223.8,93.5c1.9,1.5,2.6,2.9,1.4,6.5c-1,2.8-2.6,3.3-4.4,1.7
		c-2.7-2.4-2-3.3-1.2-5.6S222,92,223.8,93.5z"/>
	
		<linearGradient id="SVGID_2_" gradientUnits="userSpaceOnUse" x1="219.5041" y1="119.6165" x2="219.5041" y2="89.2735" gradientTransform="matrix(0.999 4.401876e-002 -4.401876e-002 0.999 12.1962 -31.0362)">
		<stop  offset="0" style="stop-color:#6C7880"/>
		<stop  offset="4.063693e-002" style="stop-color:#6F7B83"/>
		<stop  offset="0.3524" style="stop-color:#808F97"/>
		<stop  offset="0.6695" style="stop-color:#8A9AA2"/>
		<stop  offset="0.9972" style="stop-color:#8D9EA6"/>
	</linearGradient>
	<path display="inline" fill="url(#SVGID_2_)" d="M225.6,98.1c4.4-17.3,8.6-26.1,8.6-26.1l-0.7-3.9c-0.8,0.6-8.6,9.1-14.1,28.4
		L225.6,98.1L225.6,98.1z"/>
</g>
<g display="none">
	
		<linearGradient id="SVGID_3_" gradientUnits="userSpaceOnUse" x1="1139.5892" y1="90.9707" x2="1139.5892" y2="81.6283" gradientTransform="matrix(-1.1361 3.971558e-002 -0.1043 1.0375 1551.8724 -37.9308)">
		<stop  offset="0" style="stop-color:#BD9661"/>
		<stop  offset="0.4058" style="stop-color:#C39B64"/>
		<stop  offset="0.9548" style="stop-color:#D4A96D"/>
		<stop  offset="0.9972" style="stop-color:#D6AA6E"/>
	</linearGradient>
	<path display="inline" fill="url(#SVGID_3_)" d="M246.6,92.6c-1.8,1.6-2.4,3-1.1,6.6c1.1,2.8,2.7,3.2,4.4,1.5
		c2.6-2.5,1.9-3.4,1-5.6C250,92.9,248.3,91.1,246.6,92.6z"/>
	
		<linearGradient id="SVGID_4_" gradientUnits="userSpaceOnUse" x1="243.5637" y1="95.642" x2="243.5637" y2="66.01" gradientTransform="matrix(1 -3.345203e-003 3.345203e-003 1 -0.6379 2.5163)">
		<stop  offset="0" style="stop-color:#6C7880"/>
		<stop  offset="4.063693e-002" style="stop-color:#6F7B83"/>
		<stop  offset="0.3524" style="stop-color:#808F97"/>
		<stop  offset="0.6695" style="stop-color:#8A9AA2"/>
		<stop  offset="0.9972" style="stop-color:#8D9EA6"/>
	</linearGradient>
	<path display="inline" fill="url(#SVGID_4_)" d="M244.9,97.3l6.1-1.9c-6.2-19-14.3-27.1-15.1-27.7l-0.5,3.9
		C235.4,71.7,239.9,80.3,244.9,97.3L244.9,97.3z"/>
</g>
<g display="none">
	
		<linearGradient id="SVGID_5_" gradientUnits="userSpaceOnUse" x1="375.0522" y1="104.4515" x2="375.0522" y2="95.1112" gradientTransform="matrix(-1.1367 -5.071853e-003 -0.1451 1.0326 616.9644 -4.4315)">
		<stop  offset="0" style="stop-color:#BD9661"/>
		<stop  offset="0.4058" style="stop-color:#C39B64"/>
		<stop  offset="0.9548" style="stop-color:#D4A96D"/>
		<stop  offset="0.9972" style="stop-color:#D6AA6E"/>
	</linearGradient>
	<path display="inline" fill="url(#SVGID_5_)" d="M174.6,92.4c-1.9,1.5-2.6,2.9-1.3,6.5c1,2.8,2.6,3.3,4.4,1.7
		c2.7-2.4,2-3.3,1.2-5.6C178,92.8,176.4,90.9,174.6,92.4z"/>
	
		<linearGradient id="SVGID_6_" gradientUnits="userSpaceOnUse" x1="310.9722" y1="107.6277" x2="299.4685" y2="97.2119" gradientTransform="matrix(-0.9988 4.957049e-002 4.957049e-002 0.9988 469.6749 -34.2596)">
		<stop  offset="0" style="stop-color:#6C7880"/>
		<stop  offset="0.2312" style="stop-color:#859198"/>
		<stop  offset="0.4807" style="stop-color:#98A4AB"/>
		<stop  offset="0.7347" style="stop-color:#A3B0B6"/>
		<stop  offset="0.9972" style="stop-color:#A7B4BA"/>
	</linearGradient>
	<path display="inline" fill="url(#SVGID_6_)" d="M172.8,97c-4.5-17.2-8.7-26.1-8.7-26.1l0.7-3.9c0.8,0.6,8.7,9.1,14.3,28.3
		L172.8,97L172.8,97z"/>
</g>
<g display="none">
	
		<linearGradient id="SVGID_7_" gradientUnits="userSpaceOnUse" x1="185.9838" y1="90.8261" x2="192.2261" y2="90.8261" gradientTransform="matrix(0.9239 0.3826 -0.3826 0.9239 44.6078 -62.709)">
		<stop  offset="0" style="stop-color:#BD9661"/>
		<stop  offset="0.4058" style="stop-color:#C39B64"/>
		<stop  offset="0.9548" style="stop-color:#D4A96D"/>
		<stop  offset="0.9972" style="stop-color:#D6AA6E"/>
	</linearGradient>
	<path display="inline" fill="url(#SVGID_7_)" d="M180.6,94.9c0,0,2.1,1.5,3.1,1.5c6.3,0.2,3-5.1,2.1-5.5c-0.8-0.4-2.9-0.7-2.9-0.7
		L180.6,94.9z"/>
	
		<linearGradient id="SVGID_8_" gradientUnits="userSpaceOnUse" x1="173.4415" y1="93.8369" x2="173.4415" y2="75.1469" gradientTransform="matrix(0.9239 0.3826 -0.3826 0.9239 44.6078 -62.709)">
		<stop  offset="0" style="stop-color:#6C7880"/>
		<stop  offset="0.2312" style="stop-color:#859198"/>
		<stop  offset="0.4807" style="stop-color:#98A4AB"/>
		<stop  offset="0.7347" style="stop-color:#A3B0B6"/>
		<stop  offset="0.9972" style="stop-color:#A7B4BA"/>
	</linearGradient>
	<path display="inline" fill="url(#SVGID_8_)" d="M161.2,72.5l1.6,3.1l3.2-6.7c4.2,0.8,3.6,14.3,18.3,21.3l0,0l-2.6,5.4
		C168.7,89.5,163.3,76.5,161.2,72.5L161.2,72.5z"/>
</g>
<g display="none">
	
		<linearGradient id="SVGID_9_" gradientUnits="userSpaceOnUse" x1="176.8768" y1="68.1242" x2="183.119" y2="68.1242" gradientTransform="matrix(0.9898 -0.1427 0.1427 0.9898 4.3051 38.9123)">
		<stop  offset="0" style="stop-color:#BD9661"/>
		<stop  offset="0.4058" style="stop-color:#C39B64"/>
		<stop  offset="0.9548" style="stop-color:#D4A96D"/>
		<stop  offset="0.9972" style="stop-color:#D6AA6E"/>
	</linearGradient>
	<path display="inline" fill="url(#SVGID_9_)" d="M189.5,83.8c0,0,2.5,0.2,3.4-0.3c5.5-3,0-5.9-1-5.8c-0.9,0.1-2.9,0.9-2.9,0.9
		L189.5,83.8z"/>
	
		<linearGradient id="SVGID_10_" gradientUnits="userSpaceOnUse" x1="165.4543" y1="71.3633" x2="165.4543" y2="53.3231" gradientTransform="matrix(0.9898 -0.1427 0.1427 0.9898 4.3051 38.9123)">
		<stop  offset="0" style="stop-color:#6C7880"/>
		<stop  offset="0.2312" style="stop-color:#859198"/>
		<stop  offset="0.4807" style="stop-color:#98A4AB"/>
		<stop  offset="0.7347" style="stop-color:#A3B0B6"/>
		<stop  offset="0.9972" style="stop-color:#A7B4BA"/>
	</linearGradient>
	<path display="inline" fill="url(#SVGID_10_)" d="M166.3,69.4c7.9,9.8,9.9,11.7,23.9,8.5l0,0l0.6,5.9c-13.7,2.9-19.3,2.2-27-8.8
		L166.3,69.4z"/>
</g>
<g display="none">
	
		<linearGradient id="SVGID_11_" gradientUnits="userSpaceOnUse" x1="201.3477" y1="69.1067" x2="206.6105" y2="69.1067" gradientTransform="matrix(4.489659e-011 -1 1 4.489659e-011 113.26 270.1674)">
		<stop  offset="0" style="stop-color:#BD9661"/>
		<stop  offset="0.4058" style="stop-color:#C39B64"/>
		<stop  offset="0.9548" style="stop-color:#D4A96D"/>
		<stop  offset="0.9972" style="stop-color:#D6AA6E"/>
	</linearGradient>
	<path display="inline" fill="url(#SVGID_11_)" d="M179,68.2c0,0,0-2.1,0.6-2.8c3.6-4.3,6.2,0.4,6.1,1.1c-0.1,0.8-1.1,2.3-1.1,2.3
		L179,68.2z"/>
	
		<linearGradient id="SVGID_12_" gradientUnits="userSpaceOnUse" x1="192.0791" y1="68.671" x2="202.14" y2="51.2451" gradientTransform="matrix(4.489659e-011 -1 1 4.489659e-011 113.26 270.1674)">
		<stop  offset="0" style="stop-color:#6C7880"/>
		<stop  offset="0.2312" style="stop-color:#859198"/>
		<stop  offset="0.4807" style="stop-color:#98A4AB"/>
		<stop  offset="0.7347" style="stop-color:#A3B0B6"/>
		<stop  offset="0.9972" style="stop-color:#A7B4BA"/>
	</linearGradient>
	<path display="inline" fill="url(#SVGID_12_)" d="M179.1,81.9c-1.1,1-2.7,1.7-4.3,1.6l0,0c-2.6,0-4.8-1.4-7.1-3.5l0,0
		c-2.3-2.2-5.4-8-5.4-8l4.2-2.3c2.5,4.1,3.5,4.6,5.2,6.2l0,0c1.7,1.7,2.8,2,3.1,1.9l0,0c0.2,0,0.3,0,0.7-0.3l0,0
		c0.3-0.3,0.8-0.9,1.3-1.8l0,0c0.9-1.8,1.7-4.7,2.3-8l0,0l5.6,1C183.5,74.2,182.4,78.9,179.1,81.9L179.1,81.9z"/>
</g>
<g display="none">
	<g display="inline">
		
			<linearGradient id="SVGID_13_" gradientUnits="userSpaceOnUse" x1="1065.9369" y1="95.8339" x2="1065.9369" y2="86.4915" gradientTransform="matrix(1.1363 3.340098e-002 0.1101 1.0369 -1070.0159 -32.5969)">
			<stop  offset="0" style="stop-color:#BD9661"/>
			<stop  offset="0.4058" style="stop-color:#C39B64"/>
			<stop  offset="0.9548" style="stop-color:#D4A96D"/>
			<stop  offset="0.9972" style="stop-color:#D6AA6E"/>
		</linearGradient>
		<path fill="url(#SVGID_13_)" d="M152.8,93.3c1.8,1.6,2.5,3,1.1,6.6c-1,2.8-2.7,3.2-4.4,1.5c-2.6-2.5-1.9-3.4-1-5.6
			C149.5,93.5,151.1,91.8,152.8,93.3z"/>
		
			<linearGradient id="SVGID_14_" gradientUnits="userSpaceOnUse" x1="321.1734" y1="85.6145" x2="328.5371" y2="81.3413" gradientTransform="matrix(-1 2.212614e-003 2.212614e-003 1 482.6758 -0.7591)">
			<stop  offset="0" style="stop-color:#6C7880"/>
			<stop  offset="0.2312" style="stop-color:#859198"/>
			<stop  offset="0.4807" style="stop-color:#98A4AB"/>
			<stop  offset="0.7347" style="stop-color:#A3B0B6"/>
			<stop  offset="0.9972" style="stop-color:#A7B4BA"/>
		</linearGradient>
		<path fill="url(#SVGID_14_)" d="M154.5,98l-6.1-1.9c6.1-19,14.1-27.2,14.9-27.8l0.6,3.9C163.9,72.3,159.5,80.9,154.5,98L154.5,98z
			"/>
	</g>
	<g display="inline">
		<path fill="#20211D" d="M151.4,128.5c1.5,0.2,2.5-0.1,2.5-0.1s0.1-11.9,0.7-19.6c0.6-7.6,1.6-12.3,1.6-12.3l15.9,0.2
			c0,0,1.1,4.4,2,11.9c0.9,7.7,1.7,19.2,1.7,19.2s1.1,0.4,2.5,0.1l1.2,2.7c-6.6,1.3-14.1,0-14.1,0s-0.2-10.1-1-24
			c-0.2,13.9,0.1,24,0.1,24s-7.5,1.7-14.1,0.7L151.4,128.5z"/>
		
			<linearGradient id="SVGID_15_" gradientUnits="userSpaceOnUse" x1="320.5067" y1="107.7175" x2="305.1428" y2="81.1065" gradientTransform="matrix(-0.9997 2.409443e-002 2.409443e-002 0.9997 476.8738 -16.4604)">
			<stop  offset="0" style="stop-color:#6C7880"/>
			<stop  offset="0.2312" style="stop-color:#859198"/>
			<stop  offset="0.4807" style="stop-color:#98A4AB"/>
			<stop  offset="0.7347" style="stop-color:#A3B0B6"/>
			<stop  offset="0.9972" style="stop-color:#A7B4BA"/>
		</linearGradient>
		<path fill="url(#SVGID_15_)" d="M164.1,66.7l2.9,2.8c1.4,9.2,3.3,21.1,5.5,28.5l-16.7-0.7C158.1,73,164.1,66.7,164.1,66.7z"/>
		
			<linearGradient id="SVGID_16_" gradientUnits="userSpaceOnUse" x1="313.5211" y1="91.9974" x2="316.221" y2="91.9974" gradientTransform="matrix(-0.9997 2.409443e-002 2.409443e-002 0.9997 476.8738 -16.4604)">
			<stop  offset="0" style="stop-color:#212121"/>
			<stop  offset="0.2515" style="stop-color:#242424"/>
			<stop  offset="0.9972" style="stop-color:#282828"/>
		</linearGradient>
		<path fill="url(#SVGID_16_)" d="M165,70.7c0,0.2,0.1,19.2,0.9,24.6l-2.7,0.1c-0.2-14.2,0.5-24.3,0.5-24.6L165,70.7z"/>
		
			<linearGradient id="SVGID_17_" gradientUnits="userSpaceOnUse" x1="313.0591" y1="78.8752" x2="312.7281" y2="65.137" gradientTransform="matrix(-0.9997 2.409443e-002 2.409443e-002 0.9997 476.8738 -16.4604)">
			<stop  offset="0" style="stop-color:#B5905D"/>
			<stop  offset="0.5079" style="stop-color:#C89F67"/>
			<stop  offset="0.9972" style="stop-color:#D6AA6E"/>
		</linearGradient>
		<path fill="url(#SVGID_17_)" d="M162.7,58.2c1.4-0.3,2.2,0.7,3.8,0.8c1.3,0.1,2.5,0.9,3.7,1.3c0.1,0,0.2,0.1,0.2,0.1
			c0.3,2.8-0.3,7-1.4,8.2c-1.8,1.4-6.6,1.3-6.8,1c-0.2-0.4-1.2-5.4-1-9.2C161.6,59.4,162,58.4,162.7,58.2z"/>
		<path fill="#A08B35" d="M169.7,58c0.3,0.5,0.5,1.4,0.7,2.5c-0.1,0-0.2-0.1-0.2-0.1c-1.2-0.5-2.4-1.2-3.7-1.3
			c-1.6-0.1-2.4-1.2-3.8-0.8c-0.6,0.2-1.1,1.2-1.5,2.3c0.1-1.3,0.2-2.4,0.6-3C163.3,55.1,168.5,56.3,169.7,58z"/>
	</g>
</g>
<g display="none">
	
		<linearGradient id="SVGID_18_" gradientUnits="userSpaceOnUse" x1="173.4315" y1="94.7894" x2="179.6738" y2="94.7894" gradientTransform="matrix(-0.9239 0.3826 0.3826 0.9239 341.8848 -62.709)">
		<stop  offset="0" style="stop-color:#BD9661"/>
		<stop  offset="0.4058" style="stop-color:#C39B64"/>
		<stop  offset="0.9548" style="stop-color:#D4A96D"/>
		<stop  offset="0.9972" style="stop-color:#D6AA6E"/>
	</linearGradient>
	<path display="inline" fill="url(#SVGID_18_)" d="M216.6,89c0,0-2.1,0.3-2.9,0.7c-0.8,0.4-4.1,5.7,2.1,5.5c1,0,3.1-1.5,3.1-1.5
		L216.6,89z"/>
	
		<linearGradient id="SVGID_19_" gradientUnits="userSpaceOnUse" x1="174.1457" y1="98.4096" x2="149.5854" y2="79.5618" gradientTransform="matrix(-0.9239 0.3826 0.3826 0.9239 341.8848 -62.709)">
		<stop  offset="0" style="stop-color:#6C7880"/>
		<stop  offset="4.063693e-002" style="stop-color:#6F7B83"/>
		<stop  offset="0.3524" style="stop-color:#808F97"/>
		<stop  offset="0.6695" style="stop-color:#8A9AA2"/>
		<stop  offset="0.9972" style="stop-color:#8D9EA6"/>
	</linearGradient>
	<path display="inline" fill="url(#SVGID_19_)" d="M238.4,71.4c-2.1,4.1-7.5,17-20.5,23.1l-2.6-5.4l0,0
		c14.6-6.9,14.5-19.1,18.3-21.3l3.2,6.7L238.4,71.4L238.4,71.4z"/>
</g>
<g display="none">
	
		<linearGradient id="SVGID_20_" gradientUnits="userSpaceOnUse" x1="164.0602" y1="65.1236" x2="170.3024" y2="65.1236" gradientTransform="matrix(-0.9898 -0.1427 -0.1427 0.9898 382.1874 38.9123)">
		<stop  offset="0" style="stop-color:#BD9661"/>
		<stop  offset="0.4058" style="stop-color:#C39B64"/>
		<stop  offset="0.9548" style="stop-color:#D4A96D"/>
		<stop  offset="0.9972" style="stop-color:#D6AA6E"/>
	</linearGradient>
	<path display="inline" fill="url(#SVGID_20_)" d="M210.6,77.4c0,0-1.9-0.8-2.9-0.9c-0.9-0.1-6.5,2.8-1,5.8c0.9,0.5,3.4,0.3,3.4,0.3
		L210.6,77.4z"/>
	
		<linearGradient id="SVGID_21_" gradientUnits="userSpaceOnUse" x1="157.563" y1="71.2053" x2="148.3735" y2="48.2266" gradientTransform="matrix(-0.9898 -0.1427 -0.1427 0.9898 382.1874 38.9123)">
		<stop  offset="0" style="stop-color:#6C7880"/>
		<stop  offset="4.063693e-002" style="stop-color:#6F7B83"/>
		<stop  offset="0.3524" style="stop-color:#808F97"/>
		<stop  offset="0.6695" style="stop-color:#8A9AA2"/>
		<stop  offset="0.9972" style="stop-color:#8D9EA6"/>
	</linearGradient>
	<path display="inline" fill="url(#SVGID_21_)" d="M235.9,74c-7.7,10.9-13.3,11.7-27,8.8l0.6-5.9l0,0c14,3.2,16,1.3,23.9-8.5
		L235.9,74z"/>
</g>
<g>
	
		<linearGradient id="SVGID_22_" gradientUnits="userSpaceOnUse" x1="202.489" y1="55.9931" x2="207.7517" y2="55.9931" gradientTransform="matrix(0 -1 -1 0 273.2326 270.1674)">
		<stop  offset="0" style="stop-color:#BD9661"/>
		<stop  offset="0.4058" style="stop-color:#C39B64"/>
		<stop  offset="0.9548" style="stop-color:#D4A96D"/>
		<stop  offset="0.9972" style="stop-color:#D6AA6E"/>
	</linearGradient>
	<path fill="url(#SVGID_22_)" d="M220.6,67c0,0,0-2.1-0.6-2.8c-3.6-4.3-6.2,0.4-6.1,1.1c0.1,0.8,1.1,2.3,1.1,2.3L220.6,67z"/>
	
		<linearGradient id="SVGID_23_" gradientUnits="userSpaceOnUse" x1="193.2204" y1="55.5574" x2="203.2812" y2="38.1315" gradientTransform="matrix(0 -1 -1 0 273.2326 270.1674)">
		<stop  offset="0" style="stop-color:#6C7880"/>
		<stop  offset="4.063693e-002" style="stop-color:#6F7B83"/>
		<stop  offset="0.3524" style="stop-color:#808F97"/>
		<stop  offset="0.6695" style="stop-color:#8A9AA2"/>
		<stop  offset="0.9972" style="stop-color:#8D9EA6"/>
	</linearGradient>
	<path fill="url(#SVGID_23_)" d="M220.5,80.8c1.1,1,2.7,1.7,4.3,1.6l0,0c2.6,0,4.8-1.4,7.1-3.5l0,0c2.3-2.2,5.4-8,5.4-8l-4.2-2.3
		c-2.5,4.1-3.5,4.6-5.2,6.2l0,0c-1.7,1.7-2.8,2-3.1,1.9l0,0c-0.2,0-0.3,0-0.7-0.3l0,0c-0.3-0.3-0.8-0.9-1.3-1.8l0,0
		c-0.9-1.8-1.7-4.7-2.3-8l0,0l-5.6,1C216.1,73.1,217.2,77.8,220.5,80.8L220.5,80.8z"/>
</g>
<g display="none">
	<path display="inline" fill="#20211D" d="M248.2,128.4c-1.4,0.2-2.5-0.1-2.5-0.1s-0.1-11.9-0.8-19.6c-0.6-7.6-1.6-12.3-1.6-12.3
		l-15.9,0.3c0,0-1.1,4.4-2,11.9c-0.9,7.7-1.6,19.2-1.6,19.2s-1.1,0.4-2.5,0.1l-1.2,2.7c6.6,1.3,14.1-0.1,14.1-0.1s0.1-10.1,0.9-24
		c0.3,13.9,0,24,0,24s7.5,1.7,14.1,0.6L248.2,128.4z"/>
	
		<linearGradient id="SVGID_24_" gradientUnits="userSpaceOnUse" x1="237.3327" y1="107.7593" x2="221.9688" y2="81.1483" gradientTransform="matrix(0.9998 1.853788e-002 -1.853788e-002 0.9998 5.0964 -13.1973)">
		<stop  offset="0" style="stop-color:#6C7880"/>
		<stop  offset="4.063693e-002" style="stop-color:#6F7B83"/>
		<stop  offset="0.3524" style="stop-color:#808F97"/>
		<stop  offset="0.6695" style="stop-color:#8A9AA2"/>
		<stop  offset="0.9972" style="stop-color:#8D9EA6"/>
	</linearGradient>
	<path display="inline" fill="url(#SVGID_24_)" d="M235.2,66.7l-2.9,2.8c-1.4,9.2-3.2,21.1-5.3,28.5l16.7-0.8
		C241.2,73,235.2,66.7,235.2,66.7z"/>
	
		<linearGradient id="SVGID_25_" gradientUnits="userSpaceOnUse" x1="230.3471" y1="92.0392" x2="233.047" y2="92.0392" gradientTransform="matrix(0.9998 1.853788e-002 -1.853788e-002 0.9998 5.0964 -13.1973)">
		<stop  offset="0" style="stop-color:#212121"/>
		<stop  offset="0.2515" style="stop-color:#242424"/>
		<stop  offset="0.9972" style="stop-color:#282828"/>
	</linearGradient>
	<path display="inline" fill="url(#SVGID_25_)" d="M234.2,70.7c0,0.2,0,19.2-0.8,24.6l2.7,0.1c0.1-14.2-0.6-24.3-0.6-24.6
		L234.2,70.7z"/>
	
		<linearGradient id="SVGID_26_" gradientUnits="userSpaceOnUse" x1="229.8395" y1="78.9071" x2="229.5847" y2="65.1632" gradientTransform="matrix(0.9998 1.853788e-002 -1.853788e-002 0.9998 5.0964 -13.1973)">
		<stop  offset="0" style="stop-color:#B5905D"/>
		<stop  offset="0.5079" style="stop-color:#C89F67"/>
		<stop  offset="0.9972" style="stop-color:#D6AA6E"/>
	</linearGradient>
	<path display="inline" fill="url(#SVGID_26_)" d="M236.6,58.2c-1.4-0.3-2.2,0.7-3.7,0.9c-1.3,0.1-2.5,0.9-3.7,1.3
		c-0.1,0-0.2,0.1-0.2,0.1c-0.3,2.8,0.4,7,1.4,8.2c1.8,1.4,6.6,1.3,6.8,1c0.2-0.4,1.1-5.4,0.9-9.2C237.7,59.4,237.2,58.4,236.6,58.2z
		"/>
	<path display="inline" fill="#44473D" d="M229.5,58.1c-0.3,0.5-0.5,1.4-0.7,2.5c0.1,0,0.1-0.1,0.2-0.1c1.2-0.5,2.4-1.2,3.7-1.3
		c1.6-0.2,2.4-1.2,3.7-0.9c0.6,0.2,1.1,1.2,1.5,2.3c-0.1-1.3-0.2-2.4-0.6-3C235.9,55.1,230.7,56.3,229.5,58.1z"/>
</g>
</svg>
