<?xml version="1.0" encoding="utf-8"?>
<!-- Generator: Adobe Illustrator 18.0.0, SVG Export Plug-In . SVG Version: 6.00 Build 0)  -->
<!DOCTYPE svg PUBLIC "-//W3C//DTD SVG 1.1//EN" "http://www.w3.org/Graphics/SVG/1.1/DTD/svg11.dtd" [
	<!ENTITY ns_extend "http://ns.adobe.com/Extensibility/1.0/">
	<!ENTITY ns_ai "http://ns.adobe.com/AdobeIllustrator/10.0/">
	<!ENTITY ns_graphs "http://ns.adobe.com/Graphs/1.0/">
	<!ENTITY ns_vars "http://ns.adobe.com/Variables/1.0/">
	<!ENTITY ns_imrep "http://ns.adobe.com/ImageReplacement/1.0/">
	<!ENTITY ns_sfw "http://ns.adobe.com/SaveForWeb/1.0/">
	<!ENTITY ns_custom "http://ns.adobe.com/GenericCustomNamespace/1.0/">
	<!ENTITY ns_adobe_xpath "http://ns.adobe.com/XPath/1.0/">
]>
<svg version="1.1" id="Layer_1" xmlns:x="&ns_extend;" xmlns:i="&ns_ai;" xmlns:graph="&ns_graphs;"
	 xmlns="http://www.w3.org/2000/svg" xmlns:xlink="http://www.w3.org/1999/xlink" x="0px" y="0px" viewBox="0 0 400 200"
	 enable-background="new 0 0 400 200" xml:space="preserve">
<metadata>
	<sfw  xmlns="&ns_sfw;">
		<slices></slices>
		<sliceSourceBounds  width="418.8" height="300" x="-7.6" y="-267" bottomLeftOrigin="true"></sliceSourceBounds>
	</sfw>
</metadata>
<rect x="-1.8" y="-2.9" display="none" fill="#191919" width="405.3" height="207.8"/>
<g id="fundo" display="none">
	<g display="inline">
		<rect x="123.5" y="51" fill="#032540" width="152.4" height="98.1"/>
		<g>
			<linearGradient id="SVGID_1_" gradientUnits="userSpaceOnUse" x1="199.9674" y1="137.6122" x2="199.9674" y2="142.8461">
				<stop  offset="0" style="stop-color:#27567D"/>
				<stop  offset="0.8256" style="stop-color:#0B406C"/>
				<stop  offset="1" style="stop-color:#043B68"/>
			</linearGradient>
			<rect x="123.7" y="137.6" fill="url(#SVGID_1_)" width="152.6" height="5.2"/>
			<linearGradient id="SVGID_2_" gradientUnits="userSpaceOnUse" x1="199.9674" y1="143.871" x2="199.9674" y2="149.1048">
				<stop  offset="0" style="stop-color:#27567D"/>
				<stop  offset="0.8256" style="stop-color:#0B406C"/>
				<stop  offset="1" style="stop-color:#043B68"/>
			</linearGradient>
			<rect x="123.7" y="143.9" fill="url(#SVGID_2_)" width="152.6" height="5.2"/>
			<linearGradient id="SVGID_3_" gradientUnits="userSpaceOnUse" x1="199.9674" y1="125.0948" x2="199.9674" y2="130.3287">
				<stop  offset="0" style="stop-color:#27567D"/>
				<stop  offset="0.8256" style="stop-color:#0B406C"/>
				<stop  offset="1" style="stop-color:#043B68"/>
			</linearGradient>
			<rect x="123.7" y="125.1" fill="url(#SVGID_3_)" width="152.6" height="5.2"/>
			<linearGradient id="SVGID_4_" gradientUnits="userSpaceOnUse" x1="199.9674" y1="56.2487" x2="199.9674" y2="61.4826">
				<stop  offset="0" style="stop-color:#27567D"/>
				<stop  offset="0.8256" style="stop-color:#0B406C"/>
				<stop  offset="1" style="stop-color:#043B68"/>
			</linearGradient>
			<rect x="123.7" y="56.2" fill="url(#SVGID_4_)" width="152.6" height="5.2"/>
			<linearGradient id="SVGID_5_" gradientUnits="userSpaceOnUse" x1="199.9674" y1="49.99" x2="199.9674" y2="55.2239">
				<stop  offset="0" style="stop-color:#27567D"/>
				<stop  offset="0.8256" style="stop-color:#0B406C"/>
				<stop  offset="1" style="stop-color:#043B68"/>
			</linearGradient>
			<rect x="123.7" y="50" fill="url(#SVGID_5_)" width="152.6" height="5.2"/>
			<linearGradient id="SVGID_6_" gradientUnits="userSpaceOnUse" x1="199.9674" y1="62.5075" x2="199.9674" y2="67.7413">
				<stop  offset="0" style="stop-color:#27567D"/>
				<stop  offset="0.8256" style="stop-color:#0B406C"/>
				<stop  offset="1" style="stop-color:#043B68"/>
			</linearGradient>
			<rect x="123.7" y="62.5" fill="url(#SVGID_6_)" width="152.6" height="5.2"/>
			<linearGradient id="SVGID_7_" gradientUnits="userSpaceOnUse" x1="199.9674" y1="68.7662" x2="199.9674" y2="74.0001">
				<stop  offset="0" style="stop-color:#27567D"/>
				<stop  offset="0.8256" style="stop-color:#0B406C"/>
				<stop  offset="1" style="stop-color:#043B68"/>
			</linearGradient>
			<rect x="123.7" y="68.8" fill="url(#SVGID_7_)" width="152.6" height="5.2"/>
			<linearGradient id="SVGID_8_" gradientUnits="userSpaceOnUse" x1="199.9674" y1="75.0249" x2="199.9674" y2="80.2588">
				<stop  offset="0" style="stop-color:#27567D"/>
				<stop  offset="0.8256" style="stop-color:#0B406C"/>
				<stop  offset="1" style="stop-color:#043B68"/>
			</linearGradient>
			<rect x="123.7" y="75" fill="url(#SVGID_8_)" width="152.6" height="5.2"/>
			<linearGradient id="SVGID_9_" gradientUnits="userSpaceOnUse" x1="199.9674" y1="81.2837" x2="199.9674" y2="86.5175">
				<stop  offset="0" style="stop-color:#27567D"/>
				<stop  offset="0.8256" style="stop-color:#0B406C"/>
				<stop  offset="1" style="stop-color:#043B68"/>
			</linearGradient>
			<rect x="123.7" y="81.3" fill="url(#SVGID_9_)" width="152.6" height="5.2"/>
			<linearGradient id="SVGID_10_" gradientUnits="userSpaceOnUse" x1="199.9674" y1="87.5424" x2="199.9674" y2="92.7763">
				<stop  offset="0" style="stop-color:#27567D"/>
				<stop  offset="0.8256" style="stop-color:#0B406C"/>
				<stop  offset="1" style="stop-color:#043B68"/>
			</linearGradient>
			<rect x="123.7" y="87.5" fill="url(#SVGID_10_)" width="152.6" height="5.2"/>
			<linearGradient id="SVGID_11_" gradientUnits="userSpaceOnUse" x1="199.9674" y1="93.8011" x2="199.9674" y2="99.035">
				<stop  offset="0" style="stop-color:#27567D"/>
				<stop  offset="0.8256" style="stop-color:#0B406C"/>
				<stop  offset="1" style="stop-color:#043B68"/>
			</linearGradient>
			<rect x="123.7" y="93.8" fill="url(#SVGID_11_)" width="152.6" height="5.2"/>
			<linearGradient id="SVGID_12_" gradientUnits="userSpaceOnUse" x1="199.9674" y1="100.0599" x2="199.9674" y2="105.2937">
				<stop  offset="0" style="stop-color:#27567D"/>
				<stop  offset="0.8256" style="stop-color:#0B406C"/>
				<stop  offset="1" style="stop-color:#043B68"/>
			</linearGradient>
			<rect x="123.7" y="100.1" fill="url(#SVGID_12_)" width="152.6" height="5.2"/>
			<linearGradient id="SVGID_13_" gradientUnits="userSpaceOnUse" x1="199.9674" y1="106.3186" x2="199.9674" y2="111.5525">
				<stop  offset="0" style="stop-color:#27567D"/>
				<stop  offset="0.8256" style="stop-color:#0B406C"/>
				<stop  offset="1" style="stop-color:#043B68"/>
			</linearGradient>
			<rect x="123.7" y="106.3" fill="url(#SVGID_13_)" width="152.6" height="5.2"/>
			<linearGradient id="SVGID_14_" gradientUnits="userSpaceOnUse" x1="199.9674" y1="112.5773" x2="199.9674" y2="117.8112">
				<stop  offset="0" style="stop-color:#27567D"/>
				<stop  offset="0.8256" style="stop-color:#0B406C"/>
				<stop  offset="1" style="stop-color:#043B68"/>
			</linearGradient>
			<rect x="123.7" y="112.6" fill="url(#SVGID_14_)" width="152.6" height="5.2"/>
			<linearGradient id="SVGID_15_" gradientUnits="userSpaceOnUse" x1="199.9674" y1="118.836" x2="199.9674" y2="124.0699">
				<stop  offset="0" style="stop-color:#27567D"/>
				<stop  offset="0.8256" style="stop-color:#0B406C"/>
				<stop  offset="1" style="stop-color:#043B68"/>
			</linearGradient>
			<rect x="123.7" y="118.8" fill="url(#SVGID_15_)" width="152.6" height="5.2"/>
			<linearGradient id="SVGID_16_" gradientUnits="userSpaceOnUse" x1="199.9674" y1="131.3535" x2="199.9674" y2="136.5874">
				<stop  offset="0" style="stop-color:#27567D"/>
				<stop  offset="0.8256" style="stop-color:#0B406C"/>
				<stop  offset="1" style="stop-color:#043B68"/>
			</linearGradient>
			<rect x="123.7" y="131.4" fill="url(#SVGID_16_)" width="152.6" height="5.2"/>
		</g>
		<g>
			<rect x="250.2" y="50" fill="#032540" width="26.2" height="99.1"/>
			<g>
				<linearGradient id="SVGID_17_" gradientUnits="userSpaceOnUse" x1="250.2715" y1="140.7416" x2="276.2657" y2="140.7416">
					<stop  offset="0" style="stop-color:#043B68"/>
					<stop  offset="0.1744" style="stop-color:#0B406C"/>
					<stop  offset="1" style="stop-color:#27567D"/>
				</linearGradient>
				<rect x="250.3" y="138.1" fill="url(#SVGID_17_)" width="26" height="5.2"/>
				<linearGradient id="SVGID_18_" gradientUnits="userSpaceOnUse" x1="250.2715" y1="147.0003" x2="276.2657" y2="147.0003">
					<stop  offset="0" style="stop-color:#043B68"/>
					<stop  offset="0.1744" style="stop-color:#0B406C"/>
					<stop  offset="1" style="stop-color:#27567D"/>
				</linearGradient>
				<rect x="250.3" y="144.4" fill="url(#SVGID_18_)" width="26" height="5.2"/>
				<linearGradient id="SVGID_19_" gradientUnits="userSpaceOnUse" x1="250.2715" y1="128.2242" x2="276.2657" y2="128.2242">
					<stop  offset="0" style="stop-color:#043B68"/>
					<stop  offset="0.1744" style="stop-color:#0B406C"/>
					<stop  offset="1" style="stop-color:#27567D"/>
				</linearGradient>
				<rect x="250.3" y="125.6" fill="url(#SVGID_19_)" width="26" height="5.2"/>
				<linearGradient id="SVGID_20_" gradientUnits="userSpaceOnUse" x1="250.2715" y1="59.3781" x2="276.2657" y2="59.3781">
					<stop  offset="0" style="stop-color:#043B68"/>
					<stop  offset="0.1744" style="stop-color:#0B406C"/>
					<stop  offset="1" style="stop-color:#27567D"/>
				</linearGradient>
				<rect x="250.3" y="56.8" fill="url(#SVGID_20_)" width="26" height="5.2"/>
				<linearGradient id="SVGID_21_" gradientUnits="userSpaceOnUse" x1="250.2715" y1="53.1194" x2="276.2657" y2="53.1194">
					<stop  offset="0" style="stop-color:#043B68"/>
					<stop  offset="0.1744" style="stop-color:#0B406C"/>
					<stop  offset="1" style="stop-color:#27567D"/>
				</linearGradient>
				<rect x="250.3" y="50.5" fill="url(#SVGID_21_)" width="26" height="5.2"/>
				<linearGradient id="SVGID_22_" gradientUnits="userSpaceOnUse" x1="250.2715" y1="65.6368" x2="276.2657" y2="65.6368">
					<stop  offset="0" style="stop-color:#043B68"/>
					<stop  offset="0.1744" style="stop-color:#0B406C"/>
					<stop  offset="1" style="stop-color:#27567D"/>
				</linearGradient>
				<rect x="250.3" y="63" fill="url(#SVGID_22_)" width="26" height="5.2"/>
				<linearGradient id="SVGID_23_" gradientUnits="userSpaceOnUse" x1="250.2715" y1="71.8956" x2="276.2657" y2="71.8956">
					<stop  offset="0" style="stop-color:#043B68"/>
					<stop  offset="0.1744" style="stop-color:#0B406C"/>
					<stop  offset="1" style="stop-color:#27567D"/>
				</linearGradient>
				<rect x="250.3" y="69.3" fill="url(#SVGID_23_)" width="26" height="5.2"/>
				<linearGradient id="SVGID_24_" gradientUnits="userSpaceOnUse" x1="250.2715" y1="78.1543" x2="276.2657" y2="78.1543">
					<stop  offset="0" style="stop-color:#043B68"/>
					<stop  offset="0.1744" style="stop-color:#0B406C"/>
					<stop  offset="1" style="stop-color:#27567D"/>
				</linearGradient>
				<rect x="250.3" y="75.5" fill="url(#SVGID_24_)" width="26" height="5.2"/>
				<linearGradient id="SVGID_25_" gradientUnits="userSpaceOnUse" x1="250.2715" y1="84.413" x2="276.2657" y2="84.413">
					<stop  offset="0" style="stop-color:#043B68"/>
					<stop  offset="0.1744" style="stop-color:#0B406C"/>
					<stop  offset="1" style="stop-color:#27567D"/>
				</linearGradient>
				<rect x="250.3" y="81.8" fill="url(#SVGID_25_)" width="26" height="5.2"/>
				<linearGradient id="SVGID_26_" gradientUnits="userSpaceOnUse" x1="250.2715" y1="90.6718" x2="276.2657" y2="90.6718">
					<stop  offset="0" style="stop-color:#043B68"/>
					<stop  offset="0.1744" style="stop-color:#0B406C"/>
					<stop  offset="1" style="stop-color:#27567D"/>
				</linearGradient>
				<rect x="250.3" y="88.1" fill="url(#SVGID_26_)" width="26" height="5.2"/>
				<linearGradient id="SVGID_27_" gradientUnits="userSpaceOnUse" x1="250.2715" y1="96.9305" x2="276.2657" y2="96.9305">
					<stop  offset="0" style="stop-color:#043B68"/>
					<stop  offset="0.1744" style="stop-color:#0B406C"/>
					<stop  offset="1" style="stop-color:#27567D"/>
				</linearGradient>
				<rect x="250.3" y="94.3" fill="url(#SVGID_27_)" width="26" height="5.2"/>
				<linearGradient id="SVGID_28_" gradientUnits="userSpaceOnUse" x1="250.2715" y1="103.1892" x2="276.2657" y2="103.1892">
					<stop  offset="0" style="stop-color:#043B68"/>
					<stop  offset="0.1744" style="stop-color:#0B406C"/>
					<stop  offset="1" style="stop-color:#27567D"/>
				</linearGradient>
				<rect x="250.3" y="100.6" fill="url(#SVGID_28_)" width="26" height="5.2"/>
				<linearGradient id="SVGID_29_" gradientUnits="userSpaceOnUse" x1="250.2715" y1="109.448" x2="276.2657" y2="109.448">
					<stop  offset="0" style="stop-color:#043B68"/>
					<stop  offset="0.1744" style="stop-color:#0B406C"/>
					<stop  offset="1" style="stop-color:#27567D"/>
				</linearGradient>
				<rect x="250.3" y="106.8" fill="url(#SVGID_29_)" width="26" height="5.2"/>
				<linearGradient id="SVGID_30_" gradientUnits="userSpaceOnUse" x1="250.2715" y1="115.7067" x2="276.2657" y2="115.7067">
					<stop  offset="0" style="stop-color:#043B68"/>
					<stop  offset="0.1744" style="stop-color:#0B406C"/>
					<stop  offset="1" style="stop-color:#27567D"/>
				</linearGradient>
				<rect x="250.3" y="113.1" fill="url(#SVGID_30_)" width="26" height="5.2"/>
				<linearGradient id="SVGID_31_" gradientUnits="userSpaceOnUse" x1="250.2715" y1="121.9654" x2="276.2657" y2="121.9654">
					<stop  offset="0" style="stop-color:#043B68"/>
					<stop  offset="0.1744" style="stop-color:#0B406C"/>
					<stop  offset="1" style="stop-color:#27567D"/>
				</linearGradient>
				<rect x="250.3" y="119.3" fill="url(#SVGID_31_)" width="26" height="5.2"/>
				<linearGradient id="SVGID_32_" gradientUnits="userSpaceOnUse" x1="250.2715" y1="134.4829" x2="276.2657" y2="134.4829">
					<stop  offset="0" style="stop-color:#043B68"/>
					<stop  offset="0.1744" style="stop-color:#0B406C"/>
					<stop  offset="1" style="stop-color:#27567D"/>
				</linearGradient>
				<rect x="250.3" y="131.9" fill="url(#SVGID_32_)" width="26" height="5.2"/>
			</g>
		</g>
		<g>
			<rect x="123.1" y="50.1" fill="#032540" width="26.2" height="99.1"/>
			<g>
				<linearGradient id="SVGID_33_" gradientUnits="userSpaceOnUse" x1="123.175" y1="140.8214" x2="149.1693" y2="140.8214">
					<stop  offset="0" style="stop-color:#27567D"/>
					<stop  offset="0.8256" style="stop-color:#0B406C"/>
					<stop  offset="1" style="stop-color:#043B68"/>
				</linearGradient>
				<rect x="123.2" y="138.2" fill="url(#SVGID_33_)" width="26" height="5.2"/>
				<linearGradient id="SVGID_34_" gradientUnits="userSpaceOnUse" x1="123.175" y1="147.0801" x2="149.1693" y2="147.0801">
					<stop  offset="0" style="stop-color:#27567D"/>
					<stop  offset="0.8256" style="stop-color:#0B406C"/>
					<stop  offset="1" style="stop-color:#043B68"/>
				</linearGradient>
				<rect x="123.2" y="144.5" fill="url(#SVGID_34_)" width="26" height="5.2"/>
				<linearGradient id="SVGID_35_" gradientUnits="userSpaceOnUse" x1="123.175" y1="128.3039" x2="149.1693" y2="128.3039">
					<stop  offset="0" style="stop-color:#27567D"/>
					<stop  offset="0.8256" style="stop-color:#0B406C"/>
					<stop  offset="1" style="stop-color:#043B68"/>
				</linearGradient>
				<rect x="123.2" y="125.7" fill="url(#SVGID_35_)" width="26" height="5.2"/>
				<linearGradient id="SVGID_36_" gradientUnits="userSpaceOnUse" x1="123.175" y1="59.4579" x2="149.1693" y2="59.4579">
					<stop  offset="0" style="stop-color:#27567D"/>
					<stop  offset="0.8256" style="stop-color:#0B406C"/>
					<stop  offset="1" style="stop-color:#043B68"/>
				</linearGradient>
				<rect x="123.2" y="56.8" fill="url(#SVGID_36_)" width="26" height="5.2"/>
				<linearGradient id="SVGID_37_" gradientUnits="userSpaceOnUse" x1="123.175" y1="53.1992" x2="149.1693" y2="53.1992">
					<stop  offset="0" style="stop-color:#27567D"/>
					<stop  offset="0.8256" style="stop-color:#0B406C"/>
					<stop  offset="1" style="stop-color:#043B68"/>
				</linearGradient>
				<rect x="123.2" y="50.6" fill="url(#SVGID_37_)" width="26" height="5.2"/>
				<linearGradient id="SVGID_38_" gradientUnits="userSpaceOnUse" x1="123.175" y1="65.7166" x2="149.1693" y2="65.7166">
					<stop  offset="0" style="stop-color:#27567D"/>
					<stop  offset="0.8256" style="stop-color:#0B406C"/>
					<stop  offset="1" style="stop-color:#043B68"/>
				</linearGradient>
				<rect x="123.2" y="63.1" fill="url(#SVGID_38_)" width="26" height="5.2"/>
				<linearGradient id="SVGID_39_" gradientUnits="userSpaceOnUse" x1="123.175" y1="71.9753" x2="149.1693" y2="71.9753">
					<stop  offset="0" style="stop-color:#27567D"/>
					<stop  offset="0.8256" style="stop-color:#0B406C"/>
					<stop  offset="1" style="stop-color:#043B68"/>
				</linearGradient>
				<rect x="123.2" y="69.4" fill="url(#SVGID_39_)" width="26" height="5.2"/>
				<linearGradient id="SVGID_40_" gradientUnits="userSpaceOnUse" x1="123.175" y1="78.2341" x2="149.1693" y2="78.2341">
					<stop  offset="0" style="stop-color:#27567D"/>
					<stop  offset="0.8256" style="stop-color:#0B406C"/>
					<stop  offset="1" style="stop-color:#043B68"/>
				</linearGradient>
				<rect x="123.2" y="75.6" fill="url(#SVGID_40_)" width="26" height="5.2"/>
				<linearGradient id="SVGID_41_" gradientUnits="userSpaceOnUse" x1="123.175" y1="84.4928" x2="149.1693" y2="84.4928">
					<stop  offset="0" style="stop-color:#27567D"/>
					<stop  offset="0.8256" style="stop-color:#0B406C"/>
					<stop  offset="1" style="stop-color:#043B68"/>
				</linearGradient>
				<rect x="123.2" y="81.9" fill="url(#SVGID_41_)" width="26" height="5.2"/>
				<linearGradient id="SVGID_42_" gradientUnits="userSpaceOnUse" x1="123.175" y1="90.7515" x2="149.1693" y2="90.7515">
					<stop  offset="0" style="stop-color:#27567D"/>
					<stop  offset="0.8256" style="stop-color:#0B406C"/>
					<stop  offset="1" style="stop-color:#043B68"/>
				</linearGradient>
				<rect x="123.2" y="88.1" fill="url(#SVGID_42_)" width="26" height="5.2"/>
				<linearGradient id="SVGID_43_" gradientUnits="userSpaceOnUse" x1="123.175" y1="97.0103" x2="149.1693" y2="97.0103">
					<stop  offset="0" style="stop-color:#27567D"/>
					<stop  offset="0.8256" style="stop-color:#0B406C"/>
					<stop  offset="1" style="stop-color:#043B68"/>
				</linearGradient>
				<rect x="123.2" y="94.4" fill="url(#SVGID_43_)" width="26" height="5.2"/>
				<linearGradient id="SVGID_44_" gradientUnits="userSpaceOnUse" x1="123.175" y1="103.269" x2="149.1693" y2="103.269">
					<stop  offset="0" style="stop-color:#27567D"/>
					<stop  offset="0.8256" style="stop-color:#0B406C"/>
					<stop  offset="1" style="stop-color:#043B68"/>
				</linearGradient>
				<rect x="123.2" y="100.7" fill="url(#SVGID_44_)" width="26" height="5.2"/>
				<linearGradient id="SVGID_45_" gradientUnits="userSpaceOnUse" x1="123.175" y1="109.5277" x2="149.1693" y2="109.5277">
					<stop  offset="0" style="stop-color:#27567D"/>
					<stop  offset="0.8256" style="stop-color:#0B406C"/>
					<stop  offset="1" style="stop-color:#043B68"/>
				</linearGradient>
				<rect x="123.2" y="106.9" fill="url(#SVGID_45_)" width="26" height="5.2"/>
				<linearGradient id="SVGID_46_" gradientUnits="userSpaceOnUse" x1="123.175" y1="115.7865" x2="149.1693" y2="115.7865">
					<stop  offset="0" style="stop-color:#27567D"/>
					<stop  offset="0.8256" style="stop-color:#0B406C"/>
					<stop  offset="1" style="stop-color:#043B68"/>
				</linearGradient>
				<rect x="123.2" y="113.2" fill="url(#SVGID_46_)" width="26" height="5.2"/>
				<linearGradient id="SVGID_47_" gradientUnits="userSpaceOnUse" x1="123.175" y1="122.0452" x2="149.1693" y2="122.0452">
					<stop  offset="0" style="stop-color:#27567D"/>
					<stop  offset="0.8256" style="stop-color:#0B406C"/>
					<stop  offset="1" style="stop-color:#043B68"/>
				</linearGradient>
				<rect x="123.2" y="119.4" fill="url(#SVGID_47_)" width="26" height="5.2"/>
				<linearGradient id="SVGID_48_" gradientUnits="userSpaceOnUse" x1="123.175" y1="134.5627" x2="149.1693" y2="134.5627">
					<stop  offset="0" style="stop-color:#27567D"/>
					<stop  offset="0.8256" style="stop-color:#0B406C"/>
					<stop  offset="1" style="stop-color:#043B68"/>
				</linearGradient>
				<rect x="123.2" y="131.9" fill="url(#SVGID_48_)" width="26" height="5.2"/>
			</g>
		</g>
		
			<linearGradient id="SVGID_49_" gradientUnits="userSpaceOnUse" x1="-1281.2567" y1="-910.438" x2="-1179.7954" y2="-851.8593" gradientTransform="matrix(-1 0 0 1 -992.3164 980.9245)">
			<stop  offset="0.3256" style="stop-color:#022038"/>
			<stop  offset="0.4221" style="stop-color:#0C2A3F;stop-opacity:0.8569"/>
			<stop  offset="0.5865" style="stop-color:#264551;stop-opacity:0.6132"/>
			<stop  offset="0.7972" style="stop-color:#51716E;stop-opacity:0.3007"/>
			<stop  offset="1" style="stop-color:#81A18E;stop-opacity:0"/>
		</linearGradient>
		<rect x="199.5" y="49.7" opacity="0.85" fill="url(#SVGID_49_)" width="77.4" height="100.2"/>
		
			<linearGradient id="SVGID_50_" gradientUnits="userSpaceOnUse" x1="-2451.6282" y1="438.8031" x2="-2351.5178" y2="381.0042" gradientTransform="matrix(1 0 0 -1 2562.8823 509.6024)">
			<stop  offset="0.3256" style="stop-color:#022038"/>
			<stop  offset="0.4221" style="stop-color:#0C2A3F;stop-opacity:0.8569"/>
			<stop  offset="0.5865" style="stop-color:#264551;stop-opacity:0.6132"/>
			<stop  offset="0.7972" style="stop-color:#51716E;stop-opacity:0.3007"/>
			<stop  offset="1" style="stop-color:#81A18E;stop-opacity:0"/>
		</linearGradient>
		<rect x="123.2" y="50" opacity="0.85" fill="url(#SVGID_50_)" width="76.1" height="99.3"/>
	</g>
	
		<linearGradient id="SVGID_51_" gradientUnits="userSpaceOnUse" x1="348.5" y1="59.6674" x2="348.5" y2="42.6567" gradientTransform="matrix(-1 0 0 -1 545 209.99)">
		<stop  offset="0" style="stop-color:#141414"/>
		<stop  offset="1" style="stop-color:#191919"/>
	</linearGradient>
	<polygon display="inline" fill="url(#SVGID_51_)" points="122.8,150.5 276.1,150.3 304.3,167.3 88.7,167.3 	"/>
	
		<linearGradient id="SVGID_52_" gradientUnits="userSpaceOnUse" x1="203.2598" y1="32.0115" x2="203.2598" y2="15.0008" gradientTransform="matrix(1 0 0 1 4.302531e-005 17.666)">
		<stop  offset="0" style="stop-color:#141414"/>
		<stop  offset="1" style="stop-color:#191919"/>
	</linearGradient>
	<polygon display="inline" fill="url(#SVGID_52_)" points="277,49.5 123.7,49.7 105.4,32.7 301.1,32.7 	"/>
	<g display="inline">
		<linearGradient id="SVGID_53_" gradientUnits="userSpaceOnUse" x1="156.3235" y1="108.7653" x2="156.3235" y2="149.7332">
			<stop  offset="0" style="stop-color:#022440;stop-opacity:0.8"/>
			<stop  offset="0.4279" style="stop-color:#022038"/>
		</linearGradient>
		<rect x="129.8" y="108.8" fill="url(#SVGID_53_)" width="53" height="41"/>
	</g>
	<linearGradient id="SVGID_54_" gradientUnits="userSpaceOnUse" x1="199.5448" y1="51" x2="199.5448" y2="129.2493">
		<stop  offset="0" style="stop-color:#6B8BA6;stop-opacity:0.8"/>
		<stop  offset="1" style="stop-color:#819DB3;stop-opacity:0"/>
	</linearGradient>
	<polygon display="inline" opacity="0.18" fill="url(#SVGID_54_)" points="193.2,51 204,51 276.5,87.4 276.4,129.2 123.2,129.1 
		122.6,93.3 	"/>
	<g display="inline">
		
			<linearGradient id="SVGID_55_" gradientUnits="userSpaceOnUse" x1="219.3235" y1="108.7653" x2="219.3235" y2="149.7332" gradientTransform="matrix(-1 0 0 1 462.6471 0)">
			<stop  offset="0" style="stop-color:#022440;stop-opacity:0.8"/>
			<stop  offset="0.4279" style="stop-color:#022038"/>
		</linearGradient>
		<rect x="216.8" y="108.8" fill="url(#SVGID_55_)" width="53" height="41"/>
	</g>
</g>
<g display="none">
	
		<image display="inline" overflow="visible" width="30" height="21" xlink:href="3DBEA09B.png"  transform="matrix(1 0 0 1 184 41)">
	</image>
	<g display="inline">
		
			<line fill="none" stroke="#A3DAFF" stroke-width="2" stroke-linecap="round" stroke-miterlimit="10" x1="194" y1="52" x2="203" y2="52"/>
	</g>
</g>
<path id="a1" display="none" fill="#021729" d="M168,136.5l-1.9,0.6c0.7,2.3,0.4,3.9,0.4,3.9s-11.3-3.7-23,0.3l-0.2,0.2
	c-0.5-1.2-1-2.3-1.5-3.4c-2.2-5.9-3.9-9.6-4.7-11.4c0.9-0.3,1.7-0.6,2.2-1c1.3-1.2,1.1-5.7,0.3-7.9c-0.1-0.4-0.3-0.7-0.5-0.9
	c-1.2-1.3-6.6-1.7-7.6-0.7c-0.7,0.6,0.1,4.9,0.7,8c0.2,1.2,0.5,2.1,0.6,2.7c-1.8,9.4,0,18.6,0,18.6l0,1.1c0.3,1.1,1.2,2.8,2.7,2.6
	c1.5-0.2,4.7,0.8,4.4-0.7c0,0,0,1.1,0,1.1c12.3-1.3,27.7-0.3,27.7-0.3S170.4,144.2,168,136.5z"/>
<g id="linhas1">
	<linearGradient id="SVGID_56_" gradientUnits="userSpaceOnUse" x1="156.5" y1="150.5" x2="156.5" y2="111">
		<stop  offset="0.3256" style="stop-color:#022038"/>
		<stop  offset="0.3834" style="stop-color:#0C2940;stop-opacity:0.9828"/>
		<stop  offset="0.4821" style="stop-color:#274155;stop-opacity:0.9536"/>
		<stop  offset="0.6096" style="stop-color:#536878;stop-opacity:0.9158"/>
		<stop  offset="0.7609" style="stop-color:#909EA8;stop-opacity:0.8709"/>
		<stop  offset="0.9306" style="stop-color:#DDE1E5;stop-opacity:0.8206"/>
		<stop  offset="1" style="stop-color:#FFFFFF;stop-opacity:0.8"/>
	</linearGradient>
	
		<polyline opacity="8.000000e-002" fill="#043B68" stroke="url(#SVGID_56_)" stroke-linecap="square" stroke-miterlimit="10" points="
		181.5,150 181.5,111.5 131.5,111.5 131.5,150 	"/>
	<polyline opacity="6.000000e-002" fill="#043B68" stroke="#FFFFFF" stroke-miterlimit="10" points="134.5,111 134.5,134.5 
		154.5,134.5 154.5,111 	"/>
	<line opacity="0.2" fill="none" stroke="#FFFFFF" stroke-miterlimit="10" x1="174" y1="125.5" x2="181" y2="125.5"/>
	<linearGradient id="SVGID_57_" gradientUnits="userSpaceOnUse" x1="174.5" y1="110.5" x2="174.5" y2="150.5">
		<stop  offset="0" style="stop-color:#FFFFFF;stop-opacity:0.8"/>
		<stop  offset="6.942005e-002" style="stop-color:#DDE1E5;stop-opacity:0.8206"/>
		<stop  offset="0.2391" style="stop-color:#909EA8;stop-opacity:0.8709"/>
		<stop  offset="0.3904" style="stop-color:#536878;stop-opacity:0.9158"/>
		<stop  offset="0.5179" style="stop-color:#274155;stop-opacity:0.9536"/>
		<stop  offset="0.6166" style="stop-color:#0C2940;stop-opacity:0.9828"/>
		<stop  offset="0.6744" style="stop-color:#022038"/>
	</linearGradient>
	
		<line opacity="0.2" fill="#043B68" stroke="url(#SVGID_57_)" stroke-linecap="square" stroke-miterlimit="10" x1="174.5" y1="111" x2="174.5" y2="150"/>
	<linearGradient id="SVGID_58_" gradientUnits="userSpaceOnUse" x1="137.5" y1="133.5" x2="137.5" y2="150.5">
		<stop  offset="0" style="stop-color:#FFFFFF;stop-opacity:0.8"/>
		<stop  offset="6.942005e-002" style="stop-color:#DDE1E5;stop-opacity:0.8206"/>
		<stop  offset="0.2391" style="stop-color:#909EA8;stop-opacity:0.8709"/>
		<stop  offset="0.3904" style="stop-color:#536878;stop-opacity:0.9158"/>
		<stop  offset="0.5179" style="stop-color:#274155;stop-opacity:0.9536"/>
		<stop  offset="0.6166" style="stop-color:#0C2940;stop-opacity:0.9828"/>
		<stop  offset="0.6744" style="stop-color:#022038"/>
	</linearGradient>
	
		<line opacity="0.2" fill="#043B68" stroke="url(#SVGID_58_)" stroke-linecap="square" stroke-miterlimit="10" x1="137.5" y1="134" x2="137.5" y2="150"/>
</g>
<linearGradient id="SVGID_59_" gradientUnits="userSpaceOnUse" x1="875.4168" y1="436.0171" x2="875.4168" y2="317.6535" gradientTransform="matrix(4.489700e-011 -1 1 4.489700e-011 -317.6535 992.4168)">
	<stop  offset="0" style="stop-color:#191919;stop-opacity:0"/>
	<stop  offset="0.8965" style="stop-color:#191919"/>
</linearGradient>
<path display="none" fill="url(#SVGID_59_)" d="M118.4-33v300H0L0-33H118.4z"/>
<linearGradient id="SVGID_60_" gradientUnits="userSpaceOnUse" x1="875.4168" y1="652.4808" x2="875.4168" y2="534.7508" gradientTransform="matrix(0 -1 -1 0 934.7508 992.4168)">
	<stop  offset="0" style="stop-color:#191919;stop-opacity:0"/>
	<stop  offset="0.8965" style="stop-color:#191919"/>
</linearGradient>
<path display="none" fill="url(#SVGID_60_)" d="M400-33v300H282.3V-33H400z"/>
<path id="b1" display="none" fill="#021729" d="M231.6,136.5l1.9,0.6c-0.7,2.3-0.4,3.9-0.4,3.9s11.3-3.7,23,0.3l0.2,0.2
	c0.5-1.2,1-2.3,1.5-3.4c2.2-5.9,3.9-9.6,4.7-11.4c-0.9-0.3-1.7-0.6-2.2-1c-1.3-1.2-1.1-5.7-0.3-7.9c0.1-0.4,0.3-0.7,0.5-0.9
	c1.2-1.3,6.6-1.7,7.6-0.7c0.7,0.6-0.1,4.9-0.7,8c-0.2,1.2-0.5,2.1-0.6,2.7c1.8,9.4,0,18.6,0,18.6l0,1.1c-0.3,1.1-1.2,2.8-2.7,2.6
	c-1.5-0.2-4.7,0.8-4.4-0.7c0,0,0,1.1,0,1.1c-12.3-1.3-27.7-0.3-27.7-0.3S229.3,144.2,231.6,136.5z"/>
<path id="b2" display="none" fill="#021729" d="M231.6,136.5l1.9,0.6c-0.7,2.3-0.4,3.9-0.4,3.9s11.3-3.7,23,0.3l0.2,0.2
	c1.9-11.3,5.4-13,6.2-14.7c-0.9-0.3-1.7-0.6-2.2-1c-1.3-1.2-1.1-5.7-0.3-7.9c0.1-0.4,0.3-0.7,0.5-0.9c1.2-1.3,6.6-1.7,7.6-0.7
	c0.7,0.6-0.1,4.9-0.7,8c-0.2,1.2-0.5,2.1-0.6,2.7c1.8,9.4,0,18.6,0,18.6l0,1.1c-0.3,1.1-1.2,2.8-2.7,2.6c-1.5-0.2-4.7,0.8-4.4-0.7
	c0,0,0,1.1,0,1.1c-12.3-1.3-27.7-0.3-27.7-0.3S229.3,144.2,231.6,136.5z"/>
<g id="linhas2" opacity="0.7">
	<linearGradient id="SVGID_61_" gradientUnits="userSpaceOnUse" x1="244" y1="149.5" x2="244" y2="111">
		<stop  offset="0.3256" style="stop-color:#022038"/>
		<stop  offset="0.3834" style="stop-color:#0C2940;stop-opacity:0.9828"/>
		<stop  offset="0.4821" style="stop-color:#274155;stop-opacity:0.9536"/>
		<stop  offset="0.6096" style="stop-color:#536878;stop-opacity:0.9158"/>
		<stop  offset="0.7609" style="stop-color:#909EA8;stop-opacity:0.8709"/>
		<stop  offset="0.9306" style="stop-color:#DDE1E5;stop-opacity:0.8206"/>
		<stop  offset="1" style="stop-color:#FFFFFF;stop-opacity:0.8"/>
	</linearGradient>
	<polyline opacity="0.2" fill="none" stroke="url(#SVGID_61_)" stroke-linecap="square" stroke-miterlimit="10" points="268.5,149 
		268.5,111.5 219.5,111.5 219.5,149 	"/>
	<linearGradient id="SVGID_62_" gradientUnits="userSpaceOnUse" x1="252" y1="112.5" x2="252" y2="130">
		<stop  offset="0.2093" style="stop-color:#FFFFFF;stop-opacity:0.8"/>
		<stop  offset="0.2935" style="stop-color:#FAFBFB;stop-opacity:0.8213"/>
		<stop  offset="0.3918" style="stop-color:#ECEEF0;stop-opacity:0.8461"/>
		<stop  offset="0.497" style="stop-color:#D5DADE;stop-opacity:0.8728"/>
		<stop  offset="0.6073" style="stop-color:#B4BDC4;stop-opacity:0.9007"/>
		<stop  offset="0.7214" style="stop-color:#8997A3;stop-opacity:0.9295"/>
		<stop  offset="0.8388" style="stop-color:#566A7A;stop-opacity:0.9592"/>
		<stop  offset="0.9566" style="stop-color:#1A354B;stop-opacity:0.989"/>
		<stop  offset="1" style="stop-color:#022038"/>
	</linearGradient>
	<polyline opacity="0.2" fill="none" stroke="url(#SVGID_62_)" stroke-linecap="square" stroke-miterlimit="10" points="242.5,113 
		242.5,129.5 261.5,129.5 261.5,113 	"/>
	<line opacity="0.2" fill="none" stroke="#FFFFFF" stroke-miterlimit="10" x1="222" y1="123.5" x2="241" y2="123.5"/>
	<linearGradient id="SVGID_63_" gradientUnits="userSpaceOnUse" x1="227.5" y1="122.5" x2="227.5" y2="148.5">
		<stop  offset="0.7023" style="stop-color:#FFFFFF;stop-opacity:0.8"/>
		<stop  offset="0.733" style="stop-color:#DDE1E5;stop-opacity:0.8206"/>
		<stop  offset="0.8078" style="stop-color:#909EA8;stop-opacity:0.8709"/>
		<stop  offset="0.8747" style="stop-color:#536878;stop-opacity:0.9158"/>
		<stop  offset="0.9309" style="stop-color:#274155;stop-opacity:0.9536"/>
		<stop  offset="0.9745" style="stop-color:#0C2940;stop-opacity:0.9828"/>
		<stop  offset="1" style="stop-color:#022038"/>
	</linearGradient>
	
		<line opacity="0.2" fill="#043B68" stroke="url(#SVGID_63_)" stroke-linecap="square" stroke-miterlimit="10" x1="227.5" y1="123" x2="227.5" y2="148"/>
	<line opacity="0.16" fill="none" stroke="#FFFFFF" stroke-miterlimit="10" x1="235.5" y1="123" x2="235.5" y2="128"/>
</g>
<path id="a2" display="none" fill="#021729" d="M168,136.5l-1.9,0.6c0.7,2.3,0.4,3.9,0.4,3.9s-11.3-3.7-23,0.3l-0.2,0.2
	c-1.1-7.6-3.3-11.9-6.2-14.7c0.9-0.3,1.7-0.6,2.2-1c1.3-1.2,1.1-5.7,0.3-7.9c-0.1-0.4-0.3-0.7-0.5-0.9c-1.2-1.3-6.6-1.7-7.6-0.7
	c-0.7,0.6,0.1,4.9,0.7,8c0.2,1.2,0.5,2.1,0.6,2.7c-1.8,9.4,0,18.6,0,18.6l0,1.1c0.3,1.1,1.2,2.8,2.7,2.6c1.5-0.2,4.7,0.8,4.4-0.7
	c0,0,0,1.1,0,1.1c12.3-1.3,27.7-0.3,27.7-0.3S170.4,144.2,168,136.5z"/>
<rect x="-7.6" y="-8.9" opacity="0.12" fill="#191919" width="418.8" height="214.6"/>
</svg>
