<?xml version="1.0" encoding="utf-8"?>
<!-- Generator: Adobe Illustrator 17.0.0, SVG Export Plug-In . SVG Version: 6.00 Build 0)  -->
<!DOCTYPE svg PUBLIC "-//W3C//DTD SVG 1.1//EN" "http://www.w3.org/Graphics/SVG/1.1/DTD/svg11.dtd">
<svg version="1.1" id="Layer_1" xmlns="http://www.w3.org/2000/svg" xmlns:xlink="http://www.w3.org/1999/xlink" x="0px" y="0px"
	 width="124px" height="90.01px" viewBox="0 0 124 90.01" enable-background="new 0 0 124 90.01" xml:space="preserve">
<path fill="#FFFFFF" d="M117.706,5.849c0.245,0,0.445,0.2,0.445,0.445v77.421c0,0.245-0.2,0.445-0.445,0.445H6.294
	c-0.245,0-0.445-0.2-0.445-0.445V6.294c0-0.245,0.2-0.445,0.445-0.445H117.706 M117.706,0H6.294C2.818,0,0,2.818,0,6.294v77.421
	c0,3.476,2.818,6.294,6.294,6.294h111.411c3.476,0,6.294-2.818,6.294-6.294V6.294C124,2.818,121.182,0,117.706,0L117.706,0z"/>
</svg>
