<?xml version="1.0" encoding="utf-8"?>
<!-- Generator: Adobe Illustrator 17.0.0, SVG Export Plug-In . SVG Version: 6.00 Build 0)  -->
<!DOCTYPE svg PUBLIC "-//W3C//DTD SVG 1.1//EN" "http://www.w3.org/Graphics/SVG/1.1/DTD/svg11.dtd">
<svg version="1.1" id="Layer_1" xmlns="http://www.w3.org/2000/svg" xmlns:xlink="http://www.w3.org/1999/xlink" x="0px" y="0px"
	 width="50px" height="50px" viewBox="0 0 50 50" enable-background="new 0 0 50 50" xml:space="preserve">
<path fill="#808285" d="M35.999,4H3.333C1.492,4,0,5.492,0,7.333c0,1.841,1.492,3.333,3.333,3.333h32.666
	c1.841,0,3.333-1.492,3.333-3.333C39.331,5.492,37.839,4,35.999,4z"/>
<path fill="#808285" d="M35.999,21.667H3.333C1.492,21.667,0,23.159,0,25c0,1.841,1.492,3.333,3.333,3.333h32.666
	c1.841,0,3.333-1.492,3.333-3.333C39.331,23.159,37.839,21.667,35.999,21.667z"/>
<path fill="#808285" d="M35.999,39.335H3.333C1.492,39.335,0,40.827,0,42.667C0,44.508,1.492,46,3.333,46h32.666
	c1.841,0,3.333-1.492,3.333-3.333C39.331,40.827,37.839,39.335,35.999,39.335z"/>
<circle fill="#808285" cx="46.656" cy="7.333" r="3.344"/>
<circle fill="#808285" cx="46.656" cy="25" r="3.344"/>
<circle fill="#808285" cx="46.656" cy="42.667" r="3.344"/>
</svg>
