<?xml version="1.0" encoding="utf-8"?>
<!-- Generator: Adobe Illustrator 17.0.0, SVG Export Plug-In . SVG Version: 6.00 Build 0)  -->
<!DOCTYPE svg PUBLIC "-//W3C//DTD SVG 1.1//EN" "http://www.w3.org/Graphics/SVG/1.1/DTD/svg11.dtd">
<svg version="1.1" id="Layer_1" xmlns="http://www.w3.org/2000/svg" xmlns:xlink="http://www.w3.org/1999/xlink" x="0px" y="0px"
	 width="50px" height="50px" viewBox="0 0 50 50" enable-background="new 0 0 50 50" xml:space="preserve">
<g>
	<g>
		<circle fill="#808285" cx="37.025" cy="14.158" r="3.188"/>
		<circle fill="#808285" cx="37.025" cy="25" r="3.188"/>
		<circle fill="#808285" cx="37.025" cy="35.842" r="3.188"/>
	</g>
	<path fill="#808285" d="M27.786,10.825H13.119c-1.841,0-3.333,1.492-3.333,3.333c0,1.841,1.492,3.333,3.333,3.333h14.666
		c1.841,0,3.333-1.492,3.333-3.333C31.118,12.317,29.626,10.825,27.786,10.825z"/>
	<path fill="#808285" d="M27.786,21.667H13.119c-1.841,0-3.333,1.492-3.333,3.333c0,1.841,1.492,3.333,3.333,3.333h14.666
		c1.841,0,3.333-1.492,3.333-3.333C31.118,23.159,29.626,21.667,27.786,21.667z"/>
	<path fill="#808285" d="M27.786,32.51H13.119c-1.841,0-3.333,1.492-3.333,3.333c0,1.841,1.492,3.333,3.333,3.333h14.666
		c1.841,0,3.333-1.492,3.333-3.333C31.118,34.002,29.626,32.51,27.786,32.51z"/>
</g>
<g>
	<path fill="#808285" d="M44,6v38H6V6H44 M45,0H5C2.239,0,0,2.239,0,5v40c0,2.761,2.239,5,5,5h40c2.761,0,5-2.239,5-5V5
		C50,2.239,47.761,0,45,0L45,0z"/>
</g>
</svg>
