<?xml version="1.0" encoding="utf-8"?>
<!-- Generator: Adobe Illustrator 17.0.0, SVG Export Plug-In . SVG Version: 6.00 Build 0)  -->
<!DOCTYPE svg PUBLIC "-//W3C//DTD SVG 1.1//EN" "http://www.w3.org/Graphics/SVG/1.1/DTD/svg11.dtd">
<svg version="1.1" id="Layer_1" xmlns="http://www.w3.org/2000/svg" xmlns:xlink="http://www.w3.org/1999/xlink" x="0px" y="0px"
	 width="50px" height="27.292px" viewBox="0 0 50 27.292" enable-background="new 0 0 50 27.292" xml:space="preserve">
<g>
	<circle fill="#FFFFFF" cx="13.667" cy="13.646" r="3.333"/>
	<circle fill="#FFFFFF" cx="25" cy="13.646" r="3.333"/>
	<circle fill="#FFFFFF" cx="36.333" cy="13.646" r="3.333"/>
</g>
<path fill="#FFFFFF" d="M36.795,27.292h-23.59C5.924,27.292,0,21.171,0,13.646C0,6.122,5.924,0,13.205,0h23.59
	C44.077,0,50,6.122,50,13.646C50,21.171,44.077,27.292,36.795,27.292z M13.205,5.578c-4.171,0-7.564,3.619-7.564,8.068
	s3.393,8.068,7.564,8.068h23.59c4.171,0,7.564-3.62,7.564-8.068s-3.393-8.068-7.564-8.068H13.205z"/>
</svg>
