<?xml version="1.0" encoding="utf-8"?>
<!-- Generator: Adobe Illustrator 18.0.0, SVG Export Plug-In . SVG Version: 6.00 Build 0)  -->
<!DOCTYPE svg PUBLIC "-//W3C//DTD SVG 1.1//EN" "http://www.w3.org/Graphics/SVG/1.1/DTD/svg11.dtd" [
	<!ENTITY ns_extend "http://ns.adobe.com/Extensibility/1.0/">
	<!ENTITY ns_ai "http://ns.adobe.com/AdobeIllustrator/10.0/">
	<!ENTITY ns_graphs "http://ns.adobe.com/Graphs/1.0/">
	<!ENTITY ns_vars "http://ns.adobe.com/Variables/1.0/">
	<!ENTITY ns_imrep "http://ns.adobe.com/ImageReplacement/1.0/">
	<!ENTITY ns_sfw "http://ns.adobe.com/SaveForWeb/1.0/">
	<!ENTITY ns_custom "http://ns.adobe.com/GenericCustomNamespace/1.0/">
	<!ENTITY ns_adobe_xpath "http://ns.adobe.com/XPath/1.0/">
]>
<svg version="1.1" id="Layer_1" xmlns:x="&ns_extend;" xmlns:i="&ns_ai;" xmlns:graph="&ns_graphs;"
	 xmlns="http://www.w3.org/2000/svg" xmlns:xlink="http://www.w3.org/1999/xlink" x="0px" y="0px" viewBox="0 0 800 500"
	 enable-background="new 0 0 800 500" xml:space="preserve">
<metadata>
	<sfw  xmlns="&ns_sfw;">
		<slices></slices>
		<sliceSourceBounds  width="822.7" height="772.1" x="-16.5" y="-495" bottomLeftOrigin="true"></sliceSourceBounds>
	</sfw>
</metadata>
<rect x="-9" y="-65.8" display="none" fill="#191919" width="815.2" height="660.8"/>
<g id="fundo">
	<path id="parede-fundo" opacity="0.35" fill="#44473D" d="M96,134v191h606V134H96z M292,314h-99V168h99V314z M556,313h-99V168h99
		V313z"/>
	<linearGradient id="chão_1_" gradientUnits="userSpaceOnUse" x1="399.7614" y1="380.9117" x2="399.7614" y2="324.5266">
		<stop  offset="0" style="stop-color:#24222A;stop-opacity:0"/>
		<stop  offset="0.2516" style="stop-color:#29272D;stop-opacity:0.1761"/>
		<stop  offset="0.5489" style="stop-color:#373535;stop-opacity:0.3842"/>
		<stop  offset="0.8682" style="stop-color:#4D4D41;stop-opacity:0.6077"/>
		<stop  offset="1" style="stop-color:#595948;stop-opacity:0.7"/>
	</linearGradient>
	<rect id="chão" x="99.7" y="324.5" opacity="0.2" fill="url(#chão_1_)" width="600" height="56.4"/>
	<path id="movel-esq" fill="#191919" d="M128.7,335.8H54.6c-5.5,0-9.9-4.4-9.9-9.9v-37.7c0-5.5,4.4-9.9,9.9-9.9h74.1
		c5.5,0,9.9,4.4,9.9,9.9v37.7C138.6,331.4,134.2,335.8,128.7,335.8z"/>
	<g id="mesa-dir">
		<rect x="646.9" y="280.2" fill="#191919" width="56.6" height="6.9"/>
		<rect x="667.3" y="286.1" fill="#191919" width="3.6" height="40.6"/>
		<rect x="668.4" y="283.4" fill="#191919" width="35.5" height="7.4"/>
	</g>
	
		<linearGradient id="SVGID_1_" gradientUnits="userSpaceOnUse" x1="-433.8624" y1="180.7493" x2="-382.9541" y2="180.7493" gradientTransform="matrix(4.288592e-011 -0.9552 -1 -4.489659e-011 579.3966 -267.028)">
		<stop  offset="0" style="stop-color:#191919;stop-opacity:0"/>
		<stop  offset="3.648973e-002" style="stop-color:#191919;stop-opacity:6.962836e-002"/>
		<stop  offset="0.5241" style="stop-color:#191919"/>
	</linearGradient>
	<rect x="93.9" y="98.8" fill="url(#SVGID_1_)" width="609.5" height="48.6"/>
	<path id="tv" fill="#191919" d="M683.1,281.3h-19.8c-6,0-10.9-4.8-10.9-10.6v-8.8c0-5.8,4.9-10.6,10.9-10.6l19.8,1.8
		c6,0,10.9,6.5,10.9,12.4v2.6C694,273.9,689.1,281.3,683.1,281.3z"/>
</g>
<rect id="movel-dir" x="572.5" y="295.2" display="none" fill="#212121" width="38.9" height="32.9"/>
<rect id="movel-centro" x="343.6" y="294.1" display="none" fill="#212121" width="76.8" height="36.4"/>
<g id="candeeiro-dir" display="none">
	<linearGradient id="SVGID_2_" gradientUnits="userSpaceOnUse" x1="576.0635" y1="257.0933" x2="611.6357" y2="263.3656">
		<stop  offset="6.511628e-002" style="stop-color:#636350"/>
		<stop  offset="0.3671" style="stop-color:#4C4B42"/>
		<stop  offset="0.9209" style="stop-color:#24222A"/>
	</linearGradient>
	<polygon display="inline" fill="url(#SVGID_2_)" points="582.8,247 600.1,247 610.3,271 573.6,271 	"/>
	<linearGradient id="SVGID_3_" gradientUnits="userSpaceOnUse" x1="591.5" y1="289.5" x2="591.5" y2="289.5">
		<stop  offset="0" style="stop-color:#24222A"/>
		<stop  offset="2.342439e-002" style="stop-color:#26242B"/>
		<stop  offset="0.4359" style="stop-color:#47463F"/>
		<stop  offset="0.7761" style="stop-color:#5C5B4C"/>
		<stop  offset="1" style="stop-color:#636350"/>
	</linearGradient>
	<linearGradient id="SVGID_4_" gradientUnits="userSpaceOnUse" x1="583.3643" y1="303.5915" x2="599.6357" y2="275.4085">
		<stop  offset="0" style="stop-color:#24222A"/>
		<stop  offset="2.342439e-002" style="stop-color:#26242B"/>
		<stop  offset="0.4359" style="stop-color:#47463F"/>
		<stop  offset="0.7761" style="stop-color:#5C5B4C"/>
		<stop  offset="1" style="stop-color:#636350"/>
	</linearGradient>
	
		<line display="inline" opacity="0.75" fill="url(#SVGID_3_)" stroke="url(#SVGID_4_)" stroke-miterlimit="10" x1="591.5" y1="271" x2="591.5" y2="308"/>
</g>
<g id="candeeiro-esq" display="none">
	<linearGradient id="SVGID_5_" gradientUnits="userSpaceOnUse" x1="387.2493" y1="263.2798" x2="422.8215" y2="257.0075">
		<stop  offset="0.2279" style="stop-color:#24222A;stop-opacity:0.8"/>
		<stop  offset="0.5125" style="stop-color:#393836;stop-opacity:0.8737"/>
		<stop  offset="1" style="stop-color:#595948"/>
	</linearGradient>
	<polygon display="inline" fill="url(#SVGID_5_)" points="397.8,247 415.1,247 425.3,271 388.6,271 	"/>
	<linearGradient id="SVGID_6_" gradientUnits="userSpaceOnUse" x1="408.5" y1="284.5" x2="408.5" y2="284.5">
		<stop  offset="0" style="stop-color:#24222A"/>
		<stop  offset="2.342439e-002" style="stop-color:#26242B"/>
		<stop  offset="0.4359" style="stop-color:#47463F"/>
		<stop  offset="0.7761" style="stop-color:#5C5B4C"/>
		<stop  offset="1" style="stop-color:#636350"/>
	</linearGradient>
	<linearGradient id="SVGID_7_" gradientUnits="userSpaceOnUse" x1="402.5293" y1="274.1585" x2="414.4707" y2="294.8415">
		<stop  offset="0" style="stop-color:#636350"/>
		<stop  offset="0.2239" style="stop-color:#5C5B4C"/>
		<stop  offset="0.5641" style="stop-color:#47463F"/>
		<stop  offset="0.9766" style="stop-color:#26242B"/>
		<stop  offset="1" style="stop-color:#24222A"/>
	</linearGradient>
	
		<line display="inline" opacity="0.75" fill="url(#SVGID_6_)" stroke="url(#SVGID_7_)" stroke-miterlimit="10" x1="408.5" y1="271" x2="408.5" y2="298"/>
</g>
<g id="cortina1-dir" display="none">
	
		<linearGradient id="SVGID_8_" gradientUnits="userSpaceOnUse" x1="270.8676" y1="2357.25" x2="297.8924" y2="2357.25" gradientTransform="matrix(-1 0 0 -1 604.8185 2600.1819)">
		<stop  offset="9.302326e-002" style="stop-color:#242424"/>
		<stop  offset="0.908" style="stop-color:#282828"/>
		<stop  offset="1" style="stop-color:#292929"/>
	</linearGradient>
	<path display="inline" fill="url(#SVGID_8_)" d="M307.7,162.7c13.3,0.8,28.6-1.8,23.9,15.5c0,3,0,6.5,0,10.2c0,5,0,10.5,0,16.4
		c-0.4,39,7.2,78.5-3,116.7c0,2.6-14,1.3-21.7,1.3c2.6-39.5,1.3-79,0.4-118c0-5.9,0-11.5,0-16.5c-0.4-6.5-0.4-11.7,0.1-18.4
		C307.6,165.4,307.7,162.7,307.7,162.7z"/>
	
		<linearGradient id="SVGID_9_" gradientUnits="userSpaceOnUse" x1="295.2517" y1="2357.7961" x2="313.2028" y2="2357.7961" gradientTransform="matrix(-1 0 0 -1 604.8185 2600.1819)">
		<stop  offset="9.302326e-002" style="stop-color:#242424"/>
		<stop  offset="0.908" style="stop-color:#282828"/>
		<stop  offset="1" style="stop-color:#292929"/>
	</linearGradient>
	<path display="inline" fill="url(#SVGID_9_)" d="M292.3,162.8c5.7-0.6,13.4-1.9,14.6,0.7c3.8,6.6,1.3,15.8,1.1,24.9
		c0,5,0,10.5,0,16.5c0.2,39,4,78.5-1.1,118c-1.3,0-10.2,0-15.3,0c2.6-39.5,2.6-79,0.4-118c0-5.9,0-11.4,0-16.4
		c-0.4-6.5-0.4-11.7,0.1-18.3C292.2,165.5,292.3,162.8,292.3,162.8z"/>
	
		<linearGradient id="SVGID_10_" gradientUnits="userSpaceOnUse" x1="289.5679" y1="2357.9485" x2="302.6078" y2="2357.9485" gradientTransform="matrix(-1 0 0 -1 604.8185 2600.1819)">
		<stop  offset="9.302326e-002" style="stop-color:#242424"/>
		<stop  offset="0.908" style="stop-color:#282828"/>
		<stop  offset="1" style="stop-color:#292929"/>
	</linearGradient>
	<path display="inline" fill="url(#SVGID_10_)" d="M302.8,162.7c4.2-0.5,9.3-1.8,9.3-0.5c3.8,7.9,1.3,17.1,1.5,26.2
		c0,5,0,10.5,0,16.5c-0.2,39,4.9,78.5-1.5,118h-7.7c-3.8-39.5-1.3-79-1.9-118c0-5.9,0-11.5,0-16.4c-0.6-6.5,1.9-11.7,0.1-18.4
		C302.7,165.4,302.8,162.7,302.8,162.7z"/>
</g>
<g id="cortina1-esq" display="none">
	<linearGradient id="SVGID_11_" gradientUnits="userSpaceOnUse" x1="152.3434" y1="242.932" x2="179.3683" y2="242.932">
		<stop  offset="9.302326e-002" style="stop-color:#242424"/>
		<stop  offset="0.908" style="stop-color:#282828"/>
		<stop  offset="1" style="stop-color:#292929"/>
	</linearGradient>
	<path display="inline" fill="url(#SVGID_11_)" d="M178.6,323.2c-13.3-0.8-28.6,1.8-23.9-15.5c0-3,0-6.5,0-10.2c0-5,0-10.5,0-16.4
		c0.4-39-7.2-78.5,3-116.7c0-2.6,14-1.3,21.7-1.3c-2.6,39.5-1.3,79-0.4,118c0,5.9,0,11.5,0,16.5c0.4,6.5,0.4,11.7-0.1,18.4
		C178.7,320.5,178.6,323.2,178.6,323.2z"/>
	<linearGradient id="SVGID_12_" gradientUnits="userSpaceOnUse" x1="176.7276" y1="243.4783" x2="194.6787" y2="243.4783">
		<stop  offset="9.302326e-002" style="stop-color:#242424"/>
		<stop  offset="0.908" style="stop-color:#282828"/>
		<stop  offset="1" style="stop-color:#292929"/>
	</linearGradient>
	<path display="inline" fill="url(#SVGID_12_)" d="M194,323.1c-5.7,0.6-13.4,1.9-14.6-0.7c-3.8-6.6-1.3-15.8-1.1-24.9
		c0-5,0-10.5,0-16.5c-0.2-39-4-78.5,1.1-118c1.3,0,10.2,0,15.3,0c-2.6,39.5-2.6,79-0.4,118c0,5.9,0,11.4,0,16.4
		c0.4,6.5,0.4,11.7-0.1,18.3C194.1,320.4,194,323.1,194,323.1z"/>
	<linearGradient id="SVGID_13_" gradientUnits="userSpaceOnUse" x1="171.0438" y1="243.6307" x2="184.0837" y2="243.6307">
		<stop  offset="9.302326e-002" style="stop-color:#242424"/>
		<stop  offset="0.908" style="stop-color:#282828"/>
		<stop  offset="1" style="stop-color:#292929"/>
	</linearGradient>
	<path display="inline" fill="url(#SVGID_13_)" d="M183.5,323.2c-4.2,0.5-9.3,1.8-9.3,0.5c-3.8-7.9-1.3-17.1-1.5-26.2
		c0-5,0-10.5,0-16.5c0.2-39-4.9-78.5,1.5-118h7.7c3.8,39.5,1.3,79,1.9,118c0,5.9,0,11.5,0,16.4c0.6,6.5-1.9,11.7-0.1,18.4
		C183.6,320.5,183.5,323.2,183.5,323.2z"/>
</g>
<g id="cortina2-esq" display="none">
	<linearGradient id="SVGID_14_" gradientUnits="userSpaceOnUse" x1="415.8246" y1="243.5504" x2="442.8494" y2="243.5504">
		<stop  offset="9.302326e-002" style="stop-color:#242424"/>
		<stop  offset="0.908" style="stop-color:#282828"/>
		<stop  offset="1" style="stop-color:#292929"/>
	</linearGradient>
	<path display="inline" fill="url(#SVGID_14_)" d="M442.1,323.8c-13.3-0.8-28.6,1.8-23.9-15.5c0-3,0-6.5,0-10.2c0-5,0-10.5,0-16.4
		c0.4-39-7.2-78.5,3-116.7c0-2.6,14-1.3,21.7-1.3c-2.6,39.5-1.3,79-0.4,118c0,5.9,0,11.5,0,16.5c0.4,6.5,0.4,11.7-0.1,18.4
		C442.2,321.1,442.1,323.8,442.1,323.8z"/>
	<linearGradient id="SVGID_15_" gradientUnits="userSpaceOnUse" x1="440.2087" y1="244.0967" x2="458.1598" y2="244.0967">
		<stop  offset="9.302326e-002" style="stop-color:#242424"/>
		<stop  offset="0.908" style="stop-color:#282828"/>
		<stop  offset="1" style="stop-color:#292929"/>
	</linearGradient>
	<path display="inline" fill="url(#SVGID_15_)" d="M457.5,323.7c-5.7,0.6-13.4,1.9-14.6-0.7c-3.8-6.6-1.3-15.8-1.1-24.9
		c0-5,0-10.5,0-16.5c-0.2-39-4-78.5,1.1-118c1.3,0,10.2,0,15.3,0c-2.6,39.5-2.6,79-0.4,118c0,5.9,0,11.4,0,16.4
		c0.4,6.5,0.4,11.7-0.1,18.3C457.6,321,457.5,323.7,457.5,323.7z"/>
	<linearGradient id="SVGID_16_" gradientUnits="userSpaceOnUse" x1="434.5249" y1="244.2491" x2="447.5648" y2="244.2491">
		<stop  offset="9.302326e-002" style="stop-color:#242424"/>
		<stop  offset="0.908" style="stop-color:#282828"/>
		<stop  offset="1" style="stop-color:#292929"/>
	</linearGradient>
	<path display="inline" fill="url(#SVGID_16_)" d="M447,323.8c-4.2,0.5-9.3,1.8-9.3,0.5c-3.8-7.9-1.3-17.1-1.5-26.2
		c0-5,0-10.5,0-16.5c0.2-39-4.9-78.5,1.5-118h7.7c3.8,39.5,1.3,79,1.9,118c0,5.9,0,11.5,0,16.4c0.6,6.5-1.9,11.7-0.1,18.4
		C447.1,321.1,447,323.8,447,323.8z"/>
</g>
<g id="cortina2-dir" display="none">
	
		<linearGradient id="SVGID_17_" gradientUnits="userSpaceOnUse" x1="7.3864" y1="2356.6316" x2="34.4113" y2="2356.6316" gradientTransform="matrix(-1 0 0 -1 604.8185 2600.1819)">
		<stop  offset="9.302326e-002" style="stop-color:#242424"/>
		<stop  offset="0.908" style="stop-color:#282828"/>
		<stop  offset="1" style="stop-color:#292929"/>
	</linearGradient>
	<path display="inline" fill="url(#SVGID_17_)" d="M571.1,163.3c13.3,0.8,28.6-1.8,23.9,15.5c0,3,0,6.5,0,10.2c0,5,0,10.5,0,16.4
		c-0.4,39,7.2,78.5-3,116.7c0,2.6-14,1.3-21.7,1.3c2.6-39.5,1.3-79,0.4-118c0-5.9,0-11.5,0-16.5c-0.4-6.5-0.4-11.7,0.1-18.4
		C571,166,571.1,163.3,571.1,163.3z"/>
	
		<linearGradient id="SVGID_18_" gradientUnits="userSpaceOnUse" x1="31.7706" y1="2357.1777" x2="49.7217" y2="2357.1777" gradientTransform="matrix(-1 0 0 -1 604.8185 2600.1819)">
		<stop  offset="9.302326e-002" style="stop-color:#242424"/>
		<stop  offset="0.908" style="stop-color:#282828"/>
		<stop  offset="1" style="stop-color:#292929"/>
	</linearGradient>
	<path display="inline" fill="url(#SVGID_18_)" d="M555.8,163.4c5.7-0.6,13.4-1.9,14.6,0.7c3.8,6.6,1.3,15.8,1.1,24.9
		c0,5,0,10.5,0,16.5c0.2,39,4,78.5-1.1,118c-1.3,0-10.2,0-15.3,0c2.6-39.5,2.6-79,0.4-118c0-5.9,0-11.4,0-16.4
		c-0.4-6.5-0.4-11.7,0.1-18.3C555.7,166.1,555.8,163.4,555.8,163.4z"/>
	
		<linearGradient id="SVGID_19_" gradientUnits="userSpaceOnUse" x1="26.0868" y1="2357.3301" x2="39.1267" y2="2357.3301" gradientTransform="matrix(-1 0 0 -1 604.8185 2600.1819)">
		<stop  offset="9.302326e-002" style="stop-color:#242424"/>
		<stop  offset="0.908" style="stop-color:#282828"/>
		<stop  offset="1" style="stop-color:#292929"/>
	</linearGradient>
	<path display="inline" fill="url(#SVGID_19_)" d="M566.2,163.3c4.2-0.5,9.3-1.8,9.3-0.5c3.8,7.9,1.3,17.1,1.5,26.2
		c0,5,0,10.5,0,16.5c-0.2,39,4.9,78.5-1.5,118h-7.7c-3.8-39.5-1.3-79-1.9-118c0-5.9,0-11.5,0-16.4c-0.6-6.5,1.9-11.7,0.1-18.4
		C566.2,166,566.2,163.3,566.2,163.3z"/>
</g>
<rect id="janela-dir" x="457" y="168" display="none" fill="#F2F2F2" width="99" height="145"/>
<rect id="janela-esq" x="193" y="168" display="none" fill="#F2F2F2" width="99" height="146"/>
<g id="calha-esq" display="none">
	<rect x="237" y="168" display="inline" fill="#CCCCCC" width="10" height="145"/>
	<rect x="240" y="168" display="inline" fill="#E6E6E6" width="3" height="145"/>
</g>
<g id="calha-dir" display="none">
	<rect x="502" y="168" display="inline" fill="#CCCCCC" width="9" height="145"/>
	<rect x="505" y="168" display="inline" fill="#E6E6E6" width="2" height="145"/>
</g>
<linearGradient id="SVGID_20_" gradientUnits="userSpaceOnUse" x1="656.3618" y1="270.2725" x2="680.024" y2="263.9323">
	<stop  offset="0" style="stop-color:#B3B3B3"/>
	<stop  offset="0.3109" style="stop-color:#7B7B7B"/>
	<stop  offset="0.6268" style="stop-color:#494949"/>
	<stop  offset="0.8666" style="stop-color:#292929"/>
	<stop  offset="1" style="stop-color:#1E1E1E"/>
</linearGradient>
<path display="none" fill="url(#SVGID_20_)" d="M674.9,276.3h-10.4c-3.6,0-8.2-3.1-8.2-6.8v-5.7c0-3.8,3-6.1,6.6-6.1l11.9,1.1
	c5.1,1,5.1,4.2,5.1,8v2.4C680,273,678.5,276.3,674.9,276.3z"/>
<linearGradient id="fecha-cort1-esq_1_" gradientUnits="userSpaceOnUse" x1="179.8204" y1="243.8427" x2="218.2672" y2="243.8427">
	<stop  offset="9.302326e-002" style="stop-color:#242424"/>
	<stop  offset="0.6241" style="stop-color:#282828;stop-opacity:0.9766"/>
	<stop  offset="1" style="stop-color:#303030;stop-opacity:0.96"/>
</linearGradient>
<path id="fecha-cort1-esq" display="none" fill="url(#fecha-cort1-esq_1_)" d="M215.8,323.1c-6.6,0.6-32.3,3-33.8,0.4
	c-4.4-6.6-0.3-19.2-0.1-28.2c0-5-0.6-18.3-0.6-24.2c-0.2-39-4.2-67.9,1.7-107.4c14,0.6,29.3-0.6,35.2-0.6
	C217.1,225.5,215.8,323.1,215.8,323.1z"/>
<linearGradient id="fecha-cort1-dir_1_" gradientUnits="userSpaceOnUse" x1="362.8882" y1="243.4783" x2="401.335" y2="243.4783" gradientTransform="matrix(-1.0007 0 0 1 663.6497 0)">
	<stop  offset="9.302326e-002" style="stop-color:#242424"/>
	<stop  offset="0.5655" style="stop-color:#282828;stop-opacity:0.9766"/>
	<stop  offset="0.9" style="stop-color:#303030;stop-opacity:0.96"/>
</linearGradient>
<path id="fecha-cort1-dir" display="none" fill="url(#fecha-cort1-dir_1_)" d="M264,322.7c6.6,0.6,32.8,3,34.3,0.4
	c4.4-6.6,0.3-19.2,0.1-28.2c0-5,0.6-18.3,0.6-24.2c0.2-39,4.2-67.9-1.7-107.4c-14,0.6-29.3-0.6-35.2-0.6
	C263.9,225,264,322.7,264,322.7z"/>
<linearGradient id="fecha-cort2-esq_1_" gradientUnits="userSpaceOnUse" x1="452.7837" y1="243.4313" x2="499.3248" y2="243.4313">
	<stop  offset="9.302326e-002" style="stop-color:#242424"/>
	<stop  offset="0.6241" style="stop-color:#282828;stop-opacity:0.9766"/>
	<stop  offset="1" style="stop-color:#303030;stop-opacity:0.96"/>
</linearGradient>
<path id="fecha-cort2-esq" display="none" fill="url(#fecha-cort2-esq_1_)" d="M496.3,322.7c-8,0.6-39.1,3-40.9,0.4
	c-5.4-6.6-0.4-19.2-0.1-28.2c0-5-0.7-18.3-0.7-24.2c-0.3-39-5-67.9,2.1-107.4c17,0.6,35.5-0.6,42.6-0.6
	C497.9,225.1,496.3,322.7,496.3,322.7z"/>
<linearGradient id="fecha-cort2-dir_1_" gradientUnits="userSpaceOnUse" x1="104.3555" y1="243.0668" x2="142.8023" y2="243.0668" gradientTransform="matrix(-1.0007 0 0 1 663.6497 0)">
	<stop  offset="9.302326e-002" style="stop-color:#242424"/>
	<stop  offset="0.5655" style="stop-color:#282828;stop-opacity:0.9766"/>
	<stop  offset="0.9" style="stop-color:#303030;stop-opacity:0.96"/>
</linearGradient>
<path id="fecha-cort2-dir" display="none" fill="url(#fecha-cort2-dir_1_)" d="M522.7,322.3c6.6,0.6,32.8,3,34.3,0.4
	c4.4-6.6,0.3-19.2,0.1-28.2c0-5,0.6-18.3,0.6-24.2c0.2-39,4.2-67.9-1.7-107.4c-14,0.6-29.3-0.6-35.2-0.6
	C522.7,224.6,522.7,322.3,522.7,322.3z"/>
<linearGradient id="luz-entra-dir_1_" gradientUnits="userSpaceOnUse" x1="570.2686" y1="410" x2="570.2686" y2="330">
	<stop  offset="0" style="stop-color:#24222A;stop-opacity:0"/>
	<stop  offset="0.7535" style="stop-color:#595948;stop-opacity:0.5"/>
</linearGradient>
<polygon id="luz-entra-dir" display="none" opacity="0.54" fill="url(#luz-entra-dir_1_)" points="450,330 562.5,330 796.9,410 
	343.6,410 "/>
<linearGradient id="luz-entra-esq_1_" gradientUnits="userSpaceOnUse" x1="195.2361" y1="410" x2="195.2361" y2="330">
	<stop  offset="0" style="stop-color:#24222A;stop-opacity:0"/>
	<stop  offset="0.7535" style="stop-color:#595948;stop-opacity:0.5"/>
</linearGradient>
<polygon id="luz-entra-esq" display="none" opacity="0.54" fill="url(#luz-entra-esq_1_)" points="185.9,330 297.1,330 406.9,410 
	-16.5,410 "/>
<g display="none">
	<linearGradient id="SVGID_21_" gradientUnits="userSpaceOnUse" x1="205.6013" y1="380.2442" x2="266.3022" y2="319.5433">
		<stop  offset="0" style="stop-color:#191919;stop-opacity:0"/>
		<stop  offset="0.6096" style="stop-color:#191919"/>
	</linearGradient>
	<path display="inline" opacity="0.95" fill="url(#SVGID_21_)" d="M259.5,330.3c0,0-7.3,6.6-18.3,15.6c9.4-9.1,17-15.7,17-15.7
		s-10.3-1.2-21.2-0.7l-0.3,1.8c2.4-0.1,3.8,0.1,3.8,0.1s-8.1,7.7-12.7,12.8c-3.4,3.8-9,3.5-12.9,4.7c-2.6,0.8-6.1,5.4-6.2,6.8
		c-3.1,10.1,1.4,12.2,3.4,14.2c-0.3,0.2-1,0.6-1.8,1.1c-1.8,1.2-4.4,3.1-5.9,4.7c-0.8,0.9-1.3,1.6-1.2,2c0,0.1,0.1,0.1,0.1,0.2
		c0.2,0.2,0.4,0.3,0.8,0.4c2.5,0.7,9.1,0.1,11.6-0.8c0.8-0.3,1.8-0.9,2.7-1.6c1.5-1.1,2.8-2.6,3.4-3.8c0.4-0.7,0.5-1.3,0.2-1.6
		c-0.5-0.2-1.3-0.4-2.3-0.6c6.4-2.1,2.9,2.3,20.2-7.5c2.6-1.3,13.5-7,13.5-9.7c0-2.1-0.4-4.8,4.1-8.1c6.8-5,15.9-12.5,15.9-12.5
		s0.9-0.2,3,0l0.8-1.8C268.1,329.5,259.5,330.3,259.5,330.3z"/>
	<g display="inline">
		<g id="Abe-costas">
			
				<linearGradient id="SVGID_22_" gradientUnits="userSpaceOnUse" x1="552.3071" y1="291.9571" x2="552.3071" y2="278.2444" gradientTransform="matrix(-1.1367 -5.071853e-003 -0.1451 1.0326 944.0768 -8.3043)">
				<stop  offset="0" style="stop-color:#BD9661"/>
				<stop  offset="0.4058" style="stop-color:#C39B64"/>
				<stop  offset="0.9548" style="stop-color:#D4A96D"/>
				<stop  offset="0.9972" style="stop-color:#D6AA6E"/>
			</linearGradient>
			<path fill="url(#SVGID_22_)" d="M272.7,277c-2.7,2.2-3.8,4.3-1.9,9.6c1.4,4.1,3.8,4.9,6.5,2.5c3.9-3.6,3-4.8,1.7-8.2
				C277.6,277.5,275.3,274.8,272.7,277z"/>
			
				<linearGradient id="SVGID_23_" gradientUnits="userSpaceOnUse" x1="475.514" y1="282.5173" x2="497.4278" y2="281.4297" gradientTransform="matrix(-0.9988 4.957049e-002 4.957049e-002 0.9988 739.9935 -43.9893)">
				<stop  offset="0" style="stop-color:#6C7880"/>
				<stop  offset="0.2312" style="stop-color:#859198"/>
				<stop  offset="0.4807" style="stop-color:#98A4AB"/>
				<stop  offset="0.7347" style="stop-color:#A3B0B6"/>
				<stop  offset="0.9972" style="stop-color:#A7B4BA"/>
			</linearGradient>
			<path fill="url(#SVGID_23_)" d="M270,283.8c-6.6-25.3-12.8-38.3-12.8-38.3l1-5.7c1.2,0.9,12.7,13.3,21,41.6L270,283.8L270,283.8z
				"/>
			<path fill="#20211D" d="M237.1,328.4c2.1,0.3,3.7-0.2,3.7-0.2s0.1-17.4,1-28.8c0.8-11.1,2.3-18.1,2.3-18.1l23.3,0.3
				c0,0,1.6,6.4,3,17.5c1.4,11.4,2.5,28.2,2.5,28.2s1.6,0.5,3.7,0.2l1.8,4c-9.6,2-20.7,0-20.7,0s-0.2-14.8-1.5-35.2
				c-0.3,20.4,0.2,35.3,0.2,35.3s-11,2.5-20.7,1L237.1,328.4z"/>
			
				<linearGradient id="SVGID_24_" gradientUnits="userSpaceOnUse" x1="510.1207" y1="294.1488" x2="487.5649" y2="255.0808" gradientTransform="matrix(-0.9997 2.409443e-002 2.409443e-002 0.9997 751.2015 -21.2358)">
				<stop  offset="0" style="stop-color:#6C7880"/>
				<stop  offset="0.2312" style="stop-color:#859198"/>
				<stop  offset="0.4807" style="stop-color:#98A4AB"/>
				<stop  offset="0.7347" style="stop-color:#A3B0B6"/>
				<stop  offset="0.9972" style="stop-color:#A7B4BA"/>
			</linearGradient>
			<path fill="url(#SVGID_24_)" d="M255.7,237.8l4.2,4c2.1,13.5,4.8,31,8.1,41.8l-24.5-1.1C247,247,255.7,237.8,255.7,237.8z"/>
			
				<linearGradient id="SVGID_25_" gradientUnits="userSpaceOnUse" x1="1269.3053" y1="282.1565" x2="1269.3053" y2="268.4408" gradientTransform="matrix(1.1363 3.340098e-002 0.1101 1.0369 -1235.7782 -44.8121)">
				<stop  offset="0" style="stop-color:#BD9661"/>
				<stop  offset="0.4058" style="stop-color:#C39B64"/>
				<stop  offset="0.9548" style="stop-color:#D4A96D"/>
				<stop  offset="0.9972" style="stop-color:#D6AA6E"/>
			</linearGradient>
			<path fill="url(#SVGID_25_)" d="M239.2,276.8c2.7,2.3,3.6,4.4,1.6,9.6c-1.5,4.1-3.9,4.7-6.5,2.2c-3.8-3.7-2.8-5-1.5-8.2
				C234.2,277.2,236.6,274.6,239.2,276.8z"/>
			
				<linearGradient id="SVGID_26_" gradientUnits="userSpaceOnUse" x1="508.7448" y1="265.548" x2="519.5555" y2="259.2745" gradientTransform="matrix(-1 2.212614e-003 2.212614e-003 1 760.3439 -1.2017)">
				<stop  offset="0" style="stop-color:#6C7880"/>
				<stop  offset="0.2312" style="stop-color:#859198"/>
				<stop  offset="0.4807" style="stop-color:#98A4AB"/>
				<stop  offset="0.7347" style="stop-color:#A3B0B6"/>
				<stop  offset="0.9972" style="stop-color:#A7B4BA"/>
			</linearGradient>
			<path fill="url(#SVGID_26_)" d="M241.7,283.7l-9-2.8c9-27.9,20.7-39.9,21.9-40.7l0.8,5.8C255.4,246,248.9,258.7,241.7,283.7
				L241.7,283.7z"/>
			
				<linearGradient id="SVGID_27_" gradientUnits="userSpaceOnUse" x1="499.0987" y1="251.8071" x2="498.6125" y2="231.6379" gradientTransform="matrix(-0.9997 2.409443e-002 2.409443e-002 0.9997 751.2015 -21.2358)">
				<stop  offset="0" style="stop-color:#B5905D"/>
				<stop  offset="0.5079" style="stop-color:#C89F67"/>
				<stop  offset="0.9972" style="stop-color:#D6AA6E"/>
			</linearGradient>
			<path fill="url(#SVGID_27_)" d="M264.4,237.1c-0.4,1.6-0.9,3-1.4,3.7c-2.7,2.1-9.6,2-10,1.5c-0.1-0.2-0.4-1.3-0.6-2.8l4.2,0.4
				L264.4,237.1z"/>
			<path fill="#A08B35" d="M253.8,222.9l-1.2,0.9C253,223.5,253.4,223.2,253.8,222.9z"/>
			<path fill="#A08B35" d="M251.5,228.7c0.5-1.6,1.2-3.2,2.2-3.4c2-0.5,3.2,1,5.5,1.2c1.9,0.2,3.6,1.2,5.4,1.9
				c0.1,0.1,0.2,0.1,0.4,0.2c0.3,2.5,0,5.8-0.6,8.4l-7.9,2.7l-4.2-0.4C251.8,236.6,251.3,232.3,251.5,228.7z"/>
			<path fill="#A08B35" d="M263.9,225c0.5,0.7,0.8,2,1,3.6c-0.1-0.1-0.2-0.1-0.4-0.2c-1.8-0.7-3.5-1.8-5.4-1.9
				c-2.3-0.2-3.5-1.8-5.5-1.2c-1,0.2-1.6,1.8-2.2,3.4c0.1-1.9,0.3-3.5,0.9-4.4c0.1-0.2,0.2-0.3,0.3-0.4l1.2-0.9
				C256.9,221.4,262.5,222.9,263.9,225z"/>
		</g>
		<g id="Abe-costas_2_" opacity="0.8">
			<path fill="#191919" d="M272.7,277c-2.7,2.2-3.8,4.3-1.9,9.6c1.4,4.1,3.8,4.9,6.5,2.5c3.9-3.6,3-4.8,1.7-8.2
				C277.6,277.5,275.3,274.8,272.7,277z"/>
			<path fill="#191919" d="M270,283.8c-6.6-25.3-12.8-38.3-12.8-38.3l1-5.7c1.2,0.9,12.7,13.3,21,41.6L270,283.8L270,283.8z"/>
			<path fill="#191919" d="M237.1,328.4c2.1,0.3,3.7-0.2,3.7-0.2s0.1-17.4,1-28.8c0.8-11.1,2.3-18.1,2.3-18.1l23.3,0.3
				c0,0,1.6,6.4,3,17.5c1.4,11.4,2.5,28.2,2.5,28.2s1.6,0.5,3.7,0.2l1.8,4c-9.6,2-20.7,0-20.7,0s-0.2-14.8-1.5-35.2
				c-0.3,20.4,0.2,35.3,0.2,35.3s-11,2.5-20.7,1L237.1,328.4z"/>
			<path fill="#191919" d="M255.7,237.8l4.2,4c2.1,13.5,4.8,31,8.1,41.8l-24.5-1.1C247,247,255.7,237.8,255.7,237.8z"/>
			<path fill="#191919" d="M239.2,276.8c2.7,2.3,3.6,4.4,1.6,9.6c-1.5,4.1-3.9,4.7-6.5,2.2c-3.8-3.7-2.8-5-1.5-8.2
				C234.2,277.2,236.6,274.6,239.2,276.8z"/>
			<path fill="#191919" d="M241.7,283.7l-9-2.8c9-27.9,20.7-39.9,21.9-40.7l0.8,5.8C255.4,246,248.9,258.7,241.7,283.7L241.7,283.7z
				"/>
			<path fill="#191919" d="M264.4,237.1c-0.4,1.6-0.9,3-1.4,3.7c-2.7,2.1-9.6,2-10,1.5c-0.1-0.2-0.4-1.3-0.6-2.8l4.2,0.4
				L264.4,237.1z"/>
			<path fill="#191919" d="M253.8,222.9l-1.2,0.9C253,223.5,253.4,223.2,253.8,222.9z"/>
			<path fill="#191919" d="M251.5,228.7c0.5-1.6,1.2-3.2,2.2-3.4c2-0.5,3.2,1,5.5,1.2c1.9,0.2,3.6,1.2,5.4,1.9
				c0.1,0.1,0.2,0.1,0.4,0.2c0.3,2.5,0,5.8-0.6,8.4l-7.9,2.7l-4.2-0.4C251.8,236.6,251.3,232.3,251.5,228.7z"/>
			<path fill="#191919" d="M263.9,225c0.5,0.7,0.8,2,1,3.6c-0.1-0.1-0.2-0.1-0.4-0.2c-1.8-0.7-3.5-1.8-5.4-1.9
				c-2.3-0.2-3.5-1.8-5.5-1.2c-1,0.2-1.6,1.8-2.2,3.4c0.1-1.9,0.3-3.5,0.9-4.4c0.1-0.2,0.2-0.3,0.3-0.4l1.2-0.9
				C256.9,221.4,262.5,222.9,263.9,225z"/>
		</g>
	</g>
</g>
<g display="none">
	<g display="inline">
		<g id="Aaron-costas">
			
				<linearGradient id="SVGID_28_" gradientUnits="userSpaceOnUse" x1="714.8014" y1="289.3154" x2="714.8014" y2="275.6028" gradientTransform="matrix(1.1367 -5.071853e-003 0.1451 1.0326 -337.7183 -8.3043)">
				<stop  offset="0" style="stop-color:#BD9661"/>
				<stop  offset="0.4058" style="stop-color:#C39B64"/>
				<stop  offset="0.9548" style="stop-color:#D4A96D"/>
				<stop  offset="0.9972" style="stop-color:#D6AA6E"/>
			</linearGradient>
			<path fill="url(#SVGID_28_)" d="M518,273.4c2.7,2.2,3.8,4.3,1.9,9.6c-1.4,4.1-3.8,4.9-6.5,2.5c-3.9-3.6-3-4.8-1.7-8.2
				C513.1,274,515.4,271.3,518,273.4z"/>
			
				<linearGradient id="SVGID_29_" gradientUnits="userSpaceOnUse" x1="659.4421" y1="269.8324" x2="681.356" y2="268.7448" gradientTransform="matrix(0.9988 4.957049e-002 -4.957049e-002 0.9988 -133.6349 -43.9893)">
				<stop  offset="0" style="stop-color:#6C7880"/>
				<stop  offset="0.2312" style="stop-color:#859198"/>
				<stop  offset="0.4807" style="stop-color:#98A4AB"/>
				<stop  offset="0.7347" style="stop-color:#A3B0B6"/>
				<stop  offset="0.9972" style="stop-color:#A7B4BA"/>
			</linearGradient>
			<path fill="url(#SVGID_29_)" d="M520.7,280.2c6.6-25.3,12.8-38.3,12.8-38.3l-1-5.7c-1.2,0.9-12.7,13.3-21,41.6L520.7,280.2
				L520.7,280.2z"/>
			<path fill="#20211D" d="M553.6,324.9c-2.1,0.3-3.7-0.2-3.7-0.2s-0.1-17.4-1-28.8c-0.8-11.1-2.3-18.1-2.3-18.1l-23.3,0.3
				c0,0-1.6,6.4-3,17.5c-1.4,11.4-2.5,28.2-2.5,28.2s-1.6,0.5-3.7,0.2l-1.8,4c9.6,2,20.7,0,20.7,0s0.2-14.8,1.5-35.2
				c0.3,20.4-0.2,35.3-0.2,35.3s11,2.5,20.7,1L553.6,324.9z"/>
			
				<linearGradient id="SVGID_30_" gradientUnits="userSpaceOnUse" x1="694.3124" y1="286.1566" x2="671.7565" y2="247.0886" gradientTransform="matrix(0.9997 2.409443e-002 -2.409443e-002 0.9997 -144.843 -21.2358)">
				<stop  offset="0" style="stop-color:#6C7880"/>
				<stop  offset="0.2312" style="stop-color:#859198"/>
				<stop  offset="0.4807" style="stop-color:#98A4AB"/>
				<stop  offset="0.7347" style="stop-color:#A3B0B6"/>
				<stop  offset="0.9972" style="stop-color:#A7B4BA"/>
			</linearGradient>
			<path fill="url(#SVGID_30_)" d="M535,234.2l-4.2,4c-2.1,13.5-4.8,31-8.1,41.8l24.5-1.1C543.7,243.4,535,234.2,535,234.2z"/>
			
				<linearGradient id="SVGID_31_" gradientUnits="userSpaceOnUse" x1="1106.9049" y1="283.9623" x2="1106.9049" y2="270.2466" gradientTransform="matrix(-1.1363 3.340098e-002 -0.1101 1.0369 1842.1367 -44.8121)">
				<stop  offset="0" style="stop-color:#BD9661"/>
				<stop  offset="0.4058" style="stop-color:#C39B64"/>
				<stop  offset="0.9548" style="stop-color:#D4A96D"/>
				<stop  offset="0.9972" style="stop-color:#D6AA6E"/>
			</linearGradient>
			<path fill="url(#SVGID_31_)" d="M551.5,273.3c-2.7,2.3-3.6,4.4-1.6,9.6c1.5,4.1,3.9,4.7,6.5,2.2c3.8-3.7,2.8-5,1.5-8.2
				S554.1,271,551.5,273.3z"/>
			
				<linearGradient id="SVGID_32_" gradientUnits="userSpaceOnUse" x1="693.0668" y1="261.5883" x2="703.8776" y2="255.3148" gradientTransform="matrix(1 2.212614e-003 -2.212614e-003 1 -153.9853 -1.2017)">
				<stop  offset="0" style="stop-color:#6C7880"/>
				<stop  offset="0.2312" style="stop-color:#859198"/>
				<stop  offset="0.4807" style="stop-color:#98A4AB"/>
				<stop  offset="0.7347" style="stop-color:#A3B0B6"/>
				<stop  offset="0.9972" style="stop-color:#A7B4BA"/>
			</linearGradient>
			<path fill="url(#SVGID_32_)" d="M549,280.2l9-2.8c-9-27.9-20.7-39.9-21.9-40.7l-0.8,5.8C535.3,242.4,541.8,255.1,549,280.2
				L549,280.2z"/>
			
				<linearGradient id="SVGID_33_" gradientUnits="userSpaceOnUse" x1="683.2903" y1="243.8149" x2="682.8043" y2="223.6456" gradientTransform="matrix(0.9997 2.409443e-002 -2.409443e-002 0.9997 -144.843 -21.2358)">
				<stop  offset="0" style="stop-color:#B5905D"/>
				<stop  offset="0.5079" style="stop-color:#C89F67"/>
				<stop  offset="0.9972" style="stop-color:#D6AA6E"/>
			</linearGradient>
			<path fill="url(#SVGID_33_)" d="M526.3,233.5c0.4,1.6,0.9,3,1.4,3.7c2.7,2.1,9.6,2,10,1.5c0.1-0.2,0.4-1.3,0.6-2.8l-4.2,0.4
				L526.3,233.5z"/>
			<path fill="#A08B35" d="M536.9,219.4l1.2,0.9C537.7,219.9,537.3,219.6,536.9,219.4z"/>
			<path fill="#44473D" d="M539.2,225.2c-0.5-1.6-1.2-3.2-2.2-3.4c-2-0.5-3.2,1-5.5,1.2c-1.9,0.2-3.6,1.2-5.4,1.9
				c-0.1,0.1-0.2,0.1-0.4,0.2c-0.3,2.5,0,5.8,0.6,8.4l7.9,2.7l4.2-0.4C538.9,233.1,539.4,228.8,539.2,225.2z"/>
			<path fill="#44473D" d="M526.8,221.5c-0.5,0.7-0.8,2-1,3.6c0.1-0.1,0.2-0.1,0.4-0.2c1.8-0.7,3.5-1.8,5.4-1.9
				c2.3-0.2,3.5-1.8,5.5-1.2c1,0.2,1.6,1.8,2.2,3.4c-0.1-1.9-0.3-3.5-0.9-4.4c-0.1-0.2-0.2-0.3-0.3-0.4l-1.2-0.9
				C533.8,217.8,528.2,219.4,526.8,221.5z"/>
		</g>
		<g id="Aaron-costas_2_" opacity="0.8">
			<path fill="#191919" d="M518,273.4c2.7,2.2,3.8,4.3,1.9,9.6c-1.4,4.1-3.8,4.9-6.5,2.5c-3.9-3.6-3-4.8-1.7-8.2
				C513.1,274,515.4,271.3,518,273.4z"/>
			<path fill="#191919" d="M520.7,280.2c6.6-25.3,12.8-38.3,12.8-38.3l-1-5.7c-1.2,0.9-12.7,13.3-21,41.6L520.7,280.2L520.7,280.2z"
				/>
			<path fill="#191919" d="M553.6,324.9c-2.1,0.3-3.7-0.2-3.7-0.2s-0.1-17.4-1-28.8c-0.8-11.1-2.3-18.1-2.3-18.1l-23.3,0.3
				c0,0-1.6,6.4-3,17.5c-1.4,11.4-2.5,28.2-2.5,28.2s-1.6,0.5-3.7,0.2l-1.8,4c9.6,2,20.7,0,20.7,0s0.2-14.8,1.5-35.2
				c0.3,20.4-0.2,35.3-0.2,35.3s11,2.5,20.7,1L553.6,324.9z"/>
			<path fill="#191919" d="M535,234.2l-4.2,4c-2.1,13.5-4.8,31-8.1,41.8l24.5-1.1C543.7,243.4,535,234.2,535,234.2z"/>
			<path fill="#191919" d="M551.5,273.3c-2.7,2.3-3.6,4.4-1.6,9.6c1.5,4.1,3.9,4.7,6.5,2.2c3.8-3.7,2.8-5,1.5-8.2
				S554.1,271,551.5,273.3z"/>
			<path fill="#191919" d="M549,280.2l9-2.8c-9-27.9-20.7-39.9-21.9-40.7l-0.8,5.8C535.3,242.4,541.8,255.1,549,280.2L549,280.2z"/>
			<path fill="#191919" d="M526.3,233.5c0.4,1.6,0.9,3,1.4,3.7c2.7,2.1,9.6,2,10,1.5c0.1-0.2,0.4-1.3,0.6-2.8l-4.2,0.4L526.3,233.5z
				"/>
			<path fill="#191919" d="M536.9,219.4l1.2,0.9C537.7,219.9,537.3,219.6,536.9,219.4z"/>
			<path fill="#191919" d="M539.2,225.2c-0.5-1.6-1.2-3.2-2.2-3.4c-2-0.5-3.2,1-5.5,1.2c-1.9,0.2-3.6,1.2-5.4,1.9
				c-0.1,0.1-0.2,0.1-0.4,0.2c-0.3,2.5,0,5.8,0.6,8.4l7.9,2.7l4.2-0.4C538.9,233.1,539.4,228.8,539.2,225.2z"/>
			<path fill="#191919" d="M526.8,221.5c-0.5,0.7-0.8,2-1,3.6c0.1-0.1,0.2-0.1,0.4-0.2c1.8-0.7,3.5-1.8,5.4-1.9
				c2.3-0.2,3.5-1.8,5.5-1.2c1,0.2,1.6,1.8,2.2,3.4c-0.1-1.9-0.3-3.5-0.9-4.4c-0.1-0.2-0.2-0.3-0.3-0.4l-1.2-0.9
				C533.8,217.8,528.2,219.4,526.8,221.5z"/>
		</g>
	</g>
	
		<linearGradient id="SVGID_34_" gradientUnits="userSpaceOnUse" x1="407.0135" y1="317.0276" x2="346.6826" y2="377.3585" gradientTransform="matrix(-1 -2.258522e-003 -2.122476e-003 0.9398 932.1447 19.3693)">
		<stop  offset="0.2193" style="stop-color:#191919"/>
		<stop  offset="0.7887" style="stop-color:#191919;stop-opacity:4.073054e-002"/>
		<stop  offset="0.8128" style="stop-color:#191919;stop-opacity:0"/>
	</linearGradient>
	<path display="inline" opacity="0.95" fill="url(#SVGID_34_)" d="M532.3,328.4c0,0,7.3,5.7,18.3,13.6c-9.4-7.9-16.9-13.6-16.9-13.6
		s10.3-1.1,21.2-0.6l0.3,1.6c-2.4-0.1-3.8,0.1-3.8,0.1s8.1,6.7,12.6,11.1c3.3,3.3,9,3.1,12.9,4.1c2.6,0.7,6.1,4.7,6.2,5.9
		c3.1,8.7-1.5,10.6-3.5,12.2c0.3,0.2,1,0.5,1.8,1c1.8,1.1,4.4,2.7,5.9,4.1c0.8,0.7,1.3,1.4,1.2,1.7c0,0.1-0.1,0.1-0.1,0.2
		c-0.2,0.1-0.4,0.3-0.8,0.4c-2.5,0.6-9.1,0.1-11.6-0.7c-0.8-0.3-1.8-0.8-2.7-1.4c-1.5-1-2.8-2.2-3.4-3.2c-0.4-0.6-0.5-1.1-0.2-1.4
		c0.5-0.2,1.3-0.4,2.3-0.5c-6.4-1.8-2.9,1.9-20.2-6.5c-2.6-1.1-13.5-6.1-13.5-8.4c0-1.8,0.4-4.1-4.1-7c-6.8-4.4-15.9-10.8-15.9-10.8
		s-0.9-0.2-3,0l-2.7-2.5C521.8,326.7,532.3,328.4,532.3,328.4z"/>
</g>
<linearGradient id="SVGID_35_" gradientUnits="userSpaceOnUse" x1="-243.7208" y1="217.4411" x2="-103.3574" y2="217.4411" gradientTransform="matrix(-0.9552 0 0 1 -97.7608 0)">
	<stop  offset="0" style="stop-color:#191919;stop-opacity:0"/>
	<stop  offset="0.1108" style="stop-color:#191919;stop-opacity:0.1108"/>
	<stop  offset="1" style="stop-color:#191919"/>
</linearGradient>
<rect x="1" y="99.5" display="none" fill="url(#SVGID_35_)" width="134.1" height="236"/>
<linearGradient id="SVGID_36_" gradientUnits="userSpaceOnUse" x1="-256.0281" y1="289.5131" x2="-83.3632" y2="289.5131" gradientTransform="matrix(0.9552 0 0 -1 879.0933 502)">
	<stop  offset="0" style="stop-color:#191919;stop-opacity:0"/>
	<stop  offset="1" style="stop-color:#191919"/>
</linearGradient>
<rect x="634.5" y="98.5" display="none" fill="url(#SVGID_36_)" width="164.9" height="227.9"/>
<g display="none">
	<linearGradient id="SVGID_37_" gradientUnits="userSpaceOnUse" x1="202.9527" y1="378.5956" x2="264.6536" y2="316.8947">
		<stop  offset="0" style="stop-color:#191919;stop-opacity:0"/>
		<stop  offset="0.6096" style="stop-color:#191919"/>
	</linearGradient>
	<path display="inline" opacity="0.95" fill="url(#SVGID_37_)" d="M258.5,330.3c0,0-7.3,6.6-18.3,15.6c9.4-9.1,17-15.7,17-15.7
		s-9.3-1.2-20.2-0.7l-0.3,1.8c2.4-0.1,2.8,0.1,2.8,0.1s-8.1,7.7-12.7,12.8c-3.4,3.8-10.3,7.7-12.9,4.7c-6.6-7.6-11.6-5-11.7-3.7
		c-3.1,10.1,6.9,22.6,8.9,24.6c-0.3,0.2-1,0.6-1.8,1.1c-1.8,1.2-4.4,3.1-5.9,4.7c-0.8,0.9-1.3,1.6-1.2,2c0,0.1,0.1,0.1,0.1,0.2
		c0.2,0.2,0.4,0.3,0.8,0.4c2.5,0.7,9.1,0.1,11.6-0.8c0.8-0.3,1.8-0.9,2.7-1.6c1.5-1.1,2.8-2.6,3.4-3.8c0.4-0.7,0.5-1.3,0.2-1.6
		c-0.5-0.2-1.3-0.4-2.3-0.6c6.4-2.1,17.7,1.7,35-8c4.7-3.7-4.2-5.2-4.2-7.9c0-2.1,2.4-6,6.9-9.3c6.8-5,15.9-12.5,15.9-12.5
		s0.9-0.2,3,0l2.8-1.8C269.1,329.5,258.5,330.3,258.5,330.3z"/>
	<g display="inline">
		<g>
			
				<linearGradient id="SVGID_38_" gradientUnits="userSpaceOnUse" x1="319.9692" y1="248.8828" x2="329.5668" y2="248.8828" gradientTransform="matrix(0.9975 7.116732e-002 -7.116732e-002 0.9975 -16.3174 -22.4626)">
				<stop  offset="0" style="stop-color:#BD9661"/>
				<stop  offset="0.4058" style="stop-color:#C39B64"/>
				<stop  offset="0.9548" style="stop-color:#D4A96D"/>
				<stop  offset="0.9972" style="stop-color:#D6AA6E"/>
			</linearGradient>
			<path fill="url(#SVGID_38_)" d="M285.2,247.5c0,0,1.9-2.3,3.2-2.5c7.9-1.5,6.5,6,5.6,6.8c-0.8,0.7-3.3,1.5-3.3,1.5L285.2,247.5z"
				/>
			
				<linearGradient id="SVGID_39_" gradientUnits="userSpaceOnUse" x1="5.5713" y1="-466.233" x2="5.5713" y2="-505.8128" gradientTransform="matrix(3.130846e-002 -0.9995 0.9995 3.130846e-002 757.5476 273.561)">
				<stop  offset="0" style="stop-color:#6C7880"/>
				<stop  offset="0.2312" style="stop-color:#859198"/>
				<stop  offset="0.4807" style="stop-color:#98A4AB"/>
				<stop  offset="0.7347" style="stop-color:#A3B0B6"/>
				<stop  offset="0.9972" style="stop-color:#A7B4BA"/>
			</linearGradient>
			<path fill="url(#SVGID_39_)" d="M270.5,262.5c-9.5-1.7-15.4-12-17.8-17.4c-0.9-1.9,0.8-2.9,0.8-2.9l6.6,1c3.4,6,8.8,10.3,13,11.1
				c4.1,0.8,8.1-2.7,12.8-7.5l5.9,6C285.4,258.5,279.2,264.1,270.5,262.5z"/>
		</g>
		<g>
			
				<linearGradient id="SVGID_40_" gradientUnits="userSpaceOnUse" x1="807.4337" y1="259.8723" x2="817.0313" y2="259.8723" gradientTransform="matrix(-0.9937 -0.1117 -0.1117 0.9937 1058.9346 75.4195)">
				<stop  offset="0" style="stop-color:#BD9661"/>
				<stop  offset="0.4058" style="stop-color:#C39B64"/>
				<stop  offset="0.9548" style="stop-color:#D4A96D"/>
				<stop  offset="0.9972" style="stop-color:#D6AA6E"/>
			</linearGradient>
			<path fill="url(#SVGID_40_)" d="M227.6,242.4c0,0-1.5-2.6-2.7-3.1c-7.5-2.9-7.5,4.8-6.8,5.6c0.7,0.9,3,2.1,3,2.1L227.6,242.4z"/>
			
				<linearGradient id="SVGID_41_" gradientUnits="userSpaceOnUse" x1="-23.4251" y1="20.4047" x2="-23.4251" y2="-19.175" gradientTransform="matrix(0.1513 -0.9885 -0.9885 -0.1513 244.0939 225.5348)">
				<stop  offset="0" style="stop-color:#6C7880"/>
				<stop  offset="0.2312" style="stop-color:#859198"/>
				<stop  offset="0.4807" style="stop-color:#98A4AB"/>
				<stop  offset="0.7347" style="stop-color:#A3B0B6"/>
				<stop  offset="0.9972" style="stop-color:#A7B4BA"/>
			</linearGradient>
			<path fill="url(#SVGID_41_)" d="M239.9,256.9c9.7,0.1,16.9-6.1,20.2-10.9c1.2-1.7-0.2-3-0.2-3l-6.7-0.3
				c-4.4,5.3-10.1,5.6-14.3,5.6c-4.2,0-7.9-1.2-11.7-6.7l-6.9,4.8C225.4,253.2,231,256.8,239.9,256.9z"/>
		</g>
		<path fill="#20211D" d="M237.1,328.4c2.1,0.3,3.7-0.2,3.7-0.2s0.1-17.4,1-28.8c0.8-11.1,2.3-18.1,2.3-18.1l23.3,0.3
			c0,0,1.6,6.4,3,17.5c1.4,11.4,2.5,28.2,2.5,28.2s1.6,0.5,3.7,0.2l1.8,4c-9.6,2-20.7,0-20.7,0s-0.2-14.8-1.5-35.2
			c-0.3,20.4,0.2,35.3,0.2,35.3s-11,2.5-20.7,1L237.1,328.4z"/>
		
			<linearGradient id="SVGID_42_" gradientUnits="userSpaceOnUse" x1="510.1207" y1="294.1488" x2="487.5649" y2="255.0808" gradientTransform="matrix(-0.9997 2.409443e-002 2.409443e-002 0.9997 751.2015 -21.2358)">
			<stop  offset="0" style="stop-color:#6C7880"/>
			<stop  offset="0.2312" style="stop-color:#859198"/>
			<stop  offset="0.4807" style="stop-color:#98A4AB"/>
			<stop  offset="0.7347" style="stop-color:#A3B0B6"/>
			<stop  offset="0.9972" style="stop-color:#A7B4BA"/>
		</linearGradient>
		<path fill="url(#SVGID_42_)" d="M255.7,237.8l4.2,4c2.1,13.5,4.8,31,8.1,41.8l-24.5-1.1C247,247,255.7,237.8,255.7,237.8z"/>
		
			<linearGradient id="SVGID_43_" gradientUnits="userSpaceOnUse" x1="499.0987" y1="251.8071" x2="498.6125" y2="231.6379" gradientTransform="matrix(-0.9997 2.409443e-002 2.409443e-002 0.9997 751.2015 -21.2358)">
			<stop  offset="0" style="stop-color:#B5905D"/>
			<stop  offset="0.5079" style="stop-color:#C89F67"/>
			<stop  offset="0.9972" style="stop-color:#D6AA6E"/>
		</linearGradient>
		<path fill="url(#SVGID_43_)" d="M264.4,237.1c-0.4,1.6-0.9,3-1.4,3.7c-2.7,2.1-9.6,2-10,1.5c-0.1-0.2-0.4-1.3-0.6-2.8l4.2,0.4
			L264.4,237.1z"/>
		<path fill="#A08B35" d="M253.8,222.9l-1.2,0.9C253,223.5,253.4,223.2,253.8,222.9z"/>
		<path fill="#A08B35" d="M251.5,228.7c0.5-1.6,1.2-3.2,2.2-3.4c2-0.5,3.2,1,5.5,1.2c1.9,0.2,3.6,1.2,5.4,1.9
			c0.1,0.1,0.2,0.1,0.4,0.2c0.3,2.5,0,5.8-0.6,8.4l-7.9,2.7l-4.2-0.4C251.8,236.6,251.3,232.3,251.5,228.7z"/>
		<path fill="#A08B35" d="M263.9,225c0.5,0.7,0.8,2,1,3.6c-0.1-0.1-0.2-0.1-0.4-0.2c-1.8-0.7-3.5-1.8-5.4-1.9
			c-2.3-0.2-3.5-1.8-5.5-1.2c-1,0.2-1.6,1.8-2.2,3.4c0.1-1.9,0.3-3.5,0.9-4.4c0.1-0.2,0.2-0.3,0.3-0.4l1.2-0.9
			C256.9,221.4,262.5,222.9,263.9,225z"/>
	</g>
	<g display="inline" opacity="0.8">
		<g>
			<path fill="#191919" d="M285.2,247.5c0,0,1.9-2.3,3.2-2.5c7.9-1.5,6.5,6,5.6,6.8c-0.8,0.7-3.3,1.5-3.3,1.5L285.2,247.5z"/>
			<path fill="#191919" d="M270.5,262.5c-9.5-1.7-15.4-12-17.8-17.4c-0.9-1.9,0.8-2.9,0.8-2.9l6.6,1c3.4,6,8.8,10.3,13,11.1
				c4.1,0.8,8.1-2.7,12.8-7.5l5.9,6C285.4,258.5,279.2,264.1,270.5,262.5z"/>
		</g>
		<g>
			<path fill="#191919" d="M227.6,242.4c0,0-1.5-2.6-2.7-3.1c-7.5-2.9-7.5,4.8-6.8,5.6c0.7,0.9,3,2.1,3,2.1L227.6,242.4z"/>
			<path fill="#191919" d="M239.9,256.9c9.7,0.1,16.9-6.1,20.2-10.9c1.2-1.7-0.2-3-0.2-3l-6.7-0.3c-4.4,5.3-10.1,5.6-14.3,5.6
				c-4.2,0-7.9-1.2-11.7-6.7l-6.9,4.8C225.4,253.2,231,256.8,239.9,256.9z"/>
		</g>
		<path fill="#191919" d="M237.1,328.4c2.1,0.3,3.7-0.2,3.7-0.2s0.1-17.4,1-28.8c0.8-11.1,2.3-18.1,2.3-18.1l23.3,0.3
			c0,0,1.6,6.4,3,17.5c1.4,11.4,2.5,28.2,2.5,28.2s1.6,0.5,3.7,0.2l1.8,4c-9.6,2-20.7,0-20.7,0s-0.2-14.8-1.5-35.2
			c-0.3,20.4,0.2,35.3,0.2,35.3s-11,2.5-20.7,1L237.1,328.4z"/>
		<path fill="#191919" d="M255.7,237.8l4.2,4c2.1,13.5,4.8,31,8.1,41.8l-24.5-1.1C247,247,255.7,237.8,255.7,237.8z"/>
		<path fill="#191919" d="M264.4,237.1c-0.4,1.6-0.9,3-1.4,3.7c-2.7,2.1-9.6,2-10,1.5c-0.1-0.2-0.4-1.3-0.6-2.8l4.2,0.4L264.4,237.1
			z"/>
		<path fill="#191919" d="M253.8,222.9l-1.2,0.9C253,223.5,253.4,223.2,253.8,222.9z"/>
		<path fill="#191919" d="M251.5,228.7c0.5-1.6,1.2-3.2,2.2-3.4c2-0.5,3.2,1,5.5,1.2c1.9,0.2,3.6,1.2,5.4,1.9
			c0.1,0.1,0.2,0.1,0.4,0.2c0.3,2.5,0,5.8-0.6,8.4l-7.9,2.7l-4.2-0.4C251.8,236.6,251.3,232.3,251.5,228.7z"/>
		<path fill="#191919" d="M263.9,225c0.5,0.7,0.8,2,1,3.6c-0.1-0.1-0.2-0.1-0.4-0.2c-1.8-0.7-3.5-1.8-5.4-1.9
			c-2.3-0.2-3.5-1.8-5.5-1.2c-1,0.2-1.6,1.8-2.2,3.4c0.1-1.9,0.3-3.5,0.9-4.4c0.1-0.2,0.2-0.3,0.3-0.4l1.2-0.9
			C256.9,221.4,262.5,222.9,263.9,225z"/>
	</g>
</g>
<g display="none">
	
		<linearGradient id="SVGID_44_" gradientUnits="userSpaceOnUse" x1="407.2867" y1="317.3008" x2="346.9558" y2="377.6317" gradientTransform="matrix(-1 -2.258522e-003 -2.122476e-003 0.9398 932.1447 19.3693)">
		<stop  offset="0.2193" style="stop-color:#191919"/>
		<stop  offset="0.7887" style="stop-color:#191919;stop-opacity:4.073054e-002"/>
		<stop  offset="0.8128" style="stop-color:#191919;stop-opacity:0"/>
	</linearGradient>
	<path display="inline" opacity="0.95" fill="url(#SVGID_44_)" d="M532.3,328.4c0,0,7.3,5.7,18.3,13.6c-9.4-7.9-16.9-13.6-16.9-13.6
		s10.3-1.1,21.2-0.6l0.3,1.6c-2.4-0.1-3.8,0.1-3.8,0.1s7.3,7.8,12.6,11.1c10.3,6.5,15.8,0.5,19.6,1.5c2.6,0.7,2.2,5.6,2.3,6.7
		c3.1,8.7-4.3,12.3-6.3,13.9c0.3,0.2,1,0.5,1.8,1c1.8,1.1,4.4,2.7,5.9,4.1c0.8,0.7,1.3,1.4,1.2,1.7c0,0.1-0.1,0.1-0.1,0.2
		c-0.2,0.1-0.4,0.3-0.8,0.4c-2.5,0.6-9.1,0.1-11.6-0.7c-0.8-0.3-1.8-0.8-2.7-1.4c-1.5-1-2.8-2.2-3.4-3.2c-0.4-0.6-0.5-1.1-0.2-1.4
		c0.5-0.2,1.3-0.4,2.3-0.5c-6.4-1.8-13,7-30.3-1.5c-10.5-4.7-19-13.7-3.4-13.5c1.8,0,0.4-4.1-4.1-7c-6.8-4.4-15.9-10.8-15.9-10.8
		s-1.9-0.2-4,0l-1.7-2.5C521.8,326.7,532.3,328.4,532.3,328.4z"/>
	<g display="inline">
		<path fill="#20211D" d="M553.6,324.9c-2.1,0.3-3.7-0.2-3.7-0.2s-0.1-17.4-1-28.8c-0.8-11.1-2.3-18.1-2.3-18.1l-23.3,0.3
			c0,0-1.6,6.4-3,17.5c-1.4,11.4-2.5,28.2-2.5,28.2s-1.6,0.5-3.7,0.2l-1.8,4c9.6,2,20.7,0,20.7,0s0.2-14.8,1.5-35.2
			c0.3,20.4-0.2,35.3-0.2,35.3s11,2.5,20.7,1L553.6,324.9z"/>
		<path fill="#A08B35" d="M536.9,219.4l1.2,0.9C537.7,219.9,537.3,219.6,536.9,219.4z"/>
		<path fill="#44473D" d="M526.8,221.5c-0.5,0.7-0.8,2-1,3.6c0.1-0.1,0.2-0.1,0.4-0.2c1.8-0.7,3.5-1.8,5.4-1.9
			c2.3-0.2,3.5-1.8,5.5-1.2c1,0.2,1.6,1.8,2.2,3.4c-0.1-1.9-0.3-3.5-0.9-4.4c-0.1-0.2-0.2-0.3-0.3-0.4l-1.2-0.9
			C533.8,217.8,528.2,219.4,526.8,221.5z"/>
		<g>
			
				<linearGradient id="SVGID_45_" gradientUnits="userSpaceOnUse" x1="525.0644" y1="240.5285" x2="534.662" y2="240.5285" gradientTransform="matrix(0.9964 -8.454613e-002 8.454613e-002 0.9964 19.7656 43.9241)">
				<stop  offset="0" style="stop-color:#BD9661"/>
				<stop  offset="0.4058" style="stop-color:#C39B64"/>
				<stop  offset="0.9548" style="stop-color:#D4A96D"/>
				<stop  offset="0.9972" style="stop-color:#D6AA6E"/>
			</linearGradient>
			<path fill="url(#SVGID_45_)" d="M563.2,238.1c0,0,1.5-2.6,2.7-3c7.6-2.7,7.3,5,6.6,5.8c-0.7,0.8-3.1,2-3.1,2L563.2,238.1z"/>
			
				<linearGradient id="SVGID_46_" gradientUnits="userSpaceOnUse" x1="5.735" y1="-260.9678" x2="5.735" y2="-300.5476" gradientTransform="matrix(-0.1242 -0.9923 0.9923 -0.1242 830.2043 216.2206)">
				<stop  offset="0" style="stop-color:#6C7880"/>
				<stop  offset="0.2312" style="stop-color:#859198"/>
				<stop  offset="0.4807" style="stop-color:#98A4AB"/>
				<stop  offset="0.7347" style="stop-color:#A3B0B6"/>
				<stop  offset="0.9972" style="stop-color:#A7B4BA"/>
			</linearGradient>
			<path fill="url(#SVGID_46_)" d="M551,255.3c-9.7-0.2-17.1-9.5-20.3-14.4c-1.2-1.8,0.3-3,0.3-3l6.7-0.1c4.3,5.4,10.3,8.8,14.5,9
				c4.2,0.2,7.6-4,11.4-9.4l6.8,5C565.1,249,559.9,255.4,551,255.3z"/>
		</g>
		<g>
			
				<linearGradient id="SVGID_47_" gradientUnits="userSpaceOnUse" x1="710.5352" y1="235.5991" x2="720.1328" y2="235.5991" gradientTransform="matrix(-0.9607 0.2776 0.2776 0.9607 1124.1188 -173.326)">
				<stop  offset="0" style="stop-color:#BD9661"/>
				<stop  offset="0.4058" style="stop-color:#C39B64"/>
				<stop  offset="0.9548" style="stop-color:#D4A96D"/>
				<stop  offset="0.9972" style="stop-color:#D6AA6E"/>
			</linearGradient>
			<path fill="url(#SVGID_47_)" d="M506.6,249.2c0,0-2.4-1.9-3.6-1.8c-8,0.2-5.1,7.3-4.1,7.8c1,0.5,3.6,0.8,3.6,0.8L506.6,249.2z"/>
			
				<linearGradient id="SVGID_48_" gradientUnits="userSpaceOnUse" x1="4.6954" y1="-75.448" x2="4.6954" y2="-115.0278" gradientTransform="matrix(-0.2391 -0.971 -0.971 0.2391 429 277.5726)">
				<stop  offset="0" style="stop-color:#6C7880"/>
				<stop  offset="0.2312" style="stop-color:#859198"/>
				<stop  offset="0.4807" style="stop-color:#98A4AB"/>
				<stop  offset="0.7347" style="stop-color:#A3B0B6"/>
				<stop  offset="0.9972" style="stop-color:#A7B4BA"/>
			</linearGradient>
			<path fill="url(#SVGID_48_)" d="M523.5,257.9c9-3.6,13.2-12.1,14.5-17.8c0.4-2.1-1.4-2.7-1.4-2.7l-6.3,2.3
				c-2.1,6.6-7.2,9-11.1,10.7c-3.9,1.7-7.8,1.9-13.3-1.7l-4.5,7.1C508.7,260.1,515.2,261.3,523.5,257.9z"/>
		</g>
		
			<linearGradient id="SVGID_49_" gradientUnits="userSpaceOnUse" x1="694.3124" y1="286.1566" x2="671.7565" y2="247.0886" gradientTransform="matrix(0.9997 2.409443e-002 -2.409443e-002 0.9997 -144.843 -21.2358)">
			<stop  offset="0" style="stop-color:#6C7880"/>
			<stop  offset="0.2312" style="stop-color:#859198"/>
			<stop  offset="0.4807" style="stop-color:#98A4AB"/>
			<stop  offset="0.7347" style="stop-color:#A3B0B6"/>
			<stop  offset="0.9972" style="stop-color:#A7B4BA"/>
		</linearGradient>
		<path fill="url(#SVGID_49_)" d="M535,234.2l-4.2,4c-2.1,13.5-4.8,31-8.1,41.8l24.5-1.1C543.7,243.4,535,234.2,535,234.2z"/>
		
			<linearGradient id="SVGID_50_" gradientUnits="userSpaceOnUse" x1="683.2903" y1="243.8149" x2="682.8043" y2="223.6456" gradientTransform="matrix(0.9997 2.409443e-002 -2.409443e-002 0.9997 -144.843 -21.2358)">
			<stop  offset="0" style="stop-color:#B5905D"/>
			<stop  offset="0.5079" style="stop-color:#C89F67"/>
			<stop  offset="0.9972" style="stop-color:#D6AA6E"/>
		</linearGradient>
		<path fill="url(#SVGID_50_)" d="M526.3,233.5c0.4,1.6,0.9,3,1.4,3.7c2.7,2.1,9.6,2,10,1.5c0.1-0.2,0.4-1.3,0.6-2.8l-4.2,0.4
			L526.3,233.5z"/>
		<path fill="#44473D" d="M539.2,225.2c-0.5-1.6-1.2-3.2-2.2-3.4c-2-0.5-3.2,1-5.5,1.2c-1.9,0.2-3.6,1.2-5.4,1.9
			c-0.1,0.1-0.2,0.1-0.4,0.2c-0.3,2.5,0,5.8,0.6,8.4l7.9,2.7l4.2-0.4C538.9,233.1,539.4,228.8,539.2,225.2z"/>
	</g>
	<g display="inline" opacity="0.8">
		<path fill="#191919" d="M553.6,324.9c-2.1,0.3-3.7-0.2-3.7-0.2s-0.1-17.4-1-28.8c-0.8-11.1-2.3-18.1-2.3-18.1l-23.3,0.3
			c0,0-1.6,6.4-3,17.5c-1.4,11.4-2.5,28.2-2.5,28.2s-1.6,0.5-3.7,0.2l-1.8,4c9.6,2,20.7,0,20.7,0s0.2-14.8,1.5-35.2
			c0.3,20.4-0.2,35.3-0.2,35.3s11,2.5,20.7,1L553.6,324.9z"/>
		<path fill="#191919" d="M536.9,219.4l1.2,0.9C537.7,219.9,537.3,219.6,536.9,219.4z"/>
		<path fill="#191919" d="M526.8,221.5c-0.5,0.7-0.8,2-1,3.6c0.1-0.1,0.2-0.1,0.4-0.2c1.8-0.7,3.5-1.8,5.4-1.9
			c2.3-0.2,3.5-1.8,5.5-1.2c1,0.2,1.6,1.8,2.2,3.4c-0.1-1.9-0.3-3.5-0.9-4.4c-0.1-0.2-0.2-0.3-0.3-0.4l-1.2-0.9
			C533.8,217.8,528.2,219.4,526.8,221.5z"/>
		<g>
			<path fill="#191919" d="M563.2,238.1c0,0,1.5-2.6,2.7-3c7.6-2.7,7.3,5,6.6,5.8c-0.7,0.8-3.1,2-3.1,2L563.2,238.1z"/>
			<path fill="#191919" d="M551,255.3c-9.7-0.2-17.1-9.5-20.3-14.4c-1.2-1.8,0.3-3,0.3-3l6.7-0.1c4.3,5.4,10.3,8.8,14.5,9
				c4.2,0.2,7.6-4,11.4-9.4l6.8,5C565.1,249,559.9,255.4,551,255.3z"/>
		</g>
		<g>
			<path fill="#191919" d="M506.6,249.2c0,0-2.4-1.9-3.6-1.8c-8,0.2-5.1,7.3-4.1,7.8c1,0.5,3.6,0.8,3.6,0.8L506.6,249.2z"/>
			<path fill="#191919" d="M523.5,257.9c9-3.6,13.2-12.1,14.5-17.8c0.4-2.1-1.4-2.7-1.4-2.7l-6.3,2.3c-2.1,6.6-7.2,9-11.1,10.7
				c-3.9,1.7-7.8,1.9-13.3-1.7l-4.5,7.1C508.7,260.1,515.2,261.3,523.5,257.9z"/>
		</g>
		<path fill="#191919" d="M535,234.2l-4.2,4c-2.1,13.5-4.8,31-8.1,41.8l24.5-1.1C543.7,243.4,535,234.2,535,234.2z"/>
		<path fill="#191919" d="M526.3,233.5c0.4,1.6,0.9,3,1.4,3.7c2.7,2.1,9.6,2,10,1.5c0.1-0.2,0.4-1.3,0.6-2.8l-4.2,0.4L526.3,233.5z"
			/>
		<path fill="#191919" d="M539.2,225.2c-0.5-1.6-1.2-3.2-2.2-3.4c-2-0.5-3.2,1-5.5,1.2c-1.9,0.2-3.6,1.2-5.4,1.9
			c-0.1,0.1-0.2,0.1-0.4,0.2c-0.3,2.5,0,5.8,0.6,8.4l7.9,2.7l4.2-0.4C538.9,233.1,539.4,228.8,539.2,225.2z"/>
	</g>
</g>
</svg>
